{"glyphs":{"0":{"ha":831,"x_min":0,"x_max":0,"o":"m 431 671 b 796 343 622 671 796 578 b 400 -22 796 140 640 -22 b 35 306 208 -22 35 71 b 431 671 35 508 190 671 m 400 533 b 260 342 297 533 260 456 b 431 115 260 196 336 115 b 571 307 532 115 571 193 b 400 533 571 453 494 533 "},"1":{"ha":524,"x_min":0,"x_max":0,"o":"m 153 503 b 17 599 28 485 1 538 b 381 682 100 613 299 658 l 381 114 l 517 86 b 428 0 517 32 485 0 b 233 3 381 0 286 3 b 13 0 151 3 13 0 b 7 32 8 11 7 22 b 54 94 7 58 18 85 l 153 122 "},"2":{"ha":618,"x_min":0,"x_max":0,"o":"m 596 101 b 424 -14 596 18 519 -14 b 31 3 331 -14 31 3 l 10 82 b 313 419 271 276 313 342 b 210 524 313 485 278 524 b 106 464 171 524 136 503 b 51 536 68 472 51 499 b 297 671 51 603 140 671 b 551 457 467 671 551 579 b 238 147 551 344 474 256 b 558 189 407 143 499 153 b 596 101 583 165 596 132 "},"3":{"ha":611,"x_min":0,"x_max":0,"o":"m 540 457 b 358 236 540 335 447 254 b 588 19 499 222 588 135 b 218 -262 588 -147 439 -262 b -35 -137 68 -262 -35 -212 b 33 -44 -35 -90 -6 -54 b 194 -146 57 -94 108 -146 b 335 -7 279 -146 335 -99 b 135 150 335 103 246 136 l 113 249 b 300 419 235 267 300 324 b 193 524 300 483 260 524 b 81 464 153 524 111 503 b 26 536 43 472 26 499 b 281 671 26 603 119 671 b 540 457 451 671 540 579 "},"4":{"ha":744,"x_min":0,"x_max":0,"o":"m 736 151 b 600 -7 775 97 739 -17 l 601 -85 b 457 -267 604 -228 540 -267 b 360 -242 424 -267 392 -258 l 363 0 l 61 0 l 7 103 b 413 668 83 261 292 557 l 588 632 l 597 138 b 736 151 639 138 701 142 m 378 474 b 150 129 317 410 197 232 l 368 129 l 378 474 "},"5":{"ha":624,"x_min":0,"x_max":0,"o":"m 157 -261 b -24 -169 26 -261 -24 -212 b -10 -122 -24 -150 -15 -129 b 140 -149 35 -139 94 -149 b 339 13 265 -149 339 -92 b 60 203 339 108 260 194 l 82 650 l 360 650 b 568 671 433 650 497 656 b 586 599 581 647 586 622 b 413 454 586 522 529 454 b 201 463 336 454 251 457 l 194 346 b 578 67 476 344 578 225 b 157 -261 578 -129 400 -261 "},"6":{"ha":729,"x_min":0,"x_max":0,"o":"m 35 336 b 549 911 35 693 228 911 b 708 818 665 911 708 861 b 694 771 708 799 700 778 b 544 797 650 788 590 797 b 296 575 407 797 333 713 b 379 585 313 579 343 585 b 689 314 564 585 689 497 b 349 -22 689 104 550 -22 b 35 336 136 -22 35 126 m 265 369 b 392 108 265 193 322 108 b 475 242 443 108 475 149 b 274 485 475 393 403 475 b 265 369 268 449 265 410 "},"7":{"ha":621,"x_min":0,"x_max":0,"o":"m 632 646 b 190 -258 526 453 301 -10 b 106 -11 47 -265 29 -154 b 396 449 171 113 272 265 b 185 436 340 440 278 436 b 39 663 50 436 -14 525 b 632 646 164 643 506 640 "},"8":{"ha":729,"x_min":0,"x_max":0,"o":"m 693 249 b 346 -22 693 85 546 -22 b 26 204 135 -22 26 81 b 183 447 26 303 88 396 b 76 663 99 524 76 582 b 381 915 76 797 172 915 b 651 706 558 915 651 822 b 528 492 651 601 594 539 b 693 249 661 401 693 332 m 492 672 b 364 796 492 746 446 796 b 274 718 294 796 274 758 b 443 543 274 669 293 636 b 492 672 478 586 492 625 m 468 181 b 267 382 468 233 432 275 b 213 238 224 336 213 289 b 367 104 213 150 272 104 b 468 181 429 104 468 131 "},"9":{"ha":736,"x_min":0,"x_max":0,"o":"m 710 313 b 196 -262 710 -44 517 -262 b 36 -169 79 -262 36 -212 b 50 -122 36 -150 44 -129 b 200 -149 94 -139 154 -149 b 449 74 338 -149 411 -64 b 363 64 432 69 399 64 b 56 335 178 64 56 151 b 396 671 56 544 194 671 b 710 313 608 671 710 522 m 479 279 b 353 540 479 456 422 540 b 269 407 301 540 269 500 b 471 164 269 256 342 174 b 479 279 476 200 479 239 "},"\u0000":{"ha":0,"x_min":0,"x_max":0,"o":""},"\r":{"ha":347,"x_min":0,"x_max":0,"o":""}," ":{"ha":275,"x_min":0,"x_max":0,"o":""}," ":{"ha":275,"x_min":0,"x_max":0,"o":""},"A":{"ha":976,"x_min":0,"x_max":0,"o":"m 532 0 b 526 31 528 10 526 21 b 574 93 526 57 538 78 l 619 113 l 567 264 l 292 264 l 244 107 l 356 88 b 274 0 363 38 335 0 b 136 3 235 0 192 3 b 11 0 54 3 11 0 b 6 31 7 10 6 21 b 53 93 6 57 17 79 l 101 113 l 369 903 b 476 919 410 915 444 919 b 635 796 550 919 601 883 l 883 113 l 969 88 b 888 0 976 38 949 0 b 710 3 849 0 765 3 b 532 0 628 3 532 0 m 422 711 l 321 369 l 536 369 "},"B":{"ha":888,"x_min":0,"x_max":0,"o":"m 42 0 b 36 31 38 10 36 21 b 83 93 36 57 47 79 l 132 113 l 132 789 l 38 808 b 404 921 15 882 72 921 b 789 696 628 921 789 851 b 614 494 789 593 726 517 b 847 272 771 476 847 394 b 481 -3 847 89 706 -3 b 224 3 428 -3 279 3 b 42 0 142 3 42 0 m 563 650 b 372 807 563 751 475 806 l 372 510 b 563 650 472 494 563 517 m 474 97 b 611 235 557 97 611 149 b 372 406 611 353 504 418 l 372 108 b 474 97 372 108 432 97 "},"":{"ha":888,"x_min":0,"x_max":0,"o":"m 42 0 b 224 3 42 0 142 3 b 481 -3 279 3 428 -3 b 847 272 706 -3 847 89 b 614 494 847 394 771 476 b 789 696 726 517 789 593 b 404 921 789 851 628 921 b 38 808 72 921 15 882 l 132 789 l 132 113 l 83 93 b 36 31 47 79 36 57 b 42 0 36 21 38 10 m 563 650 b 372 510 563 517 472 494 l 372 807 b 563 650 475 806 563 751 m 474 97 b 372 108 432 97 372 108 l 372 406 b 611 235 504 418 611 353 b 474 97 611 149 557 97 "},"C":{"ha":871,"x_min":0,"x_max":0,"o":"m 721 260 b 835 288 743 315 796 315 l 783 49 b 493 -22 714 3 632 -22 b 46 410 229 -22 46 118 b 567 925 46 711 206 925 b 807 876 647 925 743 904 l 772 676 b 663 618 763 619 710 603 l 669 788 b 540 813 638 801 586 813 b 297 465 389 813 297 678 b 656 101 297 226 432 101 "},"D":{"ha":1022,"x_min":0,"x_max":0,"o":"m 132 785 l 38 804 b 422 921 11 885 89 921 b 976 467 781 921 976 772 b 464 -3 976 197 814 -3 b 224 3 425 -3 279 3 b 42 0 113 3 42 0 b 36 31 38 10 36 21 b 83 93 36 57 47 79 l 132 113 m 464 104 b 739 413 619 104 739 221 b 372 797 739 672 586 785 l 372 110 b 464 104 372 110 426 104 "},"E":{"ha":793,"x_min":0,"x_max":0,"o":"m 40 0 b 35 31 36 10 35 21 b 82 93 35 57 46 79 l 131 113 l 131 792 l 43 817 b 125 906 36 868 64 906 l 689 906 l 700 756 b 613 663 706 681 671 657 l 586 792 l 371 806 l 371 485 l 519 485 b 625 578 518 558 560 593 l 615 360 b 510 288 613 299 556 276 l 514 379 l 371 379 l 371 122 l 592 106 l 646 233 b 760 263 672 289 721 290 l 700 0 l 40 0 "},"":{"ha":793,"x_min":0,"x_max":0,"o":"m 40 0 l 700 0 l 760 263 b 646 233 721 290 672 289 l 592 106 l 371 122 l 371 379 l 514 379 l 510 288 b 615 360 556 276 613 299 l 625 578 b 519 485 560 593 518 558 l 371 485 l 371 806 l 586 792 l 613 663 b 700 756 671 657 706 681 l 689 906 l 125 906 b 43 817 64 906 36 868 l 131 792 l 131 113 l 82 93 b 35 31 46 79 35 57 b 40 0 35 21 36 10 "},"F":{"ha":714,"x_min":0,"x_max":0,"o":"m 686 756 b 599 663 692 681 657 657 l 572 792 l 371 806 l 371 478 l 519 478 b 625 571 518 551 560 586 l 615 353 b 510 281 613 292 556 269 l 514 372 l 371 372 l 371 115 l 518 90 b 436 0 525 39 497 0 b 222 3 397 0 278 3 b 40 0 140 3 40 0 b 35 31 36 10 35 21 b 82 93 35 57 46 79 l 131 113 l 131 792 l 43 817 b 125 906 36 868 64 906 l 675 906 "},"G":{"ha":932,"x_min":0,"x_max":0,"o":"m 643 293 l 506 318 b 588 408 499 369 526 408 l 906 408 b 865 307 921 368 910 326 l 843 296 l 843 81 b 493 -22 760 21 660 -22 b 46 410 229 -22 46 118 b 567 925 46 711 206 925 b 828 869 660 925 754 904 l 794 676 b 682 617 785 619 731 599 l 689 778 b 538 813 644 801 589 813 b 297 465 386 813 297 678 b 643 103 297 231 426 106 "},"H":{"ha":1096,"x_min":0,"x_max":0,"o":"m 208 3 b 40 0 126 3 40 0 b 35 31 36 10 35 21 b 82 93 35 57 46 79 l 131 113 l 131 793 l 35 818 b 117 906 28 868 56 906 l 463 906 b 422 811 478 867 468 829 l 371 790 l 371 515 l 717 515 l 717 793 l 621 818 b 703 906 614 868 642 906 l 1049 906 b 1008 811 1064 867 1054 829 l 957 790 l 957 113 l 1063 88 b 981 0 1069 38 1042 0 b 794 3 942 0 850 3 b 626 0 713 3 626 0 b 621 31 622 10 621 21 b 668 93 621 57 632 79 l 717 113 l 717 389 l 371 389 l 371 113 l 476 88 b 394 0 483 38 456 0 b 208 3 356 0 264 3 "},"I":{"ha":514,"x_min":0,"x_max":0,"o":"m 44 0 b 39 31 40 10 39 21 b 86 93 39 57 50 79 l 135 113 l 135 793 l 39 818 b 121 906 32 868 60 906 l 467 906 b 426 811 482 867 472 829 l 375 790 l 375 113 l 481 88 b 399 0 488 38 460 0 b 213 3 360 0 268 3 b 44 0 131 3 44 0 "},"J":{"ha":501,"x_min":0,"x_max":0,"o":"m 375 153 b 56 -246 375 -81 232 -246 b -81 -151 -29 -246 -81 -225 b -65 -93 -81 -135 -76 -118 b 44 -118 -26 -110 11 -118 b 135 -8 100 -118 135 -94 l 135 793 l 39 818 b 121 906 32 868 60 906 l 467 906 b 426 811 482 867 472 829 l 375 790 "},"K":{"ha":940,"x_min":0,"x_max":0,"o":"m 210 3 b 42 0 128 3 42 0 b 36 31 38 10 36 21 b 83 93 36 57 47 79 l 132 113 l 132 793 l 36 818 b 118 906 29 868 57 906 l 464 906 b 424 811 479 867 469 829 l 372 790 l 372 113 l 478 88 b 396 0 485 38 457 0 b 210 3 357 0 265 3 m 554 821 b 629 906 542 860 574 906 l 926 906 b 838 785 947 835 914 776 l 813 788 l 604 521 l 947 57 b 789 -19 915 8 843 -19 b 600 90 686 -19 647 15 l 390 422 l 650 807 l 554 821 "},"L":{"ha":779,"x_min":0,"x_max":0,"o":"m 132 793 l 36 818 b 118 906 29 868 57 906 l 508 906 b 469 810 526 869 518 819 l 372 790 l 372 131 l 593 114 l 651 257 b 765 285 674 313 726 313 l 704 0 l 39 0 b 35 31 36 10 35 21 b 82 93 35 57 46 79 l 132 113 "},"M":{"ha":1276,"x_min":0,"x_max":0,"o":"m 90 818 b 172 906 83 868 111 906 l 472 906 l 661 346 l 829 906 l 1189 906 b 1121 799 1203 847 1179 814 l 1088 790 l 1167 114 l 1274 90 b 1189 0 1281 39 1253 0 b 997 3 1150 0 1056 3 b 824 0 914 3 824 0 b 818 31 819 10 818 21 b 865 93 818 57 829 79 l 924 115 l 876 635 l 665 6 l 510 6 l 283 636 l 236 118 l 364 93 b 282 0 372 43 343 0 b 128 3 243 0 175 3 b 18 0 79 3 33 1 b 13 31 14 10 13 21 b 60 93 13 57 24 79 l 108 113 l 186 793 "},"N":{"ha":1011,"x_min":0,"x_max":0,"o":"m 350 906 l 758 324 l 758 789 l 628 814 b 710 906 621 864 649 906 l 983 906 b 939 815 999 867 982 835 l 894 794 l 894 14 b 783 -15 843 -10 824 -15 b 647 64 728 -15 685 10 l 265 604 l 265 118 l 404 93 b 322 0 413 43 383 0 b 149 3 283 0 204 3 b 39 0 100 3 54 1 b 33 31 35 10 33 21 b 81 93 33 57 44 79 l 129 113 l 129 800 l 42 818 b 124 906 35 868 63 906 "},"O":{"ha":1046,"x_min":0,"x_max":0,"o":"m 483 -22 b 46 392 210 -22 46 126 b 563 925 46 717 224 925 b 1000 511 836 925 1000 776 b 483 -22 1000 186 822 -22 m 501 788 b 296 479 389 788 296 706 b 544 115 296 263 392 114 b 750 424 657 115 750 197 b 501 788 750 640 654 789 "},"P":{"ha":854,"x_min":0,"x_max":0,"o":"m 394 921 b 826 621 690 921 826 803 b 372 275 826 346 600 253 l 372 115 l 524 90 b 442 0 531 40 503 0 b 224 1 403 0 279 1 b 43 -1 142 1 79 0 b 36 33 38 8 36 24 b 83 96 36 60 47 82 l 132 114 l 132 789 l 38 808 b 394 921 14 879 76 921 m 592 567 b 372 799 592 676 547 782 l 372 375 b 592 567 533 369 592 432 "},"Q":{"ha":1046,"x_min":0,"x_max":0,"o":"m 483 -22 b 46 392 210 -22 46 126 b 563 925 46 717 224 925 b 1000 511 836 925 1000 776 b 725 22 1000 275 906 100 b 1158 -140 871 -61 1007 -108 b 946 -294 1158 -218 1094 -294 b 556 -19 796 -294 692 -201 b 483 -22 533 -21 508 -22 m 501 788 b 296 479 389 788 296 706 b 544 115 296 263 392 114 b 750 424 657 115 750 197 b 501 788 750 640 654 789 "},"R":{"ha":964,"x_min":0,"x_max":0,"o":"m 43 -1 b 36 33 38 8 36 24 b 83 96 36 60 47 82 l 132 114 l 132 789 l 38 808 b 394 921 13 875 63 921 b 842 617 690 921 842 789 b 665 357 842 479 760 392 b 811 189 710 296 775 225 b 981 58 867 133 918 94 b 803 -43 964 7 896 -43 b 560 128 697 -43 633 10 l 453 297 b 372 301 426 297 399 299 l 372 111 l 478 86 b 396 -1 485 36 457 -1 b 224 1 357 -1 279 1 b 43 -1 142 1 79 0 m 606 581 b 372 799 606 688 525 783 l 372 397 b 606 581 533 393 606 450 "},"S":{"ha":769,"x_min":0,"x_max":0,"o":"m 440 925 b 693 868 529 925 632 900 l 663 696 b 549 629 653 638 611 613 l 553 782 b 431 814 524 803 478 814 b 286 704 333 814 286 767 b 406 578 286 651 313 617 l 506 536 b 728 275 678 464 728 393 b 367 -22 728 110 597 -22 b 35 150 144 -22 35 49 b 182 292 35 222 61 281 b 381 97 210 161 282 97 b 503 197 471 97 503 144 b 313 363 503 251 461 288 l 243 397 b 79 632 113 463 79 542 b 440 925 79 804 186 925 "},"":{"ha":769,"x_min":0,"x_max":0,"o":"m 440 925 b 79 632 186 925 79 804 b 243 397 79 542 113 463 l 313 363 b 503 197 461 288 503 251 b 381 97 503 144 471 97 b 182 292 282 97 210 161 b 35 150 61 281 35 222 b 367 -22 35 49 144 -22 b 728 275 597 -22 728 110 b 506 536 728 393 678 464 l 406 578 b 286 704 313 617 286 651 b 431 814 286 767 333 814 b 553 782 478 814 524 803 l 549 629 b 663 696 611 613 653 638 l 693 868 b 440 925 632 900 529 925 "},"T":{"ha":860,"x_min":0,"x_max":0,"o":"m 551 113 l 685 88 b 603 0 692 38 664 0 b 389 3 564 0 444 3 b 188 0 307 3 188 0 b 233 90 172 39 186 76 l 311 113 l 311 788 l 160 788 l 125 674 b 15 626 108 619 58 603 l 36 906 l 824 906 l 844 639 b 728 676 803 610 746 615 l 694 788 l 551 788 "},"U":{"ha":967,"x_min":0,"x_max":0,"o":"m 368 383 b 561 135 368 186 436 135 b 743 385 688 135 743 218 l 743 789 l 613 814 b 694 906 606 864 633 906 l 968 906 b 924 815 983 867 967 835 l 879 794 l 879 400 b 490 -22 879 125 736 -22 b 128 331 247 -22 128 76 l 128 793 l 32 818 b 114 906 25 868 53 906 l 460 906 b 419 811 475 867 465 829 l 368 790 "},"V":{"ha":919,"x_min":0,"x_max":0,"o":"m 521 263 l 674 803 l 553 821 b 628 906 540 860 572 906 l 910 906 b 814 783 929 838 893 779 l 586 147 b 350 -7 536 10 490 -24 l 58 803 l 1 818 b 83 906 -6 868 22 906 l 429 906 b 389 811 444 867 435 829 l 338 790 "},"W":{"ha":1381,"x_min":0,"x_max":0,"o":"m 1079 149 b 832 -6 1039 18 992 -32 l 671 571 l 550 158 b 292 -6 506 10 443 -35 l 58 803 l 1 818 b 83 906 -6 868 22 906 l 429 906 b 389 811 444 867 435 829 l 338 790 l 474 289 l 636 900 l 838 921 l 1018 289 l 1140 803 l 1019 821 b 1094 906 1007 860 1039 906 l 1371 906 b 1275 783 1390 838 1354 779 "},"X":{"ha":888,"x_min":0,"x_max":0,"o":"m 551 821 b 626 906 539 860 571 906 l 878 906 b 778 785 899 835 863 771 l 599 432 l 804 113 l 893 90 b 810 0 900 39 872 0 b 629 3 769 0 686 3 b 446 0 544 3 446 0 b 440 31 442 11 440 21 b 488 93 440 57 456 78 l 522 108 l 363 363 l 247 110 l 331 90 b 246 0 338 39 310 0 b 118 3 206 0 175 3 b 3 0 33 3 3 0 b -3 31 -1 11 -3 21 b 44 93 -3 57 10 79 l 93 113 l 290 475 l 88 799 l 13 818 b 94 906 6 868 33 906 l 440 906 b 400 811 456 867 446 829 l 368 799 l 535 533 l 646 804 "},"Y":{"ha":851,"x_min":0,"x_max":0,"o":"m 488 474 l 603 806 l 515 821 b 590 906 503 860 535 906 l 842 906 b 742 785 863 835 826 771 l 546 342 l 546 113 l 679 88 b 597 0 686 38 658 0 b 383 3 558 0 439 3 b 182 0 301 3 182 0 b 228 90 167 39 181 76 l 306 113 l 306 335 l 58 803 l 1 818 b 83 906 -6 868 22 906 l 429 906 b 389 811 444 867 435 829 l 338 790 "},"Z":{"ha":797,"x_min":0,"x_max":0,"o":"m 739 903 l 311 114 l 622 132 l 675 301 b 760 208 750 303 765 264 l 738 0 l 46 0 b 75 164 28 49 39 97 l 424 796 l 199 782 l 153 611 b 64 714 99 601 53 622 l 86 911 "},"a":{"ha":724,"x_min":0,"x_max":0,"o":"m 717 88 b 550 -22 697 11 631 -22 b 419 50 496 -22 447 3 b 247 -22 372 0 326 -22 b 39 169 128 -22 39 53 b 254 347 39 265 92 314 l 397 376 l 397 442 b 321 551 397 517 381 553 b 201 407 240 550 208 494 b 71 493 96 401 71 451 b 399 671 71 576 178 671 b 625 433 560 671 625 589 l 625 224 b 717 88 625 136 651 106 m 400 115 b 397 192 397 138 397 165 l 397 292 l 325 268 b 263 190 279 253 263 236 b 354 101 263 131 297 101 b 400 115 369 101 389 107 "},"b":{"ha":811,"x_min":0,"x_max":0,"o":"m 776 372 b 372 -22 776 114 636 -22 b 93 17 274 -22 172 -4 l 93 863 l -3 875 b -7 906 -6 886 -7 896 b 63 972 -7 947 17 965 l 321 1011 l 321 585 b 510 671 372 632 424 671 b 776 372 643 671 776 578 m 321 99 b 388 90 338 93 363 90 b 540 321 481 90 540 160 b 358 525 540 453 464 525 b 321 524 344 525 335 525 "},"":{"ha":811,"x_min":0,"x_max":0,"o":"m 776 372 b 510 671 776 578 643 671 b 321 585 424 671 372 632 l 321 1011 l 63 972 b -7 906 17 965 -7 947 b -3 875 -7 896 -6 886 l 93 863 l 93 17 b 372 -22 172 -4 274 -22 b 776 372 636 -22 776 114 m 321 524 b 358 525 335 525 344 525 b 540 321 464 525 540 453 b 388 90 540 160 481 90 b 321 99 363 90 338 93 "},"c":{"ha":611,"x_min":0,"x_max":0,"o":"m 576 196 b 597 149 590 182 597 169 b 347 -22 597 69 506 -22 b 35 289 153 -22 35 81 b 378 671 35 492 165 671 b 576 536 511 671 576 611 b 426 415 576 463 519 407 b 361 554 422 508 408 554 b 260 350 300 554 260 472 b 428 140 260 226 314 140 b 576 196 486 140 539 165 "},"d":{"ha":813,"x_min":0,"x_max":0,"o":"m 824 96 b 733 -3 824 38 796 3 l 493 -24 l 493 63 b 292 -22 433 4 375 -22 b 35 296 172 -22 35 76 b 385 671 35 497 172 671 b 493 660 431 671 467 667 l 493 863 l 381 875 b 376 906 378 886 376 897 b 446 969 376 946 400 963 l 721 1011 l 721 108 l 824 96 m 493 536 b 410 554 467 549 446 554 b 281 344 331 554 281 479 b 447 121 281 200 346 121 b 493 129 464 121 482 124 "},"e":{"ha":669,"x_min":0,"x_max":0,"o":"m 613 201 b 631 164 624 193 631 181 b 351 -22 631 78 528 -22 b 35 290 139 -22 35 88 b 367 671 35 486 164 671 b 635 424 544 671 635 581 b 622 322 635 389 631 350 l 261 322 b 436 133 268 194 335 133 b 613 201 510 133 567 160 m 446 411 b 354 560 443 510 407 560 b 264 408 294 560 267 496 "},"f":{"ha":514,"x_min":0,"x_max":0,"o":"m 489 88 b 404 0 489 32 467 0 b 186 3 365 0 242 3 b 31 0 104 3 31 0 b 25 32 26 11 25 22 b 71 90 25 58 38 78 l 118 108 l 118 525 l 17 539 b 13 569 14 550 13 560 b 82 639 13 611 38 632 l 115 643 b 432 1017 115 858 204 1017 b 582 924 542 1017 582 974 b 514 819 582 879 558 847 b 404 901 486 868 440 901 b 346 825 364 901 346 883 l 346 650 l 493 650 b 385 525 518 579 483 525 l 346 525 l 346 110 l 489 88 "},"g":{"ha":751,"x_min":0,"x_max":0,"o":"m 710 442 b 369 188 710 275 565 188 b 281 194 349 188 304 190 b 264 154 269 181 264 165 b 372 111 264 124 286 111 l 506 111 b 743 -58 686 111 743 46 b 365 -357 743 -190 635 -357 b 22 -181 154 -357 22 -294 b 131 -37 22 -119 54 -69 b 81 63 92 -10 81 22 b 199 218 81 125 121 172 b 43 407 111 244 43 297 b 390 671 43 564 171 671 b 506 657 432 671 472 667 b 647 828 539 786 582 828 b 750 714 717 828 756 788 b 607 618 696 697 643 663 b 710 442 668 581 710 518 m 467 419 b 369 567 467 513 431 567 b 285 440 315 567 285 531 b 382 293 285 339 324 293 b 467 419 439 293 467 338 m 210 -79 b 207 -115 208 -92 207 -104 b 372 -240 207 -208 272 -240 b 522 -150 472 -240 522 -190 b 407 -106 522 -115 497 -110 l 354 -103 b 210 -79 297 -100 253 -94 "},"h":{"ha":840,"x_min":0,"x_max":0,"o":"m 847 86 b 758 0 847 32 815 0 b 614 3 711 0 667 3 b 461 0 561 3 511 1 b 456 32 457 11 456 22 b 503 94 456 58 467 81 l 524 103 l 524 357 b 413 493 524 463 485 493 b 336 481 389 493 360 490 l 336 108 l 411 90 b 325 0 410 40 386 0 b 176 3 286 0 232 3 b 21 0 94 3 21 0 b 15 32 17 11 15 22 b 63 94 15 58 26 81 l 108 113 l 108 863 l 13 875 b 8 906 10 886 8 896 b 78 972 8 947 32 965 l 336 1011 l 336 550 b 564 671 410 631 478 671 b 751 446 675 671 751 608 l 751 108 l 847 86 "},"i":{"ha":450,"x_min":0,"x_max":0,"o":"m 354 918 b 228 792 354 853 317 792 b 108 908 154 792 108 840 b 236 1032 108 964 143 1032 b 354 918 306 1032 354 976 m 447 86 b 358 0 447 32 415 0 b 208 3 311 0 261 3 b 36 0 126 3 36 0 b 31 32 32 11 31 22 b 78 94 31 58 42 81 l 124 113 l 124 531 l 29 543 b 24 575 25 554 24 565 b 100 640 24 607 42 632 l 351 678 l 351 108 l 447 86 "},"j":{"ha":419,"x_min":0,"x_max":0,"o":"m 353 918 b 226 792 353 853 315 792 b 107 908 153 792 107 840 b 235 1032 107 964 142 1032 b 353 918 304 1032 353 976 m 350 60 b 42 -339 350 -212 188 -339 b -94 -244 -43 -339 -94 -318 b -79 -186 -94 -226 -90 -207 b 39 -211 -40 -203 6 -211 b 122 -101 94 -211 122 -185 l 122 531 l 28 543 b 22 575 24 554 22 565 b 99 640 22 607 40 632 l 350 678 "},"k":{"ha":838,"x_min":0,"x_max":0,"o":"m 336 108 l 411 90 b 325 0 410 40 386 0 b 176 3 286 0 232 3 b 21 0 94 3 21 0 b 15 32 17 11 15 22 b 63 94 15 58 26 81 l 108 113 l 108 863 l 13 875 b 8 906 10 886 8 896 b 78 972 8 947 32 965 l 336 1011 m 819 650 b 703 528 819 567 778 518 l 671 532 l 557 408 l 769 143 b 840 50 804 96 840 50 b 667 -15 796 6 725 -15 b 500 93 581 -15 540 25 l 346 328 l 524 550 l 439 564 b 514 650 426 603 458 650 l 819 650 "},"l":{"ha":433,"x_min":0,"x_max":0,"o":"m 432 86 b 343 0 432 32 400 0 b 193 3 296 0 246 3 b 21 0 111 3 21 0 b 15 32 17 11 15 22 b 63 94 15 58 26 81 l 108 113 l 108 863 l 13 875 b 8 906 10 886 8 896 b 78 972 8 947 32 965 l 336 1011 l 336 108 l 432 86 "},"m":{"ha":1274,"x_min":0,"x_max":0,"o":"m 1276 86 b 1188 0 1276 32 1244 0 b 1043 3 1140 0 1096 3 b 890 0 990 3 940 1 b 885 32 886 11 885 22 b 932 94 885 58 896 81 l 953 103 l 953 357 b 842 493 953 463 914 493 b 764 479 818 493 788 489 b 765 436 765 468 765 454 l 765 108 l 840 90 b 754 0 839 40 815 0 b 628 3 715 0 681 3 b 475 0 575 3 525 1 b 468 33 471 10 468 22 b 517 94 468 61 481 82 l 538 101 l 538 357 b 426 493 538 463 499 493 b 350 481 403 493 374 490 l 350 108 l 425 90 b 339 0 424 40 400 0 b 190 3 300 0 246 3 b 35 0 108 3 35 0 b 29 32 31 11 29 22 b 76 94 29 58 40 81 l 122 113 l 122 531 l 28 543 b 22 575 24 554 22 565 b 99 640 22 607 40 632 l 350 678 l 350 550 b 578 671 424 631 492 671 b 754 539 683 671 733 617 b 993 671 840 633 907 671 b 1181 446 1104 671 1181 608 l 1181 108 l 1276 86 "},"n":{"ha":857,"x_min":0,"x_max":0,"o":"m 861 86 b 772 0 861 32 829 0 b 628 3 725 0 681 3 b 475 0 575 3 525 1 b 469 32 471 11 469 22 b 517 94 469 58 481 81 l 538 103 l 538 357 b 426 493 538 463 499 493 b 350 481 403 493 374 490 l 350 108 l 425 90 b 339 0 424 40 400 0 b 190 3 300 0 246 3 b 35 0 108 3 35 0 b 29 32 31 11 29 22 b 76 94 29 58 40 81 l 122 113 l 122 531 l 28 543 b 22 575 24 554 22 565 b 99 640 22 607 40 632 l 350 678 l 350 550 b 578 671 424 631 492 671 b 765 446 689 671 765 608 l 765 108 l 861 86 "},"o":{"ha":793,"x_min":0,"x_max":0,"o":"m 758 353 b 378 -22 758 131 618 -22 b 35 301 194 -22 35 58 b 417 671 35 529 189 671 b 758 353 642 671 758 546 m 518 307 b 379 549 518 460 458 549 b 275 347 308 549 275 476 b 410 100 275 163 340 100 b 518 307 475 100 518 153 "},"p":{"ha":829,"x_min":0,"x_max":0,"o":"m 479 -231 b 394 -318 479 -286 457 -318 b 176 -315 356 -318 232 -315 b 24 -318 94 -315 24 -318 b 18 -286 19 -307 18 -296 b 64 -228 18 -260 31 -240 l 111 -210 l 111 531 l 17 543 b 11 575 13 554 11 565 b 88 640 11 607 29 632 l 336 678 l 336 585 b 528 671 388 632 442 671 b 794 367 661 671 794 572 b 422 -22 794 133 669 -22 b 339 -12 394 -22 364 -18 l 339 -207 l 479 -231 m 339 94 b 406 86 356 89 381 86 b 558 315 499 86 558 154 b 376 525 558 447 482 525 b 339 524 363 525 353 525 "},"q":{"ha":803,"x_min":0,"x_max":0,"o":"m 824 -232 b 731 -318 824 -285 794 -318 b 525 -315 692 -318 581 -315 b 363 -318 443 -315 363 -318 b 356 -286 358 -310 356 -296 b 403 -231 356 -260 368 -240 l 494 -206 l 494 44 b 307 -22 438 0 386 -22 b 36 292 157 -22 36 94 b 390 671 36 519 183 671 b 589 621 469 671 536 653 l 722 674 l 722 -208 l 824 -232 m 494 540 b 411 561 465 556 443 561 b 282 344 335 561 282 482 b 456 110 282 174 356 110 b 494 117 472 110 483 111 "},"r":{"ha":575,"x_min":0,"x_max":0,"o":"m 493 88 b 408 0 493 32 471 0 b 190 3 369 0 246 3 b 35 0 108 3 35 0 b 29 32 31 11 29 22 b 75 90 29 58 42 78 l 122 108 l 122 531 l 28 543 b 22 575 24 554 22 565 b 99 640 22 607 40 632 l 350 678 l 350 518 b 489 675 386 626 425 675 b 585 557 542 675 585 631 b 531 400 585 494 568 442 b 413 425 493 417 456 425 b 350 399 386 425 365 415 l 350 111 l 493 88 "},"s":{"ha":631,"x_min":0,"x_max":0,"o":"m 546 515 b 426 460 538 456 481 438 l 426 549 b 340 564 401 558 371 564 b 258 514 279 564 258 540 b 322 446 258 486 268 467 l 407 414 b 593 217 544 360 593 310 b 315 -22 593 76 489 -22 b 38 132 122 -22 38 33 b 172 238 38 176 61 246 b 318 94 181 150 231 94 b 399 146 376 94 399 118 b 285 239 399 174 389 190 l 189 283 b 74 446 115 318 74 363 b 367 671 74 560 151 671 b 560 631 433 671 503 657 "},"":{"ha":631,"x_min":0,"x_max":0,"o":"m 560 631 b 367 671 503 657 433 671 b 74 446 151 671 74 560 b 189 283 74 363 115 318 l 285 239 b 399 146 389 190 399 174 b 318 94 399 118 376 94 b 172 238 231 94 181 150 b 38 132 61 246 38 176 b 315 -22 38 33 122 -22 b 593 217 489 -22 593 76 b 407 414 593 310 544 360 l 322 446 b 258 514 268 467 258 486 b 340 564 258 540 279 564 b 426 549 371 564 401 558 l 426 460 b 546 515 481 438 538 456 "},"t":{"ha":513,"x_min":0,"x_max":0,"o":"m 485 142 b 504 103 499 132 504 118 b 299 -19 504 42 428 -19 b 106 168 175 -19 106 25 b 114 526 106 281 110 451 l 15 540 b 11 571 13 551 11 561 b 81 640 11 613 36 635 l 119 646 l 126 792 b 344 857 182 824 263 849 l 340 650 l 492 650 b 500 608 497 635 500 621 b 383 526 500 558 461 526 l 338 526 l 338 197 b 404 119 338 133 358 119 b 485 142 432 119 467 131 "},"u":{"ha":835,"x_min":0,"x_max":0,"o":"m 846 96 b 756 -3 846 38 818 3 l 515 -24 l 515 99 b 288 -22 442 18 374 -22 b 100 203 176 -22 100 40 l 100 531 l 6 543 b 0 575 1 554 0 565 b 76 640 0 607 18 632 l 328 678 l 328 292 b 439 156 328 186 367 156 b 515 168 463 156 492 158 l 515 531 l 421 543 b 415 575 417 554 415 565 b 492 640 415 607 433 632 l 743 678 l 743 108 l 846 96 "},"v":{"ha":721,"x_min":0,"x_max":0,"o":"m 724 650 b 657 540 738 594 706 549 l 507 139 b 265 -22 469 38 410 -22 l 49 544 l 11 551 b 92 650 -3 599 22 650 l 360 650 b 299 547 374 599 340 558 l 408 222 l 508 551 l 431 565 b 494 650 419 618 454 650 l 724 650 "},"w":{"ha":1081,"x_min":0,"x_max":0,"o":"m 1083 650 b 1017 540 1097 594 1065 549 l 901 169 b 651 -18 860 36 813 -18 l 529 357 l 461 135 b 242 -18 435 47 390 -18 l 49 544 l 11 551 b 92 650 -3 599 22 650 l 360 650 b 299 547 374 599 340 558 l 383 224 l 513 644 l 663 644 l 801 224 l 878 551 l 800 565 b 864 650 789 618 824 650 l 1083 650 "},"":{"ha":1081,"x_min":0,"x_max":0,"o":"m 1083 650 l 864 650 b 800 565 824 650 789 618 l 878 551 l 801 224 l 663 644 l 513 644 l 383 224 l 299 547 b 360 650 340 558 374 599 l 92 650 b 11 551 22 650 -3 599 l 49 544 l 242 -18 b 461 135 390 -18 435 47 l 529 357 l 651 -18 b 901 169 813 -18 860 36 l 1017 540 b 1083 650 1065 549 1097 594 "},"x":{"ha":742,"x_min":0,"x_max":0,"o":"m 711 650 b 647 542 725 594 696 550 l 529 322 l 654 113 l 744 93 b 654 -3 744 35 717 1 l 446 -17 l 283 274 l 211 114 l 333 88 b 250 0 332 39 310 0 b 128 1 213 0 179 1 b 17 0 76 1 44 1 b 10 32 13 10 10 21 b 64 100 10 60 25 83 l 83 108 l 218 371 l 117 538 l 33 543 b 28 575 29 554 28 565 b 104 640 28 607 46 632 l 314 671 l 464 414 l 522 551 l 444 565 b 508 650 433 618 468 650 l 711 650 "},"y":{"ha":721,"x_min":0,"x_max":0,"o":"m 724 650 b 657 533 738 588 706 544 l 453 7 b 111 -346 343 -276 242 -346 b -21 -233 19 -346 -21 -296 b 1 -160 -21 -207 -12 -182 b 114 -182 28 -172 74 -182 b 282 -62 190 -182 232 -150 l 49 544 l 11 551 b 92 650 -3 599 22 650 l 360 650 b 299 547 374 599 340 558 l 413 213 l 515 544 l 431 560 b 499 650 417 617 454 650 l 724 650 "},"":{"ha":721,"x_min":0,"x_max":0,"o":"m 724 650 l 499 650 b 431 560 454 650 417 617 l 515 544 l 413 213 l 299 547 b 360 650 340 558 374 599 l 92 650 b 11 551 22 650 -3 599 l 49 544 l 282 -62 b 114 -182 232 -150 190 -182 b 1 -160 74 -182 28 -172 b -21 -233 -12 -182 -21 -207 b 111 -346 -21 -296 19 -346 b 453 7 242 -346 343 -276 l 657 533 b 724 650 706 544 738 588 "},"z":{"ha":671,"x_min":0,"x_max":0,"o":"m 297 99 l 508 106 l 560 250 b 640 149 607 258 650 226 l 621 0 l 25 0 b 67 149 17 42 26 86 l 347 563 l 178 550 l 143 429 b 60 500 82 418 54 447 l 74 660 b 640 650 254 654 442 651 "},"À":{"ha":976,"x_min":0,"x_max":0,"o":"m 281 1089 b 197 1188 231 1110 197 1142 b 231 1268 197 1221 211 1251 b 489 1125 319 1232 432 1172 b 504 993 536 1085 539 1013 m 532 0 b 526 31 528 10 526 21 b 574 93 526 57 538 78 l 619 113 l 567 264 l 292 264 l 244 107 l 356 88 b 274 0 363 38 335 0 b 136 3 235 0 192 3 b 11 0 54 3 11 0 b 6 31 7 10 6 21 b 53 93 6 57 17 79 l 101 113 l 369 903 b 476 919 410 915 444 919 b 635 796 550 919 601 883 l 883 113 l 969 88 b 888 0 976 38 949 0 b 710 3 849 0 765 3 b 532 0 628 3 532 0 m 422 711 l 321 369 l 536 369 "},"à":{"ha":724,"x_min":0,"x_max":0,"o":"m 213 851 b 135 961 164 876 135 908 b 174 1044 135 999 153 1029 b 390 893 256 996 336 943 b 396 757 439 847 433 774 m 717 88 b 550 -22 697 11 631 -22 b 419 50 496 -22 447 3 b 247 -22 372 0 326 -22 b 39 169 128 -22 39 53 b 254 347 39 265 92 314 l 397 376 l 397 442 b 321 551 397 517 381 553 b 201 407 240 550 208 494 b 71 493 96 401 71 451 b 399 671 71 576 178 671 b 625 433 560 671 625 589 l 625 224 b 717 88 625 136 651 106 m 400 115 b 397 192 397 138 397 165 l 397 292 l 325 268 b 263 190 279 253 263 236 b 354 101 263 131 297 101 b 400 115 369 101 389 107 "},"Á":{"ha":976,"x_min":0,"x_max":0,"o":"m 411 993 b 426 1125 376 1013 379 1085 b 685 1268 483 1172 596 1232 b 718 1188 704 1251 718 1221 b 635 1089 718 1142 685 1110 l 411 993 m 532 0 b 526 31 528 10 526 21 b 574 93 526 57 538 78 l 619 113 l 567 264 l 292 264 l 244 107 l 356 88 b 274 0 363 38 335 0 b 136 3 235 0 192 3 b 11 0 54 3 11 0 b 6 31 7 10 6 21 b 53 93 6 57 17 79 l 101 113 l 369 903 b 476 919 410 915 444 919 b 635 796 550 919 601 883 l 883 113 l 969 88 b 888 0 976 38 949 0 b 710 3 849 0 765 3 b 532 0 628 3 532 0 m 422 711 l 321 369 l 536 369 "},"á":{"ha":724,"x_min":0,"x_max":0,"o":"m 326 757 b 332 893 289 774 283 847 b 549 1044 386 943 467 996 b 588 961 569 1029 588 999 b 510 851 588 908 558 876 l 326 757 m 717 88 b 550 -22 697 11 631 -22 b 419 50 496 -22 447 3 b 247 -22 372 0 326 -22 b 39 169 128 -22 39 53 b 254 347 39 265 92 314 l 397 376 l 397 442 b 321 551 397 517 381 553 b 201 407 240 550 208 494 b 71 493 96 401 71 451 b 399 671 71 576 178 671 b 625 433 560 671 625 589 l 625 224 b 717 88 625 136 651 106 m 400 115 b 397 192 397 138 397 165 l 397 292 l 325 268 b 263 190 279 253 263 236 b 354 101 263 131 297 101 b 400 115 369 101 389 107 "},"Â":{"ha":976,"x_min":0,"x_max":0,"o":"m 468 1275 b 656 1151 543 1236 632 1175 b 649 986 714 1089 704 1018 l 451 1111 l 283 992 b 267 1124 232 1008 217 1072 b 468 1275 308 1167 394 1231 m 532 0 b 526 31 528 10 526 21 b 574 93 526 57 538 78 l 619 113 l 567 264 l 292 264 l 244 107 l 356 88 b 274 0 363 38 335 0 b 136 3 235 0 192 3 b 11 0 54 3 11 0 b 6 31 7 10 6 21 b 53 93 6 57 17 79 l 101 113 l 369 903 b 476 919 410 915 444 919 b 635 796 550 919 601 883 l 883 113 l 969 88 b 888 0 976 38 949 0 b 710 3 849 0 765 3 b 532 0 628 3 532 0 m 422 711 l 321 369 l 536 369 "},"â":{"ha":724,"x_min":0,"x_max":0,"o":"m 361 1067 b 538 935 432 1026 515 961 b 532 763 593 868 585 797 l 347 897 l 189 768 b 172 904 139 786 125 850 b 361 1067 211 950 293 1019 m 717 88 b 550 -22 697 11 631 -22 b 419 50 496 -22 447 3 b 247 -22 372 0 326 -22 b 39 169 128 -22 39 53 b 254 347 39 265 92 314 l 397 376 l 397 442 b 321 551 397 517 381 553 b 201 407 240 550 208 494 b 71 493 96 401 71 451 b 399 671 71 576 178 671 b 625 433 560 671 625 589 l 625 224 b 717 88 625 136 651 106 m 400 115 b 397 192 397 138 397 165 l 397 292 l 325 268 b 263 190 279 253 263 236 b 354 101 263 131 297 101 b 400 115 369 101 389 107 "},"Ã":{"ha":976,"x_min":0,"x_max":0,"o":"m 578 1015 b 349 1093 488 1015 417 1093 b 249 1010 297 1093 265 1061 b 211 1075 226 1013 211 1036 b 369 1226 211 1160 279 1226 b 596 1160 461 1226 529 1160 b 699 1236 646 1160 676 1190 b 733 1174 718 1235 733 1213 b 578 1015 733 1090 667 1015 m 532 0 b 526 31 528 10 526 21 b 574 93 526 57 538 78 l 619 113 l 567 264 l 292 264 l 244 107 l 356 88 b 274 0 363 38 335 0 b 136 3 235 0 192 3 b 11 0 54 3 11 0 b 6 31 7 10 6 21 b 53 93 6 57 17 79 l 101 113 l 369 903 b 476 919 410 915 444 919 b 635 796 550 919 601 883 l 883 113 l 969 88 b 888 0 976 38 949 0 b 710 3 849 0 765 3 b 532 0 628 3 532 0 m 422 711 l 321 369 l 536 369 "},"ã":{"ha":724,"x_min":0,"x_max":0,"o":"m 471 808 b 269 886 381 808 338 886 b 169 803 218 886 186 854 b 132 868 147 806 132 829 b 290 1019 132 953 200 1019 b 489 953 382 1019 422 953 b 592 1029 539 953 569 983 b 626 967 611 1028 626 1006 b 471 808 626 883 560 808 m 717 88 b 550 -22 697 11 631 -22 b 419 50 496 -22 447 3 b 247 -22 372 0 326 -22 b 39 169 128 -22 39 53 b 254 347 39 265 92 314 l 397 376 l 397 442 b 321 551 397 517 381 553 b 201 407 240 550 208 494 b 71 493 96 401 71 451 b 399 671 71 576 178 671 b 625 433 560 671 625 589 l 625 224 b 717 88 625 136 651 106 m 400 115 b 397 192 397 138 397 165 l 397 292 l 325 268 b 263 190 279 253 263 236 b 354 101 263 131 297 101 b 400 115 369 101 389 107 "},"Ä":{"ha":976,"x_min":0,"x_max":0,"o":"m 399 1125 b 289 1013 399 1064 363 1013 b 188 1114 222 1013 188 1051 b 297 1225 188 1172 224 1225 b 399 1125 361 1225 399 1178 m 753 1125 b 643 1013 753 1064 717 1013 b 542 1114 576 1013 542 1051 b 651 1225 542 1172 578 1225 b 753 1125 715 1225 753 1178 m 532 0 b 526 31 528 10 526 21 b 574 93 526 57 538 78 l 619 113 l 567 264 l 292 264 l 244 107 l 356 88 b 274 0 363 38 335 0 b 136 3 235 0 192 3 b 11 0 54 3 11 0 b 6 31 7 10 6 21 b 53 93 6 57 17 79 l 101 113 l 369 903 b 476 919 410 915 444 919 b 635 796 550 919 601 883 l 883 113 l 969 88 b 888 0 976 38 949 0 b 710 3 849 0 765 3 b 532 0 628 3 532 0 m 422 711 l 321 369 l 536 369 "},"ä":{"ha":724,"x_min":0,"x_max":0,"o":"m 625 911 b 515 799 625 850 589 799 b 414 900 449 799 414 838 b 524 1011 414 958 450 1011 b 625 911 588 1011 625 964 m 317 911 b 207 799 317 850 281 799 b 106 900 140 799 106 838 b 215 1011 106 958 142 1011 b 317 911 279 1011 317 964 m 717 88 b 550 -22 697 11 631 -22 b 419 50 496 -22 447 3 b 247 -22 372 0 326 -22 b 39 169 128 -22 39 53 b 254 347 39 265 92 314 l 397 376 l 397 442 b 321 551 397 517 381 553 b 201 407 240 550 208 494 b 71 493 96 401 71 451 b 399 671 71 576 178 671 b 625 433 560 671 625 589 l 625 224 b 717 88 625 136 651 106 m 400 115 b 397 192 397 138 397 165 l 397 292 l 325 268 b 263 190 279 253 263 236 b 354 101 263 131 297 101 b 400 115 369 101 389 107 "},"Ā":{"ha":976,"x_min":0,"x_max":0,"o":"m 704 1175 b 704 1063 718 1146 722 1090 l 221 1063 b 221 1175 207 1089 207 1147 l 704 1175 m 532 0 b 526 31 528 10 526 21 b 574 93 526 57 538 78 l 619 113 l 567 264 l 292 264 l 244 107 l 356 88 b 274 0 363 38 335 0 b 136 3 235 0 192 3 b 11 0 54 3 11 0 b 6 31 7 10 6 21 b 53 93 6 57 17 79 l 101 113 l 369 903 b 476 919 410 915 444 919 b 635 796 550 919 601 883 l 883 113 l 969 88 b 888 0 976 38 949 0 b 710 3 849 0 765 3 b 532 0 628 3 532 0 m 422 711 l 321 369 l 536 369 "},"ā":{"ha":724,"x_min":0,"x_max":0,"o":"m 588 968 b 588 856 601 939 606 883 l 129 856 b 129 968 115 882 115 940 l 588 968 m 717 88 b 550 -22 697 11 631 -22 b 419 50 496 -22 447 3 b 247 -22 372 0 326 -22 b 39 169 128 -22 39 53 b 254 347 39 265 92 314 l 397 376 l 397 442 b 321 551 397 517 381 553 b 201 407 240 550 208 494 b 71 493 96 401 71 451 b 399 671 71 576 178 671 b 625 433 560 671 625 589 l 625 224 b 717 88 625 136 651 106 m 400 115 b 397 192 397 138 397 165 l 397 292 l 325 268 b 263 190 279 253 263 236 b 354 101 263 131 297 101 b 400 115 369 101 389 107 "},"Ă":{"ha":976,"x_min":0,"x_max":0,"o":"m 232 1192 b 272 1260 232 1224 254 1254 b 472 1154 318 1201 382 1154 b 676 1257 564 1154 624 1193 b 700 1208 690 1249 700 1226 b 461 1008 700 1100 593 1008 b 232 1192 336 1008 232 1081 m 532 0 b 526 31 528 10 526 21 b 574 93 526 57 538 78 l 619 113 l 567 264 l 292 264 l 244 107 l 356 88 b 274 0 363 38 335 0 b 136 3 235 0 192 3 b 11 0 54 3 11 0 b 6 31 7 10 6 21 b 53 93 6 57 17 79 l 101 113 l 369 903 b 476 919 410 915 444 919 b 635 796 550 919 601 883 l 883 113 l 969 88 b 888 0 976 38 949 0 b 710 3 849 0 765 3 b 532 0 628 3 532 0 m 422 711 l 321 369 l 536 369 "},"ă":{"ha":724,"x_min":0,"x_max":0,"o":"m 142 976 b 182 1049 142 1011 164 1043 b 379 933 226 988 290 933 b 581 1046 469 933 529 978 b 604 994 594 1038 604 1014 b 368 790 604 881 499 790 b 142 976 244 790 142 860 m 717 88 b 550 -22 697 11 631 -22 b 419 50 496 -22 447 3 b 247 -22 372 0 326 -22 b 39 169 128 -22 39 53 b 254 347 39 265 92 314 l 397 376 l 397 442 b 321 551 397 517 381 553 b 201 407 240 550 208 494 b 71 493 96 401 71 451 b 399 671 71 576 178 671 b 625 433 560 671 625 589 l 625 224 b 717 88 625 136 651 106 m 400 115 b 397 192 397 138 397 165 l 397 292 l 325 268 b 263 190 279 253 263 236 b 354 101 263 131 297 101 b 400 115 369 101 389 107 "},"Å":{"ha":976,"x_min":0,"x_max":0,"o":"m 310 1113 b 472 1253 310 1196 374 1253 b 617 1133 556 1253 617 1213 b 453 986 617 1042 553 986 b 310 1113 363 986 310 1024 m 511 1118 b 464 1174 511 1147 501 1174 b 411 1117 431 1174 411 1157 b 460 1065 411 1089 424 1065 b 511 1118 494 1065 511 1086 m 532 0 b 526 31 528 10 526 21 b 574 93 526 57 538 78 l 619 113 l 567 264 l 292 264 l 244 107 l 356 88 b 274 0 363 38 335 0 b 136 3 235 0 192 3 b 11 0 54 3 11 0 b 6 31 7 10 6 21 b 53 93 6 57 17 79 l 101 113 l 369 903 b 476 919 410 915 444 919 b 635 796 550 919 601 883 l 883 113 l 969 88 b 888 0 976 38 949 0 b 710 3 849 0 765 3 b 532 0 628 3 532 0 m 422 711 l 321 369 l 536 369 "},"å":{"ha":724,"x_min":0,"x_max":0,"o":"m 224 914 b 382 1057 224 999 286 1057 b 521 932 463 1057 521 1017 b 361 781 521 838 460 781 b 224 914 275 781 224 821 m 418 918 b 372 976 418 949 408 976 b 322 917 340 976 322 958 b 368 864 322 888 333 864 b 418 918 401 864 418 885 m 717 88 b 550 -22 697 11 631 -22 b 419 50 496 -22 447 3 b 247 -22 372 0 326 -22 b 39 169 128 -22 39 53 b 254 347 39 265 92 314 l 397 376 l 397 442 b 321 551 397 517 381 553 b 201 407 240 550 208 494 b 71 493 96 401 71 451 b 399 671 71 576 178 671 b 625 433 560 671 625 589 l 625 224 b 717 88 625 136 651 106 m 400 115 b 397 192 397 138 397 165 l 397 292 l 325 268 b 263 190 279 253 263 236 b 354 101 263 131 297 101 b 400 115 369 101 389 107 "},"Ǻ":{"ha":976,"x_min":0,"x_max":0,"o":"m 310 1113 b 472 1253 310 1196 374 1253 b 549 1239 500 1253 526 1249 b 769 1354 610 1279 697 1325 b 803 1274 789 1338 803 1307 b 719 1175 803 1228 769 1196 l 617 1131 b 453 986 615 1040 551 986 b 310 1113 363 986 310 1024 m 511 1118 b 464 1174 511 1147 501 1174 b 411 1117 431 1174 411 1157 b 460 1065 411 1089 424 1065 b 511 1118 494 1065 511 1086 m 532 0 b 526 31 528 10 526 21 b 574 93 526 57 538 78 l 619 113 l 567 264 l 292 264 l 244 107 l 356 88 b 274 0 363 38 335 0 b 136 3 235 0 192 3 b 11 0 54 3 11 0 b 6 31 7 10 6 21 b 53 93 6 57 17 79 l 101 113 l 369 901 b 635 796 500 940 588 922 l 883 113 l 969 88 b 888 0 976 38 949 0 b 710 3 849 0 765 3 b 532 0 628 3 532 0 m 422 711 l 321 369 l 536 369 "},"ǻ":{"ha":724,"x_min":0,"x_max":0,"o":"m 224 914 b 382 1057 224 999 286 1057 b 458 1040 411 1057 438 1051 b 679 1156 521 1082 607 1126 b 713 1075 699 1139 713 1108 b 629 976 713 1029 679 997 l 521 929 b 361 781 519 836 458 781 b 224 914 275 781 224 821 m 418 918 b 372 976 418 949 408 976 b 322 917 340 976 322 958 b 368 864 322 888 333 864 b 418 918 401 864 418 885 m 717 88 b 550 -22 697 11 631 -22 b 419 50 496 -22 447 3 b 247 -22 372 0 326 -22 b 39 169 128 -22 39 53 b 254 347 39 265 92 314 l 397 376 l 397 442 b 321 551 397 517 381 553 b 201 407 240 550 208 494 b 71 493 96 401 71 451 b 399 671 71 576 178 671 b 625 433 560 671 625 589 l 625 224 b 717 88 625 136 651 106 m 400 115 b 397 192 397 138 397 165 l 397 292 l 325 268 b 263 190 279 253 263 236 b 354 101 263 131 297 101 b 400 115 369 101 389 107 "},"Ạ":{"ha":976,"x_min":0,"x_max":0,"o":"m 532 0 b 526 31 528 10 526 21 b 574 93 526 57 538 78 l 619 113 l 567 264 l 292 264 l 244 107 l 356 88 b 274 0 363 38 335 0 b 136 3 235 0 192 3 b 11 0 54 3 11 0 b 6 31 7 10 6 21 b 53 93 6 57 17 79 l 101 113 l 369 903 b 476 919 410 915 444 919 b 635 796 550 919 601 883 l 883 113 l 969 88 b 888 0 976 38 949 0 b 710 3 849 0 765 3 b 532 0 628 3 532 0 m 422 711 l 321 369 l 536 369 m 575 -225 b 454 -349 575 -292 536 -349 b 343 -237 381 -349 343 -306 b 464 -115 343 -172 383 -115 b 575 -225 533 -115 575 -167 "},"ạ":{"ha":724,"x_min":0,"x_max":0,"o":"m 717 88 b 550 -22 697 11 631 -22 b 419 50 496 -22 447 3 b 247 -22 372 0 326 -22 b 39 169 128 -22 39 53 b 254 347 39 265 92 314 l 397 376 l 397 442 b 321 551 397 517 381 553 b 201 407 240 550 208 494 b 71 493 96 401 71 451 b 399 671 71 576 178 671 b 625 433 560 671 625 589 l 625 224 b 717 88 625 136 651 106 m 400 115 b 397 192 397 138 397 165 l 397 292 l 325 268 b 263 190 279 253 263 236 b 354 101 263 131 297 101 b 400 115 369 101 389 107 m 490 -225 b 369 -349 490 -292 451 -349 b 258 -237 296 -349 258 -306 b 379 -115 258 -172 299 -115 b 490 -225 449 -115 490 -167 "},"Ą":{"ha":976,"x_min":0,"x_max":0,"o":"m 836 -219 b 667 -343 836 -283 754 -343 b 518 -212 572 -343 518 -294 b 661 0 518 -140 568 -68 l 567 264 l 293 264 l 244 107 l 356 88 b 274 0 363 38 335 0 b 136 3 235 0 192 3 b 11 0 54 3 11 0 b 6 31 7 10 6 21 b 53 93 6 57 17 79 l 101 113 l 369 894 b 635 789 500 933 588 915 l 883 113 l 969 88 b 888 0 976 38 949 0 b 786 1 864 0 826 1 b 681 -169 718 -67 681 -129 b 729 -214 681 -197 699 -214 b 817 -172 757 -214 789 -196 b 836 -219 826 -181 836 -197 m 422 704 l 324 369 l 536 369 "},"ą":{"ha":724,"x_min":0,"x_max":0,"o":"m 632 -219 b 463 -343 632 -283 550 -343 b 314 -212 368 -343 314 -294 b 463 4 314 -139 365 -65 b 419 50 444 15 431 31 b 247 -22 372 0 326 -22 b 39 169 128 -22 39 53 b 254 347 39 265 92 314 l 397 376 l 397 442 b 321 551 397 517 381 553 b 201 407 240 550 208 494 b 71 493 96 401 71 451 b 399 671 71 576 178 671 b 625 433 560 671 625 589 l 625 224 b 717 88 625 136 651 106 b 560 -22 699 14 636 -19 b 476 -169 506 -81 476 -135 b 525 -214 476 -197 494 -214 b 613 -172 553 -214 585 -196 b 632 -219 622 -181 632 -197 m 400 115 b 397 192 397 138 397 165 l 397 292 l 325 268 b 263 190 279 253 263 236 b 354 101 263 131 297 101 b 400 115 369 101 389 107 "},"Æ":{"ha":1251,"x_min":0,"x_max":0,"o":"m 499 0 b 493 31 494 10 493 21 b 540 93 493 57 504 79 l 589 113 l 589 361 l 365 361 b 229 110 289 221 229 110 l 357 90 b 275 0 364 40 336 0 b 136 3 236 0 192 3 b 11 0 54 3 11 0 b 6 31 7 10 6 21 b 53 93 6 57 17 76 l 83 107 l 499 849 b 574 906 521 888 538 906 l 1147 906 l 1158 756 b 1071 663 1164 681 1129 657 l 1044 792 l 829 806 l 829 471 l 978 471 b 1083 564 976 544 1018 579 l 1074 346 b 968 274 1071 285 1014 263 l 972 365 l 829 365 l 829 122 l 1050 106 l 1104 233 b 1218 263 1131 289 1179 290 l 1158 0 l 499 0 m 589 467 l 589 779 b 421 467 543 694 482 578 "},"æ":{"ha":1015,"x_min":0,"x_max":0,"o":"m 958 201 b 976 164 969 193 976 181 b 697 -22 976 78 874 -22 b 461 57 592 -22 514 4 b 247 -22 400 -4 332 -22 b 39 169 128 -22 39 53 b 254 347 39 265 92 314 l 389 375 b 397 411 390 386 394 399 l 397 442 b 321 551 397 517 381 553 b 201 407 240 550 208 494 b 71 493 96 401 71 451 b 399 671 71 576 178 671 b 554 626 465 671 517 656 b 713 671 599 654 653 671 b 981 424 890 671 981 581 b 968 322 981 389 976 350 l 607 322 b 782 133 614 194 681 133 b 958 201 856 133 913 160 m 792 411 b 700 560 789 510 753 560 b 610 408 640 560 613 496 m 263 190 b 354 101 263 131 297 101 b 414 121 374 101 396 108 b 381 286 392 167 381 224 l 325 268 b 263 190 279 253 263 236 "},"Ǽ":{"ha":1251,"x_min":0,"x_max":0,"o":"m 682 993 b 697 1125 647 1013 650 1085 b 956 1268 754 1172 867 1232 b 989 1188 975 1251 989 1221 b 906 1089 989 1142 956 1110 l 682 993 m 499 0 b 493 31 494 10 493 21 b 540 93 493 57 504 79 l 589 113 l 589 361 l 365 361 b 229 110 289 221 229 110 l 357 90 b 275 0 364 40 336 0 b 136 3 236 0 192 3 b 11 0 54 3 11 0 b 6 31 7 10 6 21 b 53 93 6 57 17 76 l 83 107 l 499 849 b 574 906 521 888 538 906 l 1147 906 l 1158 756 b 1071 663 1164 681 1129 657 l 1044 792 l 829 806 l 829 471 l 978 471 b 1083 564 976 544 1018 579 l 1074 346 b 968 274 1071 285 1014 263 l 972 365 l 829 365 l 829 122 l 1050 106 l 1104 233 b 1218 263 1131 289 1179 290 l 1158 0 l 499 0 m 589 467 l 589 779 b 421 467 543 694 482 578 "},"ǽ":{"ha":1015,"x_min":0,"x_max":0,"o":"m 515 757 b 521 893 478 774 472 847 b 738 1044 575 943 656 996 b 776 961 758 1029 776 999 b 699 851 776 908 747 876 l 515 757 m 958 201 b 976 164 969 193 976 181 b 697 -22 976 78 874 -22 b 461 57 592 -22 514 4 b 247 -22 400 -4 332 -22 b 39 169 128 -22 39 53 b 254 347 39 265 92 314 l 389 375 b 397 411 390 386 394 399 l 397 442 b 321 551 397 517 381 553 b 201 407 240 550 208 494 b 71 493 96 401 71 451 b 399 671 71 576 178 671 b 554 626 465 671 517 656 b 713 671 599 654 653 671 b 981 424 890 671 981 581 b 968 322 981 389 976 350 l 607 322 b 782 133 614 194 681 133 b 958 201 856 133 913 160 m 792 411 b 700 560 789 510 753 560 b 610 408 640 560 613 496 m 263 190 b 354 101 263 131 297 101 b 414 121 374 101 396 108 b 381 286 392 167 381 224 l 325 268 b 263 190 279 253 263 236 "},"Ć":{"ha":871,"x_min":0,"x_max":0,"o":"m 458 993 b 474 1125 424 1013 426 1085 b 732 1268 531 1172 643 1232 b 765 1188 751 1251 765 1221 b 682 1089 765 1142 732 1110 l 458 993 m 721 260 b 835 288 743 315 796 315 l 783 49 b 493 -22 714 3 632 -22 b 46 410 229 -22 46 118 b 567 925 46 711 206 925 b 807 876 647 925 743 904 l 772 676 b 663 618 763 619 710 603 l 669 788 b 540 813 638 801 586 813 b 297 465 389 813 297 678 b 656 101 297 226 432 101 "},"ć":{"ha":611,"x_min":0,"x_max":0,"o":"m 319 757 b 325 893 282 774 276 847 b 542 1044 379 943 460 996 b 581 961 563 1029 581 999 b 503 851 581 908 551 876 l 319 757 m 576 196 b 597 149 590 182 597 169 b 347 -22 597 69 506 -22 b 35 289 153 -22 35 81 b 378 671 35 492 165 671 b 576 536 511 671 576 611 b 426 415 576 463 519 407 b 361 554 422 508 408 554 b 260 350 300 554 260 472 b 428 140 260 226 314 140 b 576 196 486 140 539 165 "},"Ĉ":{"ha":871,"x_min":0,"x_max":0,"o":"m 500 1275 b 688 1151 575 1236 664 1175 b 681 986 746 1089 736 1018 l 483 1111 l 315 992 b 299 1124 264 1008 249 1072 b 500 1275 340 1167 426 1231 m 721 260 b 835 288 743 315 796 315 l 783 49 b 493 -22 714 3 632 -22 b 46 410 229 -22 46 118 b 567 925 46 711 206 925 b 807 876 647 925 743 904 l 772 676 b 663 618 763 619 710 603 l 669 788 b 540 813 638 801 586 813 b 297 465 389 813 297 678 b 656 101 297 226 432 101 "},"ĉ":{"ha":611,"x_min":0,"x_max":0,"o":"m 336 1067 b 513 935 407 1026 490 961 b 507 763 568 868 560 797 l 322 897 l 164 768 b 147 904 114 786 100 850 b 336 1067 186 950 268 1019 m 576 196 b 597 149 590 182 597 169 b 347 -22 597 69 506 -22 b 35 289 153 -22 35 81 b 378 671 35 492 165 671 b 576 536 511 671 576 611 b 426 415 576 463 519 407 b 361 554 422 508 408 554 b 260 350 300 554 260 472 b 428 140 260 226 314 140 b 576 196 486 140 539 165 "},"Č":{"ha":871,"x_min":0,"x_max":0,"o":"m 510 983 b 322 1107 435 1022 346 1083 b 329 1272 264 1169 274 1240 l 526 1147 l 694 1267 b 711 1135 746 1250 761 1186 b 510 983 669 1092 583 1028 m 721 260 b 835 288 743 315 796 315 l 783 49 b 493 -22 714 3 632 -22 b 46 410 229 -22 46 118 b 567 925 46 711 206 925 b 807 876 647 925 743 904 l 772 676 b 663 618 763 619 710 603 l 669 788 b 540 813 638 801 586 813 b 297 465 389 813 297 678 b 656 101 297 226 432 101 "},"č":{"ha":611,"x_min":0,"x_max":0,"o":"m 350 758 b 174 890 279 799 196 864 b 179 1063 118 957 126 1028 l 364 928 l 522 1057 b 539 921 572 1039 586 975 b 350 758 500 875 418 806 m 576 196 b 597 149 590 182 597 169 b 347 -22 597 69 506 -22 b 35 289 153 -22 35 81 b 378 671 35 492 165 671 b 576 536 511 671 576 611 b 426 415 576 463 519 407 b 361 554 422 508 408 554 b 260 350 300 554 260 472 b 428 140 260 226 314 140 b 576 196 486 140 539 165 "},"Ċ":{"ha":871,"x_min":0,"x_max":0,"o":"m 647 1126 b 526 1003 647 1060 608 1003 b 415 1114 453 1003 415 1046 b 536 1236 415 1179 456 1236 b 647 1126 606 1236 647 1185 m 721 260 b 835 288 743 315 796 315 l 783 49 b 493 -22 714 3 632 -22 b 46 410 229 -22 46 118 b 567 925 46 711 206 925 b 807 876 647 925 743 904 l 772 676 b 663 618 763 619 710 603 l 669 788 b 540 813 638 801 586 813 b 297 465 389 813 297 678 b 656 101 297 226 432 101 "},"ċ":{"ha":611,"x_min":0,"x_max":0,"o":"m 478 926 b 357 803 478 860 439 803 b 246 914 283 803 246 846 b 367 1036 246 979 286 1036 b 478 926 436 1036 478 985 m 576 196 b 597 149 590 182 597 169 b 347 -22 597 69 506 -22 b 35 289 153 -22 35 81 b 378 671 35 492 165 671 b 576 536 511 671 576 611 b 426 415 576 463 519 407 b 361 554 422 508 408 554 b 260 350 300 554 260 472 b 428 140 260 226 314 140 b 576 196 486 140 539 165 "},"Ç":{"ha":871,"x_min":0,"x_max":0,"o":"m 721 260 b 835 288 743 315 796 315 l 783 49 b 533 -21 721 7 649 -17 l 524 -56 b 672 -181 635 -74 672 -108 b 469 -343 672 -262 600 -343 b 349 -265 383 -343 349 -307 b 378 -203 349 -240 361 -215 b 476 -250 403 -232 440 -250 b 528 -210 506 -250 528 -235 b 451 -149 528 -183 506 -171 b 444 -21 422 -136 403 -106 b 46 410 207 -4 46 136 b 567 925 46 711 206 925 b 807 876 647 925 743 904 l 772 676 b 663 618 763 619 710 603 l 669 788 b 540 813 638 801 586 813 b 297 465 389 813 297 678 b 656 101 297 226 432 101 "},"ç":{"ha":611,"x_min":0,"x_max":0,"o":"m 576 196 b 597 149 590 182 597 169 b 358 -22 597 71 510 -18 l 349 -56 b 497 -181 460 -74 497 -108 b 294 -343 497 -262 425 -343 b 174 -265 208 -343 174 -307 b 203 -203 174 -240 186 -215 b 301 -250 228 -232 265 -250 b 353 -210 331 -250 353 -235 b 276 -149 353 -183 331 -171 b 271 -17 247 -136 226 -104 b 35 289 122 8 35 110 b 378 671 35 492 165 671 b 576 536 511 671 576 611 b 426 415 576 463 519 407 b 361 554 422 508 408 554 b 260 350 300 554 260 472 b 428 140 260 226 314 140 b 576 196 486 140 539 165 "},"Ď":{"ha":1022,"x_min":0,"x_max":0,"o":"m 449 983 b 261 1107 374 1022 285 1083 b 268 1272 203 1169 213 1240 l 465 1147 l 633 1267 b 650 1135 685 1250 700 1186 b 449 983 608 1092 522 1028 m 132 785 l 38 804 b 422 921 11 885 89 921 b 976 467 781 921 976 772 b 464 -3 976 197 814 -3 b 224 3 425 -3 279 3 b 42 0 113 3 42 0 b 36 31 38 10 36 21 b 83 93 36 57 47 79 l 132 113 m 464 104 b 739 413 619 104 739 221 b 372 797 739 672 586 785 l 372 110 b 464 104 372 110 426 104 "},"ď":{"ha":1031,"x_min":0,"x_max":0,"o":"m 824 661 b 781 988 822 765 804 908 b 888 1029 807 1014 842 1029 b 992 919 953 1029 992 988 b 918 654 992 844 958 735 b 824 661 893 658 856 661 m 824 96 b 733 -3 824 38 796 3 l 493 -24 l 493 63 b 292 -22 433 4 375 -22 b 35 296 172 -22 35 76 b 385 671 35 497 172 671 b 493 660 431 671 467 667 l 493 863 l 381 875 b 376 906 378 886 376 897 b 446 969 376 946 400 963 l 721 1011 l 721 108 l 824 96 m 493 536 b 410 554 467 549 446 554 b 281 344 331 554 281 479 b 447 121 281 200 346 121 b 493 129 464 121 482 124 "},"Đ":{"ha":1022,"x_min":0,"x_max":0,"o":"m 132 386 l 38 386 b 38 499 24 413 24 471 l 132 499 l 132 785 l 38 804 b 422 921 11 885 89 921 b 976 467 781 921 976 772 b 464 -3 976 197 814 -3 b 224 3 425 -3 279 3 b 42 0 113 3 42 0 b 36 31 38 10 36 21 b 83 93 36 57 47 79 l 132 113 m 464 104 b 739 413 619 104 739 221 b 372 797 739 672 586 785 l 372 499 l 536 499 b 536 386 550 469 554 414 l 372 386 l 372 110 b 464 104 372 110 426 104 "},"đ":{"ha":813,"x_min":0,"x_max":0,"o":"m 721 1011 l 721 886 l 825 886 b 825 774 839 857 843 801 l 721 774 l 721 108 l 824 96 b 733 -3 824 38 796 3 l 493 -24 l 493 63 b 292 -22 433 4 375 -22 b 35 296 172 -22 35 76 b 385 671 35 497 172 671 b 493 660 431 671 467 667 l 493 774 l 326 774 b 326 886 313 800 313 858 l 493 886 l 493 976 m 493 536 b 410 554 467 549 446 554 b 281 344 331 554 281 479 b 447 121 281 200 346 121 b 493 129 464 121 482 124 "},"Ð":{"ha":1022,"x_min":0,"x_max":0,"o":"m 132 386 l 38 386 b 38 499 24 413 24 471 l 132 499 l 132 785 l 38 804 b 422 921 11 885 89 921 b 976 467 781 921 976 772 b 464 -3 976 197 814 -3 b 224 3 425 -3 279 3 b 42 0 113 3 42 0 b 36 31 38 10 36 21 b 83 93 36 57 47 79 l 132 113 m 464 104 b 739 413 619 104 739 221 b 372 797 739 672 586 785 l 372 499 l 536 499 b 536 386 550 469 554 414 l 372 386 l 372 110 b 464 104 372 110 426 104 "},"ð":{"ha":779,"x_min":0,"x_max":0,"o":"m 347 -22 b 35 289 153 -22 35 81 b 379 672 35 501 167 671 b 471 658 407 671 440 667 b 389 804 450 713 422 763 l 268 757 b 308 882 240 775 239 846 b 146 960 261 917 207 943 b 143 985 144 965 143 976 b 279 1063 143 1036 201 1063 b 521 983 371 1063 453 1033 l 636 1038 b 613 893 678 1004 675 929 b 744 469 696 786 744 636 b 347 -22 744 190 592 -22 m 264 349 b 397 110 264 225 306 108 b 513 408 471 108 513 243 b 507 507 513 442 511 475 b 374 549 467 532 419 550 b 264 349 299 549 264 482 "},"È":{"ha":793,"x_min":0,"x_max":0,"o":"m 229 1089 b 146 1188 179 1110 146 1142 b 179 1268 146 1221 160 1251 b 438 1125 268 1232 381 1172 b 453 993 485 1085 488 1013 m 40 0 b 35 31 36 10 35 21 b 82 93 35 57 46 79 l 131 113 l 131 792 l 43 817 b 125 906 36 868 64 906 l 689 906 l 700 756 b 613 663 706 681 671 657 l 586 792 l 371 806 l 371 485 l 519 485 b 625 578 518 558 560 593 l 615 360 b 510 288 613 299 556 276 l 514 379 l 371 379 l 371 122 l 592 106 l 646 233 b 760 263 672 289 721 290 l 700 0 l 40 0 "},"è":{"ha":669,"x_min":0,"x_max":0,"o":"m 207 851 b 129 961 158 876 129 908 b 168 1044 129 999 147 1029 b 385 893 250 996 331 943 b 390 757 433 847 428 774 m 613 201 b 631 164 624 193 631 181 b 351 -22 631 78 528 -22 b 35 290 139 -22 35 88 b 367 671 35 486 164 671 b 635 424 544 671 635 581 b 622 322 635 389 631 350 l 261 322 b 436 133 268 194 335 133 b 613 201 510 133 567 160 m 446 411 b 354 560 443 510 407 560 b 264 408 294 560 267 496 "},"É":{"ha":793,"x_min":0,"x_max":0,"o":"m 364 993 b 379 1125 329 1013 332 1085 b 638 1268 436 1172 549 1232 b 671 1188 657 1251 671 1221 b 588 1089 671 1142 638 1110 l 364 993 m 40 0 b 35 31 36 10 35 21 b 82 93 35 57 46 79 l 131 113 l 131 792 l 43 817 b 125 906 36 868 64 906 l 689 906 l 700 756 b 613 663 706 681 671 657 l 586 792 l 371 806 l 371 485 l 519 485 b 625 578 518 558 560 593 l 615 360 b 510 288 613 299 556 276 l 514 379 l 371 379 l 371 122 l 592 106 l 646 233 b 760 263 672 289 721 290 l 700 0 l 40 0 "},"é":{"ha":669,"x_min":0,"x_max":0,"o":"m 318 757 b 324 893 281 774 275 847 b 540 1044 378 943 458 996 b 579 961 561 1029 579 999 b 501 851 579 908 550 876 l 318 757 m 613 201 b 631 164 624 193 631 181 b 351 -22 631 78 528 -22 b 35 290 139 -22 35 88 b 367 671 35 486 164 671 b 635 424 544 671 635 581 b 622 322 635 389 631 350 l 261 322 b 436 133 268 194 335 133 b 613 201 510 133 567 160 m 446 411 b 354 560 443 510 407 560 b 264 408 294 560 267 496 "},"Ê":{"ha":793,"x_min":0,"x_max":0,"o":"m 418 1275 b 606 1151 493 1236 582 1175 b 599 986 664 1089 654 1018 l 401 1111 l 233 992 b 217 1124 182 1008 167 1072 b 418 1275 258 1167 344 1231 m 40 0 b 35 31 36 10 35 21 b 82 93 35 57 46 79 l 131 113 l 131 792 l 43 817 b 125 906 36 868 64 906 l 689 906 l 700 756 b 613 663 706 681 671 657 l 586 792 l 371 806 l 371 485 l 519 485 b 625 578 518 558 560 593 l 615 360 b 510 288 613 299 556 276 l 514 379 l 371 379 l 371 122 l 592 106 l 646 233 b 760 263 672 289 721 290 l 700 0 l 40 0 "},"ê":{"ha":669,"x_min":0,"x_max":0,"o":"m 354 1067 b 531 935 425 1026 508 961 b 525 763 586 868 578 797 l 340 897 l 182 768 b 165 904 132 786 118 850 b 354 1067 204 950 286 1019 m 613 201 b 631 164 624 193 631 181 b 351 -22 631 78 528 -22 b 35 290 139 -22 35 88 b 367 671 35 486 164 671 b 635 424 544 671 635 581 b 622 322 635 389 631 350 l 261 322 b 436 133 268 194 335 133 b 613 201 510 133 567 160 m 446 411 b 354 560 443 510 407 560 b 264 408 294 560 267 496 "},"Ẽ":{"ha":793,"x_min":0,"x_max":0,"o":"m 521 1015 b 292 1093 431 1015 360 1093 b 192 1010 240 1093 208 1061 b 154 1075 169 1013 154 1036 b 313 1226 154 1160 222 1226 b 539 1160 404 1226 472 1160 b 642 1236 589 1160 619 1190 b 676 1174 661 1235 676 1213 b 521 1015 676 1090 610 1015 m 40 0 b 35 31 36 10 35 21 b 82 93 35 57 46 79 l 131 113 l 131 792 l 43 817 b 125 906 36 868 64 906 l 689 906 l 700 756 b 613 663 706 681 671 657 l 586 792 l 371 806 l 371 485 l 519 485 b 625 578 518 558 560 593 l 615 360 b 510 288 613 299 556 276 l 514 379 l 371 379 l 371 122 l 592 106 l 646 233 b 760 263 672 289 721 290 l 700 0 l 40 0 "},"ẽ":{"ha":669,"x_min":0,"x_max":0,"o":"m 443 808 b 242 886 353 808 310 886 b 142 803 190 886 158 854 b 104 868 119 806 104 829 b 263 1019 104 953 172 1019 b 461 953 354 1019 394 953 b 564 1029 511 953 542 983 b 599 967 583 1028 599 1006 b 443 808 599 883 532 808 m 613 201 b 631 164 624 193 631 181 b 351 -22 631 78 528 -22 b 35 290 139 -22 35 88 b 367 671 35 486 164 671 b 635 424 544 671 635 581 b 622 322 635 389 631 350 l 261 322 b 436 133 268 194 335 133 b 613 201 510 133 567 160 m 446 411 b 354 560 443 510 407 560 b 264 408 294 560 267 496 "},"Ě":{"ha":793,"x_min":0,"x_max":0,"o":"m 422 983 b 235 1107 347 1022 258 1083 b 242 1272 176 1169 186 1240 l 439 1147 l 607 1267 b 624 1135 658 1250 674 1186 b 422 983 582 1092 496 1028 m 40 0 b 35 31 36 10 35 21 b 82 93 35 57 46 79 l 131 113 l 131 792 l 43 817 b 125 906 36 868 64 906 l 689 906 l 700 756 b 613 663 706 681 671 657 l 586 792 l 371 806 l 371 485 l 519 485 b 625 578 518 558 560 593 l 615 360 b 510 288 613 299 556 276 l 514 379 l 371 379 l 371 122 l 592 106 l 646 233 b 760 263 672 289 721 290 l 700 0 l 40 0 "},"ě":{"ha":669,"x_min":0,"x_max":0,"o":"m 361 758 b 185 890 290 799 207 864 b 190 1063 129 957 138 1028 l 375 928 l 533 1057 b 550 921 583 1039 597 975 b 361 758 511 875 429 806 m 613 201 b 631 164 624 193 631 181 b 351 -22 631 78 528 -22 b 35 290 139 -22 35 88 b 367 671 35 486 164 671 b 635 424 544 671 635 581 b 622 322 635 389 631 350 l 261 322 b 436 133 268 194 335 133 b 613 201 510 133 567 160 m 446 411 b 354 560 443 510 407 560 b 264 408 294 560 267 496 "},"Ë":{"ha":793,"x_min":0,"x_max":0,"o":"m 350 1125 b 240 1013 350 1064 314 1013 b 139 1114 174 1013 139 1051 b 249 1225 139 1172 175 1225 b 350 1125 313 1225 350 1178 m 704 1125 b 594 1013 704 1064 668 1013 b 493 1114 528 1013 493 1051 b 603 1225 493 1172 529 1225 b 704 1125 667 1225 704 1178 m 40 0 b 35 31 36 10 35 21 b 82 93 35 57 46 79 l 131 113 l 131 792 l 43 817 b 125 906 36 868 64 906 l 689 906 l 700 756 b 613 663 706 681 671 657 l 586 792 l 371 806 l 371 485 l 519 485 b 625 578 518 558 560 593 l 615 360 b 510 288 613 299 556 276 l 514 379 l 371 379 l 371 122 l 592 106 l 646 233 b 760 263 672 289 721 290 l 700 0 l 40 0 "},"ë":{"ha":669,"x_min":0,"x_max":0,"o":"m 610 911 b 500 799 610 850 574 799 b 399 900 433 799 399 838 b 508 1011 399 958 435 1011 b 610 911 572 1011 610 964 m 301 911 b 192 799 301 850 265 799 b 90 900 125 799 90 838 b 200 1011 90 958 126 1011 b 301 911 264 1011 301 964 m 613 201 b 631 164 624 193 631 181 b 351 -22 631 78 528 -22 b 35 290 139 -22 35 88 b 367 671 35 486 164 671 b 635 424 544 671 635 581 b 622 322 635 389 631 350 l 261 322 b 436 133 268 194 335 133 b 613 201 510 133 567 160 m 446 411 b 354 560 443 510 407 560 b 264 408 294 560 267 496 "},"Ē":{"ha":793,"x_min":0,"x_max":0,"o":"m 650 1175 b 650 1063 664 1146 668 1090 l 167 1063 b 167 1175 153 1089 153 1147 l 650 1175 m 40 0 b 35 31 36 10 35 21 b 82 93 35 57 46 79 l 131 113 l 131 792 l 43 817 b 125 906 36 868 64 906 l 689 906 l 700 756 b 613 663 706 681 671 657 l 586 792 l 371 806 l 371 485 l 519 485 b 625 578 518 558 560 593 l 615 360 b 510 288 613 299 556 276 l 514 379 l 371 379 l 371 122 l 592 106 l 646 233 b 760 263 672 289 721 290 l 700 0 l 40 0 "},"ē":{"ha":669,"x_min":0,"x_max":0,"o":"m 578 968 b 578 856 592 939 596 883 l 119 856 b 119 968 106 882 106 940 l 578 968 m 613 201 b 631 164 624 193 631 181 b 351 -22 631 78 528 -22 b 35 290 139 -22 35 88 b 367 671 35 486 164 671 b 635 424 544 671 635 581 b 622 322 635 389 631 350 l 261 322 b 436 133 268 194 335 133 b 613 201 510 133 567 160 m 446 411 b 354 560 443 510 407 560 b 264 408 294 560 267 496 "},"Ĕ":{"ha":793,"x_min":0,"x_max":0,"o":"m 186 1192 b 226 1260 186 1224 208 1254 b 426 1154 272 1201 336 1154 b 631 1257 518 1154 578 1193 b 654 1208 644 1249 654 1226 b 415 1008 654 1100 547 1008 b 186 1192 290 1008 186 1081 m 40 0 b 35 31 36 10 35 21 b 82 93 35 57 46 79 l 131 113 l 131 792 l 43 817 b 125 906 36 868 64 906 l 689 906 l 700 756 b 613 663 706 681 671 657 l 586 792 l 371 806 l 371 485 l 519 485 b 625 578 518 558 560 593 l 615 360 b 510 288 613 299 556 276 l 514 379 l 371 379 l 371 122 l 592 106 l 646 233 b 760 263 672 289 721 290 l 700 0 l 40 0 "},"ĕ":{"ha":669,"x_min":0,"x_max":0,"o":"m 136 976 b 176 1049 136 1011 158 1043 b 374 933 221 988 285 933 b 575 1046 464 933 524 978 b 599 994 589 1038 599 1014 b 363 790 599 881 493 790 b 136 976 239 790 136 860 m 613 201 b 631 164 624 193 631 181 b 351 -22 631 78 528 -22 b 35 290 139 -22 35 88 b 367 671 35 486 164 671 b 635 424 544 671 635 581 b 622 322 635 389 631 350 l 261 322 b 436 133 268 194 335 133 b 613 201 510 133 567 160 m 446 411 b 354 560 443 510 407 560 b 264 408 294 560 267 496 "},"Ė":{"ha":793,"x_min":0,"x_max":0,"o":"m 529 1126 b 408 1003 529 1060 490 1003 b 297 1114 335 1003 297 1046 b 418 1236 297 1179 338 1236 b 529 1126 488 1236 529 1185 m 40 0 b 35 31 36 10 35 21 b 82 93 35 57 46 79 l 131 113 l 131 792 l 43 817 b 125 906 36 868 64 906 l 689 906 l 700 756 b 613 663 706 681 671 657 l 586 792 l 371 806 l 371 485 l 519 485 b 625 578 518 558 560 593 l 615 360 b 510 288 613 299 556 276 l 514 379 l 371 379 l 371 122 l 592 106 l 646 233 b 760 263 672 289 721 290 l 700 0 l 40 0 "},"ė":{"ha":669,"x_min":0,"x_max":0,"o":"m 479 926 b 358 803 479 860 440 803 b 247 914 285 803 247 846 b 368 1036 247 979 288 1036 b 479 926 438 1036 479 985 m 613 201 b 631 164 624 193 631 181 b 351 -22 631 78 528 -22 b 35 290 139 -22 35 88 b 367 671 35 486 164 671 b 635 424 544 671 635 581 b 622 322 635 389 631 350 l 261 322 b 436 133 268 194 335 133 b 613 201 510 133 567 160 m 446 411 b 354 560 443 510 407 560 b 264 408 294 560 267 496 "},"Ẹ":{"ha":793,"x_min":0,"x_max":0,"o":"m 40 0 b 35 31 36 10 35 21 b 82 93 35 57 46 79 l 131 113 l 131 792 l 43 817 b 125 906 36 868 64 906 l 689 906 l 700 756 b 613 663 706 681 671 657 l 586 792 l 371 806 l 371 485 l 519 485 b 625 578 518 558 560 593 l 615 360 b 510 288 613 299 556 276 l 514 379 l 371 379 l 371 122 l 592 106 l 646 233 b 760 263 672 289 721 290 l 700 0 l 40 0 m 525 -225 b 404 -349 525 -292 486 -349 b 293 -237 331 -349 293 -306 b 414 -115 293 -172 333 -115 b 525 -225 483 -115 525 -167 "},"ẹ":{"ha":669,"x_min":0,"x_max":0,"o":"m 613 201 b 631 164 624 193 631 181 b 351 -22 631 78 528 -22 b 35 290 139 -22 35 88 b 367 671 35 486 164 671 b 635 424 544 671 635 581 b 622 322 635 389 631 350 l 261 322 b 436 133 268 194 335 133 b 613 201 510 133 567 160 m 446 411 b 354 560 443 510 407 560 b 264 408 294 560 267 496 m 461 -225 b 340 -349 461 -292 422 -349 b 229 -237 267 -349 229 -306 b 350 -115 229 -172 269 -115 b 461 -225 419 -115 461 -167 "},"Ę":{"ha":793,"x_min":0,"x_max":0,"o":"m 40 0 b 35 31 36 10 35 21 b 82 93 35 57 46 79 l 131 113 l 131 792 l 43 817 b 125 906 36 868 64 906 l 689 906 l 700 756 b 613 663 706 681 671 657 l 586 792 l 371 806 l 371 485 l 519 485 b 625 578 518 558 560 593 l 615 360 b 510 288 613 299 556 276 l 514 379 l 371 379 l 371 122 l 592 106 l 646 233 b 760 263 672 289 721 290 l 700 0 l 601 0 b 497 -169 535 -68 497 -131 b 546 -214 497 -197 515 -214 b 633 -172 574 -214 606 -196 b 653 -219 643 -181 653 -197 b 483 -343 653 -283 571 -343 b 335 -212 389 -343 335 -294 b 478 0 335 -140 385 -68 l 40 0 "},"ę":{"ha":669,"x_min":0,"x_max":0,"o":"m 535 -219 b 365 -343 535 -283 453 -343 b 217 -212 271 -343 217 -294 b 331 -22 217 -149 257 -83 b 35 290 132 -15 35 94 b 367 671 35 486 164 671 b 635 424 544 671 635 581 b 622 322 635 389 631 350 l 261 322 b 436 133 268 194 335 133 b 613 201 510 133 567 160 b 631 164 624 193 631 181 b 482 -1 631 103 578 33 b 379 -169 417 -68 379 -131 b 428 -214 379 -197 397 -214 b 515 -172 456 -214 488 -196 b 535 -219 525 -181 535 -197 m 446 411 b 354 560 443 510 407 560 b 264 408 294 560 267 496 "},"Ĝ":{"ha":932,"x_min":0,"x_max":0,"o":"m 522 1275 b 710 1151 597 1236 686 1175 b 703 986 768 1089 758 1018 l 506 1111 l 338 992 b 321 1124 286 1008 271 1072 b 522 1275 363 1167 449 1231 m 643 293 l 506 318 b 588 408 499 369 526 408 l 906 408 b 865 307 921 368 910 326 l 843 296 l 843 81 b 493 -22 760 21 660 -22 b 46 410 229 -22 46 118 b 567 925 46 711 206 925 b 828 869 660 925 754 904 l 794 676 b 682 617 785 619 731 599 l 689 778 b 538 813 644 801 589 813 b 297 465 386 813 297 678 b 643 103 297 231 426 106 "},"ĝ":{"ha":751,"x_min":0,"x_max":0,"o":"m 386 1067 b 563 935 457 1026 540 961 b 557 763 618 868 610 797 l 372 897 l 214 768 b 197 904 164 786 150 850 b 386 1067 236 950 318 1019 m 750 656 b 754 618 753 644 754 632 b 663 536 754 564 703 532 b 710 431 690 511 710 465 b 369 188 710 276 565 188 b 281 194 349 188 304 190 b 264 154 269 181 264 165 b 372 111 264 124 286 111 l 506 111 b 743 -58 686 111 743 46 b 357 -357 743 -203 632 -357 b 22 -181 157 -357 22 -294 b 131 -37 22 -119 54 -69 b 81 63 92 -10 81 22 b 199 218 81 125 121 172 b 43 407 111 244 43 297 b 390 671 43 564 171 671 b 522 656 440 671 485 665 b 651 647 547 653 585 647 b 750 656 686 647 708 649 m 467 419 b 369 567 467 513 431 567 b 285 440 315 567 285 531 b 382 293 285 339 324 293 b 467 419 439 293 467 338 m 210 -79 b 207 -115 208 -92 207 -104 b 372 -240 207 -208 272 -240 b 522 -150 472 -240 522 -190 b 407 -106 522 -115 497 -110 l 354 -103 b 210 -79 297 -100 253 -94 "},"Ǧ":{"ha":932,"x_min":0,"x_max":0,"o":"m 531 983 b 343 1107 456 1022 367 1083 b 350 1272 285 1169 294 1240 l 547 1147 l 715 1267 b 732 1135 767 1250 782 1186 b 531 983 690 1092 604 1028 m 643 293 l 506 318 b 588 408 499 369 526 408 l 906 408 b 865 307 921 368 910 326 l 843 296 l 843 81 b 493 -22 760 21 660 -22 b 46 410 229 -22 46 118 b 567 925 46 711 206 925 b 828 869 660 925 754 904 l 794 676 b 682 617 785 619 731 599 l 689 778 b 538 813 644 801 589 813 b 297 465 386 813 297 678 b 643 103 297 231 426 106 "},"ǧ":{"ha":751,"x_min":0,"x_max":0,"o":"m 374 754 b 197 886 303 794 219 860 b 203 1058 142 953 150 1024 l 388 924 l 546 1053 b 563 917 596 1035 610 971 b 374 754 524 871 442 801 m 750 656 b 754 618 753 644 754 632 b 663 536 754 564 703 532 b 710 431 690 511 710 465 b 369 188 710 276 565 188 b 281 194 349 188 304 190 b 264 154 269 181 264 165 b 372 111 264 124 286 111 l 506 111 b 743 -58 686 111 743 46 b 357 -357 743 -203 632 -357 b 22 -181 157 -357 22 -294 b 131 -37 22 -119 54 -69 b 81 63 92 -10 81 22 b 199 218 81 125 121 172 b 43 407 111 244 43 297 b 390 671 43 564 171 671 b 522 656 440 671 485 665 b 651 647 547 653 585 647 b 750 656 686 647 708 649 m 467 419 b 369 567 467 513 431 567 b 285 440 315 567 285 531 b 382 293 285 339 324 293 b 467 419 439 293 467 338 m 210 -79 b 207 -115 208 -92 207 -104 b 372 -240 207 -208 272 -240 b 522 -150 472 -240 522 -190 b 407 -106 522 -115 497 -110 l 354 -103 b 210 -79 297 -100 253 -94 "},"Ğ":{"ha":932,"x_min":0,"x_max":0,"o":"m 301 1192 b 342 1260 301 1224 324 1254 b 542 1154 388 1201 451 1154 b 746 1257 633 1154 693 1193 b 769 1208 760 1249 769 1226 b 531 1008 769 1100 663 1008 b 301 1192 406 1008 301 1081 m 643 293 l 506 318 b 588 408 499 369 526 408 l 906 408 b 865 307 921 368 910 326 l 843 296 l 843 81 b 493 -22 760 21 660 -22 b 46 410 229 -22 46 118 b 567 925 46 711 206 925 b 828 869 660 925 754 904 l 794 676 b 682 617 785 619 731 599 l 689 778 b 538 813 644 801 589 813 b 297 465 386 813 297 678 b 643 103 297 231 426 106 "},"ğ":{"ha":751,"x_min":0,"x_max":0,"o":"m 147 976 b 188 1049 147 1011 169 1043 b 385 933 232 988 296 933 b 586 1046 475 933 535 978 b 610 994 600 1038 610 1014 b 374 790 610 881 504 790 b 147 976 250 790 147 860 m 750 656 b 754 618 753 644 754 632 b 663 536 754 564 703 532 b 710 431 690 511 710 465 b 369 188 710 276 565 188 b 281 194 349 188 304 190 b 264 154 269 181 264 165 b 372 111 264 124 286 111 l 506 111 b 743 -58 686 111 743 46 b 357 -357 743 -203 632 -357 b 22 -181 157 -357 22 -294 b 131 -37 22 -119 54 -69 b 81 63 92 -10 81 22 b 199 218 81 125 121 172 b 43 407 111 244 43 297 b 390 671 43 564 171 671 b 522 656 440 671 485 665 b 651 647 547 653 585 647 b 750 656 686 647 708 649 m 467 419 b 369 567 467 513 431 567 b 285 440 315 567 285 531 b 382 293 285 339 324 293 b 467 419 439 293 467 338 m 210 -79 b 207 -115 208 -92 207 -104 b 372 -240 207 -208 272 -240 b 522 -150 472 -240 522 -190 b 407 -106 522 -115 497 -110 l 354 -103 b 210 -79 297 -100 253 -94 "},"Ġ":{"ha":932,"x_min":0,"x_max":0,"o":"m 656 1126 b 535 1003 656 1060 617 1003 b 424 1114 461 1003 424 1046 b 544 1236 424 1179 464 1236 b 656 1126 614 1236 656 1185 m 643 293 l 506 318 b 588 408 499 369 526 408 l 906 408 b 865 307 921 368 910 326 l 843 296 l 843 81 b 493 -22 760 21 660 -22 b 46 410 229 -22 46 118 b 567 925 46 711 206 925 b 828 869 660 925 754 904 l 794 676 b 682 617 785 619 731 599 l 689 778 b 538 813 644 801 589 813 b 297 465 386 813 297 678 b 643 103 297 231 426 106 "},"ġ":{"ha":751,"x_min":0,"x_max":0,"o":"m 504 926 b 383 803 504 860 465 803 b 272 914 310 803 272 846 b 393 1036 272 979 313 1036 b 504 926 463 1036 504 985 m 750 656 b 754 618 753 644 754 632 b 663 536 754 564 703 532 b 710 431 690 511 710 465 b 369 188 710 276 565 188 b 281 194 349 188 304 190 b 264 154 269 181 264 165 b 372 111 264 124 286 111 l 506 111 b 743 -58 686 111 743 46 b 357 -357 743 -203 632 -357 b 22 -181 157 -357 22 -294 b 131 -37 22 -119 54 -69 b 81 63 92 -10 81 22 b 199 218 81 125 121 172 b 43 407 111 244 43 297 b 390 671 43 564 171 671 b 522 656 440 671 485 665 b 651 647 547 653 585 647 b 750 656 686 647 708 649 m 467 419 b 369 567 467 513 431 567 b 285 440 315 567 285 531 b 382 293 285 339 324 293 b 467 419 439 293 467 338 m 210 -79 b 207 -115 208 -92 207 -104 b 372 -240 207 -208 272 -240 b 522 -150 472 -240 522 -190 b 407 -106 522 -115 497 -110 l 354 -103 b 210 -79 297 -100 253 -94 "},"Ģ":{"ha":932,"x_min":0,"x_max":0,"o":"m 643 293 l 506 318 b 588 408 499 369 526 408 l 906 408 b 865 307 921 368 910 326 l 843 296 l 843 81 b 493 -22 760 21 660 -22 b 46 410 229 -22 46 118 b 567 925 46 711 206 925 b 828 869 660 925 754 904 l 794 676 b 682 617 785 619 731 599 l 689 778 b 538 813 644 801 589 813 b 297 465 386 813 297 678 b 643 103 297 231 426 106 m 442 -475 b 400 -429 414 -475 397 -457 b 494 -304 449 -404 494 -365 b 399 -210 494 -260 451 -221 b 510 -75 392 -136 428 -75 b 643 -247 597 -75 643 -142 b 442 -475 643 -368 547 -475 "},"ģ":{"ha":751,"x_min":0,"x_max":0,"o":"m 500 1138 b 542 1092 528 1138 544 1119 b 447 967 493 1067 447 1028 b 543 872 447 922 490 883 b 432 738 550 799 514 738 b 299 910 344 738 299 804 b 500 1138 299 1031 394 1138 m 750 656 b 754 618 753 644 754 632 b 663 536 754 564 703 532 b 710 431 690 511 710 465 b 369 188 710 276 565 188 b 281 194 349 188 304 190 b 264 154 269 181 264 165 b 372 111 264 124 286 111 l 506 111 b 743 -58 686 111 743 46 b 357 -357 743 -203 632 -357 b 22 -181 157 -357 22 -294 b 131 -37 22 -119 54 -69 b 81 63 92 -10 81 22 b 199 218 81 125 121 172 b 43 407 111 244 43 297 b 390 671 43 564 171 671 b 522 656 440 671 485 665 b 651 647 547 653 585 647 b 750 656 686 647 708 649 m 467 419 b 369 567 467 513 431 567 b 285 440 315 567 285 531 b 382 293 285 339 324 293 b 467 419 439 293 467 338 m 210 -79 b 207 -115 208 -92 207 -104 b 372 -240 207 -208 272 -240 b 522 -150 472 -240 522 -190 b 407 -106 522 -115 497 -110 l 354 -103 b 210 -79 297 -100 253 -94 "},"Ĥ":{"ha":1096,"x_min":0,"x_max":0,"o":"m 550 1275 b 738 1151 625 1236 714 1175 b 731 986 796 1089 786 1018 l 533 1111 l 365 992 b 349 1124 314 1008 299 1072 b 550 1275 390 1167 476 1231 m 208 3 b 40 0 126 3 40 0 b 35 31 36 10 35 21 b 82 93 35 57 46 79 l 131 113 l 131 793 l 35 818 b 117 906 28 868 56 906 l 463 906 b 422 811 478 867 468 829 l 371 790 l 371 515 l 717 515 l 717 793 l 621 818 b 703 906 614 868 642 906 l 1049 906 b 1008 811 1064 867 1054 829 l 957 790 l 957 113 l 1063 88 b 981 0 1069 38 1042 0 b 794 3 942 0 850 3 b 626 0 713 3 626 0 b 621 31 622 10 621 21 b 668 93 621 57 632 79 l 717 113 l 717 389 l 371 389 l 371 113 l 476 88 b 394 0 483 38 456 0 b 208 3 356 0 264 3 "},"ĥ":{"ha":840,"x_min":0,"x_max":0,"o":"m 218 1363 b 406 1239 293 1324 382 1263 b 399 1074 464 1176 454 1106 l 201 1199 l 33 1079 b 17 1211 -18 1096 -33 1160 b 218 1363 58 1254 144 1318 m 847 86 b 758 0 847 32 815 0 b 614 3 711 0 667 3 b 461 0 561 3 511 1 b 456 32 457 11 456 22 b 503 94 456 58 467 81 l 524 103 l 524 357 b 413 493 524 463 485 493 b 336 481 389 493 360 490 l 336 108 l 411 90 b 325 0 410 40 386 0 b 176 3 286 0 232 3 b 21 0 94 3 21 0 b 15 32 17 11 15 22 b 63 94 15 58 26 81 l 108 113 l 108 863 l 13 875 b 8 906 10 886 8 896 b 78 972 8 947 32 965 l 336 1011 l 336 550 b 564 671 410 631 478 671 b 751 446 675 671 751 608 l 751 108 l 847 86 "},"Ħ":{"ha":1101,"x_min":0,"x_max":0,"o":"m 211 3 b 43 0 129 3 43 0 b 38 31 39 10 38 21 b 85 93 38 57 49 79 l 133 113 l 133 561 l 53 561 b 53 682 39 590 39 651 l 133 682 l 133 793 l 38 818 b 119 906 31 868 58 906 l 465 906 b 425 811 481 867 471 829 l 374 790 l 374 682 l 719 682 l 719 793 l 624 818 b 706 906 617 868 644 906 l 1051 906 b 1011 811 1067 867 1057 829 l 960 790 l 960 682 l 1049 682 b 1044 561 1064 650 1064 592 l 960 561 l 960 113 l 1065 88 b 983 0 1072 38 1044 0 b 797 3 944 0 853 3 b 629 0 715 3 629 0 b 624 31 625 10 624 21 b 671 93 624 57 635 79 l 719 113 l 719 338 l 374 338 l 374 113 l 479 88 b 397 0 486 38 458 0 b 211 3 358 0 267 3 m 719 464 l 719 561 l 374 561 l 374 464 "},"ħ":{"ha":840,"x_min":0,"x_max":0,"o":"m 336 1011 l 336 886 l 507 886 b 507 774 521 857 525 801 l 336 774 l 336 550 b 564 671 410 631 478 671 b 751 446 675 671 751 608 l 751 108 l 847 86 b 758 0 847 32 815 0 b 614 3 711 0 667 3 b 461 0 561 3 511 1 b 456 32 457 11 456 22 b 503 94 456 58 467 81 l 524 103 l 524 357 b 413 493 524 463 485 493 b 336 481 389 493 360 490 l 336 108 l 411 90 b 325 0 410 40 386 0 b 176 3 286 0 232 3 b 21 0 94 3 21 0 b 15 32 17 11 15 22 b 63 94 15 58 26 81 l 108 113 l 108 774 l 8 774 b 8 886 -6 800 -6 858 l 108 886 l 108 976 "},"ı":{"ha":450,"x_min":0,"x_max":0,"o":"m 447 86 b 358 0 447 32 415 0 b 208 3 311 0 261 3 b 36 0 126 3 36 0 b 31 32 32 11 31 22 b 78 94 31 58 42 81 l 124 113 l 124 531 l 29 543 b 24 575 25 554 24 565 b 100 640 24 607 42 632 l 351 678 l 351 108 l 447 86 "},"Ì":{"ha":514,"x_min":0,"x_max":0,"o":"m 108 1089 b 25 1188 58 1110 25 1142 b 58 1268 25 1221 39 1251 b 317 1125 147 1232 260 1172 b 332 993 364 1085 367 1013 m 44 0 b 39 31 40 10 39 21 b 86 93 39 57 50 79 l 135 113 l 135 793 l 39 818 b 121 906 32 868 60 906 l 467 906 b 426 811 482 867 472 829 l 375 790 l 375 113 l 481 88 b 399 0 488 38 460 0 b 213 3 360 0 268 3 b 44 0 131 3 44 0 "},"ì":{"ha":450,"x_min":0,"x_max":0,"o":"m 115 851 b 38 961 67 876 38 908 b 76 1044 38 999 56 1029 b 293 893 158 996 239 943 b 299 757 342 847 336 774 m 447 86 b 358 0 447 32 415 0 b 208 3 311 0 261 3 b 36 0 126 3 36 0 b 31 32 32 11 31 22 b 78 94 31 58 42 81 l 124 113 l 124 531 l 29 543 b 24 575 25 554 24 565 b 100 640 24 607 42 632 l 351 678 l 351 108 l 447 86 "},"Í":{"ha":514,"x_min":0,"x_max":0,"o":"m 172 993 b 188 1125 138 1013 140 1085 b 446 1268 244 1172 357 1232 b 479 1188 465 1251 479 1221 b 396 1089 479 1142 446 1110 l 172 993 m 44 0 b 39 31 40 10 39 21 b 86 93 39 57 50 79 l 135 113 l 135 793 l 39 818 b 121 906 32 868 60 906 l 467 906 b 426 811 482 867 472 829 l 375 790 l 375 113 l 481 88 b 399 0 488 38 460 0 b 213 3 360 0 268 3 b 44 0 131 3 44 0 "},"í":{"ha":450,"x_min":0,"x_max":0,"o":"m 143 757 b 149 893 106 774 100 847 b 365 1044 203 943 283 996 b 404 961 386 1029 404 999 b 326 851 404 908 375 876 l 143 757 m 447 86 b 358 0 447 32 415 0 b 208 3 311 0 261 3 b 36 0 126 3 36 0 b 31 32 32 11 31 22 b 78 94 31 58 42 81 l 124 113 l 124 531 l 29 543 b 24 575 25 554 24 565 b 100 640 24 607 42 632 l 351 678 l 351 108 l 447 86 "},"Î":{"ha":514,"x_min":0,"x_max":0,"o":"m 257 1275 b 444 1151 332 1236 421 1175 b 438 986 503 1089 493 1018 l 240 1111 l 72 992 b 56 1124 21 1008 6 1072 b 257 1275 97 1167 183 1231 m 44 0 b 39 31 40 10 39 21 b 86 93 39 57 50 79 l 135 113 l 135 793 l 39 818 b 121 906 32 868 60 906 l 467 906 b 426 811 482 867 472 829 l 375 790 l 375 113 l 481 88 b 399 0 488 38 460 0 b 213 3 360 0 268 3 b 44 0 131 3 44 0 "},"î":{"ha":450,"x_min":0,"x_max":0,"o":"m 236 1067 b 413 935 307 1026 390 961 b 407 763 468 868 460 797 l 222 897 l 64 768 b 47 904 14 786 0 850 b 236 1067 86 950 168 1019 m 447 86 b 358 0 447 32 415 0 b 208 3 311 0 261 3 b 36 0 126 3 36 0 b 31 32 32 11 31 22 b 78 94 31 58 42 81 l 124 113 l 124 531 l 29 543 b 24 575 25 554 24 565 b 100 640 24 607 42 632 l 351 678 l 351 108 l 447 86 "},"Ĩ":{"ha":514,"x_min":0,"x_max":0,"o":"m 365 1015 b 136 1093 275 1015 204 1093 b 36 1010 85 1093 53 1061 b -1 1075 14 1013 -1 1036 b 157 1226 -1 1160 67 1226 b 383 1160 249 1226 317 1160 b 486 1236 433 1160 464 1190 b 521 1174 506 1235 521 1213 b 365 1015 521 1090 454 1015 m 44 0 b 39 31 40 10 39 21 b 86 93 39 57 50 79 l 135 113 l 135 793 l 39 818 b 121 906 32 868 60 906 l 467 906 b 426 811 482 867 472 829 l 375 790 l 375 113 l 481 88 b 399 0 488 38 460 0 b 213 3 360 0 268 3 b 44 0 131 3 44 0 "},"ĩ":{"ha":450,"x_min":0,"x_max":0,"o":"m 322 808 b 121 886 232 808 189 886 b 21 803 69 886 38 854 b -17 868 -1 806 -17 829 b 142 1019 -17 953 51 1019 b 340 953 233 1019 274 953 b 443 1029 390 953 421 983 b 478 967 463 1028 478 1006 b 322 808 478 883 411 808 m 447 86 b 358 0 447 32 415 0 b 208 3 311 0 261 3 b 36 0 126 3 36 0 b 31 32 32 11 31 22 b 78 94 31 58 42 81 l 124 113 l 124 531 l 29 543 b 24 575 25 554 24 565 b 100 640 24 607 42 632 l 351 678 l 351 108 l 447 86 "},"Ï":{"ha":514,"x_min":0,"x_max":0,"o":"m 519 1111 b 410 999 519 1050 483 999 b 308 1100 343 999 308 1038 b 418 1211 308 1158 344 1211 b 519 1111 482 1211 519 1164 m 208 1111 b 99 999 208 1050 172 999 b -3 1100 32 999 -3 1038 b 107 1211 -3 1158 33 1211 b 208 1111 171 1211 208 1164 m 44 0 b 39 31 40 10 39 21 b 86 93 39 57 50 79 l 135 113 l 135 793 l 39 818 b 121 906 32 868 60 906 l 467 906 b 426 811 482 867 472 829 l 375 790 l 375 113 l 481 88 b 399 0 488 38 460 0 b 213 3 360 0 268 3 b 44 0 131 3 44 0 "},"ï":{"ha":450,"x_min":0,"x_max":0,"o":"m 469 911 b 360 799 469 850 433 799 b 258 900 293 799 258 838 b 368 1011 258 958 294 1011 b 469 911 432 1011 469 964 m 196 911 b 86 799 196 850 160 799 b -15 900 19 799 -15 838 b 94 1011 -15 958 21 1011 b 196 911 158 1011 196 964 m 447 86 b 358 0 447 32 415 0 b 208 3 311 0 261 3 b 36 0 126 3 36 0 b 31 32 32 11 31 22 b 78 94 31 58 42 81 l 124 113 l 124 531 l 29 543 b 24 575 25 554 24 565 b 100 640 24 607 42 632 l 351 678 l 351 108 l 447 86 "},"Ī":{"ha":514,"x_min":0,"x_max":0,"o":"m 26 1044 b 26 1165 13 1074 13 1135 l 482 1165 b 478 1044 497 1133 497 1075 m 44 0 b 39 31 40 10 39 21 b 86 93 39 57 50 79 l 135 113 l 135 793 l 39 818 b 121 906 32 868 60 906 l 467 906 b 426 811 482 867 472 829 l 375 790 l 375 113 l 481 88 b 399 0 488 38 460 0 b 213 3 360 0 268 3 b 44 0 131 3 44 0 "},"ī":{"ha":450,"x_min":0,"x_max":0,"o":"m 22 856 b 22 965 8 882 8 938 l 431 965 b 426 856 446 936 446 883 m 447 86 b 358 0 447 32 415 0 b 208 3 311 0 261 3 b 36 0 126 3 36 0 b 31 32 32 11 31 22 b 78 94 31 58 42 81 l 124 113 l 124 531 l 29 543 b 24 575 25 554 24 565 b 100 640 24 607 42 632 l 351 678 l 351 108 l 447 86 "},"Ĭ":{"ha":514,"x_min":0,"x_max":0,"o":"m 24 1192 b 64 1260 24 1224 46 1254 b 264 1154 110 1201 174 1154 b 468 1257 356 1154 415 1193 b 492 1208 482 1249 492 1226 b 253 1008 492 1100 385 1008 b 24 1192 128 1008 24 1081 m 44 0 b 39 31 40 10 39 21 b 86 93 39 57 50 79 l 135 113 l 135 793 l 39 818 b 121 906 32 868 60 906 l 467 906 b 426 811 482 867 472 829 l 375 790 l 375 113 l 481 88 b 399 0 488 38 460 0 b 213 3 360 0 268 3 b 44 0 131 3 44 0 "},"ĭ":{"ha":450,"x_min":0,"x_max":0,"o":"m 0 976 b 40 1049 0 1011 22 1043 b 238 933 85 988 149 933 b 439 1046 328 933 388 978 b 463 994 453 1038 463 1014 b 226 790 463 881 357 790 b 0 976 103 790 0 860 m 447 86 b 358 0 447 32 415 0 b 208 3 311 0 261 3 b 36 0 126 3 36 0 b 31 32 32 11 31 22 b 78 94 31 58 42 81 l 124 113 l 124 531 l 29 543 b 24 575 25 554 24 565 b 100 640 24 607 42 632 l 351 678 l 351 108 l 447 86 "},"İ":{"ha":514,"x_min":0,"x_max":0,"o":"m 379 1126 b 258 1003 379 1060 340 1003 b 147 1114 185 1003 147 1046 b 268 1236 147 1179 188 1236 b 379 1126 338 1236 379 1185 m 44 0 b 39 31 40 10 39 21 b 86 93 39 57 50 79 l 135 113 l 135 793 l 39 818 b 121 906 32 868 60 906 l 467 906 b 426 811 482 867 472 829 l 375 790 l 375 113 l 481 88 b 399 0 488 38 460 0 b 213 3 360 0 268 3 b 44 0 131 3 44 0 "},"Ị":{"ha":514,"x_min":0,"x_max":0,"o":"m 44 0 b 39 31 40 10 39 21 b 86 93 39 57 50 79 l 135 113 l 135 793 l 39 818 b 121 906 32 868 60 906 l 467 906 b 426 811 482 867 472 829 l 375 790 l 375 113 l 481 88 b 399 0 488 38 460 0 b 213 3 360 0 268 3 b 44 0 131 3 44 0 m 364 -225 b 243 -349 364 -292 325 -349 b 132 -237 169 -349 132 -306 b 253 -115 132 -172 172 -115 b 364 -225 322 -115 364 -167 "},"ị":{"ha":450,"x_min":0,"x_max":0,"o":"m 354 918 b 228 792 354 853 317 792 b 108 908 154 792 108 840 b 236 1032 108 964 143 1032 b 354 918 306 1032 354 976 m 447 86 b 358 0 447 32 415 0 b 208 3 311 0 261 3 b 36 0 126 3 36 0 b 31 32 32 11 31 22 b 78 94 31 58 42 81 l 124 113 l 124 531 l 29 543 b 24 575 25 554 24 565 b 100 640 24 607 42 632 l 351 678 l 351 108 l 447 86 m 350 -225 b 229 -349 350 -292 311 -349 b 118 -237 156 -349 118 -306 b 239 -115 118 -172 158 -115 b 350 -225 308 -115 350 -167 "},"Į":{"ha":514,"x_min":0,"x_max":0,"o":"m 44 0 b 39 31 40 10 39 21 b 86 93 39 57 50 79 l 135 113 l 135 793 l 39 818 b 121 906 32 868 60 906 l 467 906 b 426 811 482 867 472 829 l 375 790 l 375 113 l 481 88 b 399 0 488 38 460 0 b 381 0 393 0 388 0 b 276 -169 314 -68 276 -131 b 325 -214 276 -197 294 -214 b 413 -172 353 -214 385 -196 b 432 -219 422 -181 432 -197 b 263 -343 432 -283 350 -343 b 114 -212 168 -343 114 -294 b 260 3 114 -139 165 -67 b 213 3 243 3 226 3 b 44 0 131 3 44 0 "},"į":{"ha":450,"x_min":0,"x_max":0,"o":"m 354 918 b 228 792 354 853 317 792 b 108 908 154 792 108 840 b 236 1032 108 964 143 1032 b 354 918 306 1032 354 976 m 447 86 b 358 0 447 32 415 0 b 353 0 357 0 354 0 b 249 -169 286 -68 249 -131 b 297 -214 249 -197 267 -214 b 385 -172 325 -214 357 -196 b 404 -219 394 -181 404 -197 b 235 -343 404 -283 322 -343 b 86 -212 140 -343 86 -294 b 232 3 86 -139 138 -67 b 208 3 224 3 217 3 b 36 0 126 3 36 0 b 31 32 32 11 31 22 b 78 94 31 58 42 81 l 124 113 l 124 531 l 29 543 b 24 575 25 554 24 565 b 100 640 24 607 42 632 l 351 678 l 351 108 l 447 86 "},"ȷ":{"ha":419,"x_min":0,"x_max":0,"o":"m 350 60 b 42 -339 350 -212 188 -339 b -94 -244 -43 -339 -94 -318 b -79 -186 -94 -226 -90 -207 b 39 -211 -40 -203 6 -211 b 122 -101 94 -211 122 -185 l 122 531 l 28 543 b 22 575 24 554 22 565 b 99 640 22 607 40 632 l 350 678 "},"Ĵ":{"ha":501,"x_min":0,"x_max":0,"o":"m 235 1275 b 422 1151 310 1236 399 1175 b 415 986 481 1089 471 1018 l 218 1111 l 50 992 b 33 1124 -1 1008 -17 1072 b 235 1275 75 1167 161 1231 m 375 153 b 56 -246 375 -81 232 -246 b -81 -151 -29 -246 -81 -225 b -65 -93 -81 -135 -76 -118 b 44 -118 -26 -110 11 -118 b 135 -8 100 -118 135 -94 l 135 793 l 39 818 b 121 906 32 868 60 906 l 467 906 b 426 811 482 867 472 829 l 375 790 "},"ĵ":{"ha":419,"x_min":0,"x_max":0,"o":"m 231 1067 b 407 935 301 1026 385 961 b 401 763 463 868 454 797 l 217 897 l 58 768 b 42 904 8 786 -6 850 b 231 1067 81 950 163 1019 m 350 60 b 42 -339 350 -212 188 -339 b -94 -244 -43 -339 -94 -318 b -79 -186 -94 -226 -90 -207 b 39 -211 -40 -203 6 -211 b 122 -101 94 -211 122 -185 l 122 531 l 28 543 b 22 575 24 554 22 565 b 99 640 22 607 40 632 l 350 678 "},"Ķ":{"ha":940,"x_min":0,"x_max":0,"o":"m 210 3 b 42 0 128 3 42 0 b 36 31 38 10 36 21 b 83 93 36 57 47 79 l 132 113 l 132 793 l 36 818 b 118 906 29 868 57 906 l 464 906 b 424 811 479 867 469 829 l 372 790 l 372 113 l 478 88 b 396 0 485 38 457 0 b 210 3 357 0 265 3 m 554 821 b 629 906 542 860 574 906 l 926 906 b 838 785 947 835 914 776 l 813 788 l 604 521 l 947 57 b 789 -19 915 8 843 -19 b 600 90 686 -19 647 15 l 390 422 l 650 807 l 554 821 m 424 -475 b 382 -429 396 -475 379 -457 b 476 -304 431 -404 476 -365 b 381 -210 476 -260 433 -221 b 492 -75 374 -136 410 -75 b 625 -247 579 -75 625 -142 b 424 -475 625 -368 529 -475 "},"ķ":{"ha":838,"x_min":0,"x_max":0,"o":"m 336 108 l 411 90 b 325 0 410 40 386 0 b 176 3 286 0 232 3 b 21 0 94 3 21 0 b 15 32 17 11 15 22 b 63 94 15 58 26 81 l 108 113 l 108 863 l 13 875 b 8 906 10 886 8 896 b 78 972 8 947 32 965 l 336 1011 m 819 650 b 703 528 819 567 778 518 l 671 532 l 557 408 l 769 143 b 840 50 804 96 840 50 b 667 -15 796 6 725 -15 b 500 93 581 -15 540 25 l 346 328 l 524 550 l 439 564 b 514 650 426 603 458 650 l 819 650 m 350 -475 b 308 -429 322 -475 306 -457 b 403 -304 357 -404 403 -365 b 307 -210 403 -260 360 -221 b 418 -75 300 -136 336 -75 b 551 -247 506 -75 551 -142 b 350 -475 551 -368 456 -475 "},"ĸ":{"ha":838,"x_min":0,"x_max":0,"o":"m 14 543 b 8 575 10 554 8 565 b 85 640 8 607 26 632 l 336 678 l 336 108 l 411 90 b 325 0 410 40 386 0 b 176 3 286 0 232 3 b 21 0 94 3 21 0 b 15 32 17 11 15 22 b 63 94 15 58 26 81 l 108 113 l 108 531 m 819 650 b 703 528 819 567 778 518 l 671 532 l 557 408 l 769 143 b 840 50 804 96 840 50 b 667 -17 796 6 725 -17 b 500 93 581 -17 540 25 l 346 328 l 524 550 l 439 564 b 514 650 426 603 458 650 "},"Ĺ":{"ha":779,"x_min":0,"x_max":0,"o":"m 208 993 b 224 1125 174 1013 176 1085 b 482 1268 281 1172 393 1232 b 515 1188 501 1251 515 1221 b 432 1089 515 1142 482 1110 l 208 993 m 132 793 l 36 818 b 118 906 29 868 57 906 l 508 906 b 469 810 526 869 518 819 l 372 790 l 372 131 l 593 114 l 651 257 b 765 285 674 313 726 313 l 704 0 l 39 0 b 35 31 36 10 35 21 b 82 93 35 57 46 79 l 132 113 "},"ĺ":{"ha":433,"x_min":0,"x_max":0,"o":"m 140 1093 b 156 1225 106 1113 108 1185 b 414 1368 213 1272 325 1332 b 447 1288 433 1351 447 1321 b 364 1189 447 1242 414 1210 l 140 1093 m 432 86 b 343 0 432 32 400 0 b 193 3 296 0 246 3 b 21 0 111 3 21 0 b 15 32 17 11 15 22 b 63 94 15 58 26 81 l 108 113 l 108 863 l 13 875 b 8 906 10 886 8 896 b 78 972 8 947 32 965 l 336 1011 l 336 108 l 432 86 "},"Ľ":{"ha":808,"x_min":0,"x_max":0,"o":"m 611 661 b 568 988 610 765 592 908 b 675 1029 594 1014 629 1029 b 779 919 740 1029 779 988 b 706 654 779 844 746 735 b 611 661 681 658 643 661 m 132 793 l 36 818 b 118 906 29 868 57 906 l 508 906 b 469 810 526 869 518 819 l 372 790 l 372 131 l 593 114 l 651 257 b 765 285 674 313 726 313 l 704 0 l 39 0 b 35 31 36 10 35 21 b 82 93 35 57 46 79 l 132 113 "},"ľ":{"ha":644,"x_min":0,"x_max":0,"o":"m 438 661 b 394 988 436 765 418 908 b 501 1029 421 1014 456 1029 b 606 919 567 1029 606 988 b 532 654 606 844 572 735 b 438 661 507 658 469 661 m 432 86 b 343 0 432 32 400 0 b 193 3 296 0 246 3 b 21 0 111 3 21 0 b 15 32 17 11 15 22 b 63 94 15 58 26 81 l 108 113 l 108 863 l 13 875 b 8 906 10 886 8 896 b 78 972 8 947 32 965 l 336 1011 l 336 108 l 432 86 "},"Ļ":{"ha":779,"x_min":0,"x_max":0,"o":"m 132 793 l 36 818 b 118 906 29 868 57 906 l 508 906 b 469 810 526 869 518 819 l 372 790 l 372 131 l 593 114 l 651 257 b 765 285 674 313 726 313 l 704 0 l 39 0 b 35 31 36 10 35 21 b 82 93 35 57 46 79 l 132 113 m 354 -475 b 313 -429 326 -475 310 -457 b 407 -304 361 -404 407 -365 b 311 -210 407 -260 364 -221 b 422 -75 304 -136 340 -75 b 556 -247 510 -75 556 -142 b 354 -475 556 -368 460 -475 "},"ļ":{"ha":433,"x_min":0,"x_max":0,"o":"m 432 86 b 343 0 432 32 400 0 b 193 3 296 0 246 3 b 21 0 111 3 21 0 b 15 32 17 11 15 22 b 63 94 15 58 26 81 l 108 113 l 108 863 l 13 875 b 8 906 10 886 8 896 b 78 972 8 947 32 965 l 336 1011 l 336 108 l 432 86 m 132 -475 b 90 -429 104 -475 88 -457 b 185 -304 139 -404 185 -365 b 89 -210 185 -260 142 -221 b 200 -75 82 -136 118 -75 b 333 -247 288 -75 333 -142 b 132 -475 333 -368 238 -475 "},"Ł":{"ha":779,"x_min":0,"x_max":0,"o":"m 132 376 l 51 343 b 94 469 24 361 22 432 l 132 488 l 132 793 l 36 818 b 118 906 29 868 57 906 l 508 906 b 469 810 526 869 518 819 l 372 790 l 372 600 l 581 697 b 544 547 625 663 619 579 l 372 476 l 372 131 l 593 114 l 651 257 b 765 285 674 313 726 313 l 704 0 l 39 0 b 35 31 36 10 35 21 b 82 93 35 57 46 79 l 132 113 "},"ł":{"ha":433,"x_min":0,"x_max":0,"o":"m 432 86 b 343 0 432 32 400 0 b 193 3 296 0 246 3 b 21 0 111 3 21 0 b 15 32 17 11 15 22 b 63 94 15 58 26 81 l 108 113 l 108 446 l 39 418 b 82 544 11 436 10 507 l 108 557 l 108 863 l 13 875 b 8 906 10 886 8 896 b 78 972 8 947 32 965 l 336 1011 l 336 667 l 440 717 b 404 567 485 682 479 599 l 336 539 l 336 108 l 432 86 "},"Ŀ":{"ha":779,"x_min":0,"x_max":0,"o":"m 132 793 l 36 818 b 118 906 29 868 57 906 l 508 906 b 469 810 526 869 518 819 l 372 790 l 372 131 l 593 114 l 651 257 b 765 285 674 313 726 313 l 704 0 l 39 0 b 35 31 36 10 35 21 b 82 93 35 57 46 79 l 132 113 m 754 510 b 629 382 754 440 714 382 b 515 496 554 382 515 426 b 640 622 515 564 557 622 b 754 510 711 622 754 569 "},"ŀ":{"ha":542,"x_min":0,"x_max":0,"o":"m 432 86 b 343 0 432 32 400 0 b 193 3 296 0 246 3 b 21 0 111 3 21 0 b 15 32 17 11 15 22 b 63 94 15 58 26 81 l 108 113 l 108 863 l 13 875 b 8 906 10 886 8 896 b 78 972 8 947 32 965 l 336 1011 l 336 108 l 432 86 m 600 467 b 488 353 600 404 564 353 b 385 454 419 353 385 392 b 497 568 385 515 422 568 b 600 467 561 568 600 521 "},"Ń":{"ha":1011,"x_min":0,"x_max":0,"o":"m 510 993 b 525 1125 475 1013 478 1085 b 783 1268 582 1172 694 1232 b 817 1188 803 1251 817 1221 b 733 1089 817 1142 783 1110 l 510 993 m 350 906 l 758 324 l 758 789 l 628 814 b 710 906 621 864 649 906 l 983 906 b 939 815 999 867 982 835 l 894 794 l 894 14 b 783 -15 843 -10 824 -15 b 647 64 728 -15 685 10 l 265 604 l 265 118 l 404 93 b 322 0 413 43 383 0 b 149 3 283 0 204 3 b 39 0 100 3 54 1 b 33 31 35 10 33 21 b 81 93 33 57 44 79 l 129 113 l 129 800 l 42 818 b 124 906 35 868 63 906 "},"ń":{"ha":857,"x_min":0,"x_max":0,"o":"m 406 757 b 411 893 368 774 363 847 b 628 1044 465 943 546 996 b 667 961 649 1029 667 999 b 589 851 667 908 638 876 l 406 757 m 861 86 b 772 0 861 32 829 0 b 628 3 725 0 681 3 b 475 0 575 3 525 1 b 469 32 471 11 469 22 b 517 94 469 58 481 81 l 538 103 l 538 357 b 426 493 538 463 499 493 b 350 481 403 493 374 490 l 350 108 l 425 90 b 339 0 424 40 400 0 b 190 3 300 0 246 3 b 35 0 108 3 35 0 b 29 32 31 11 29 22 b 76 94 29 58 40 81 l 122 113 l 122 531 l 28 543 b 22 575 24 554 22 565 b 99 640 22 607 40 632 l 350 678 l 350 550 b 578 671 424 631 492 671 b 765 446 689 671 765 608 l 765 108 l 861 86 "},"Ñ":{"ha":1011,"x_min":0,"x_max":0,"o":"m 650 1015 b 421 1093 560 1015 489 1093 b 321 1010 369 1093 338 1061 b 283 1075 299 1013 283 1036 b 442 1226 283 1160 351 1226 b 668 1160 533 1226 601 1160 b 771 1236 718 1160 749 1190 b 806 1174 790 1235 806 1213 b 650 1015 806 1090 739 1015 m 350 906 l 758 324 l 758 789 l 628 814 b 710 906 621 864 649 906 l 983 906 b 939 815 999 867 982 835 l 894 794 l 894 14 b 783 -15 843 -10 824 -15 b 647 64 728 -15 685 10 l 265 604 l 265 118 l 404 93 b 322 0 413 43 383 0 b 149 3 283 0 204 3 b 39 0 100 3 54 1 b 33 31 35 10 33 21 b 81 93 33 57 44 79 l 129 113 l 129 800 l 42 818 b 124 906 35 868 63 906 "},"ñ":{"ha":857,"x_min":0,"x_max":0,"o":"m 519 808 b 318 886 429 808 386 886 b 218 803 267 886 235 854 b 181 868 196 806 181 829 b 339 1019 181 953 249 1019 b 538 953 431 1019 471 953 b 640 1029 588 953 618 983 b 675 967 660 1028 675 1006 b 519 808 675 883 608 808 m 861 86 b 772 0 861 32 829 0 b 628 3 725 0 681 3 b 475 0 575 3 525 1 b 469 32 471 11 469 22 b 517 94 469 58 481 81 l 538 103 l 538 357 b 426 493 538 463 499 493 b 350 481 403 493 374 490 l 350 108 l 425 90 b 339 0 424 40 400 0 b 190 3 300 0 246 3 b 35 0 108 3 35 0 b 29 32 31 11 29 22 b 76 94 29 58 40 81 l 122 113 l 122 531 l 28 543 b 22 575 24 554 22 565 b 99 640 22 607 40 632 l 350 678 l 350 550 b 578 671 424 631 492 671 b 765 446 689 671 765 608 l 765 108 l 861 86 "},"Ň":{"ha":1011,"x_min":0,"x_max":0,"o":"m 528 983 b 340 1107 453 1022 364 1083 b 347 1272 282 1169 292 1240 l 544 1147 l 713 1267 b 729 1135 764 1250 779 1186 b 528 983 688 1092 601 1028 m 350 906 l 758 324 l 758 789 l 628 814 b 710 906 621 864 649 906 l 983 906 b 939 815 999 867 982 835 l 894 794 l 894 14 b 783 -15 843 -10 824 -15 b 647 64 728 -15 685 10 l 265 604 l 265 118 l 404 93 b 322 0 413 43 383 0 b 149 3 283 0 204 3 b 39 0 100 3 54 1 b 33 31 35 10 33 21 b 81 93 33 57 44 79 l 129 113 l 129 800 l 42 818 b 124 906 35 868 63 906 "},"ň":{"ha":857,"x_min":0,"x_max":0,"o":"m 431 758 b 254 890 360 799 276 864 b 260 1063 199 957 207 1028 l 444 928 l 603 1057 b 619 921 653 1039 667 975 b 431 758 581 875 499 806 m 861 86 b 772 0 861 32 829 0 b 628 3 725 0 681 3 b 475 0 575 3 525 1 b 469 32 471 11 469 22 b 517 94 469 58 481 81 l 538 103 l 538 357 b 426 493 538 463 499 493 b 350 481 403 493 374 490 l 350 108 l 425 90 b 339 0 424 40 400 0 b 190 3 300 0 246 3 b 35 0 108 3 35 0 b 29 32 31 11 29 22 b 76 94 29 58 40 81 l 122 113 l 122 531 l 28 543 b 22 575 24 554 22 565 b 99 640 22 607 40 632 l 350 678 l 350 550 b 578 671 424 631 492 671 b 765 446 689 671 765 608 l 765 108 l 861 86 "},"Ņ":{"ha":1011,"x_min":0,"x_max":0,"o":"m 350 906 l 758 324 l 758 789 l 628 814 b 710 906 621 864 649 906 l 983 906 b 939 815 999 867 982 835 l 894 794 l 894 14 b 783 -15 843 -10 824 -15 b 647 64 728 -15 685 10 l 265 604 l 265 118 l 404 93 b 322 0 413 43 383 0 b 149 3 283 0 204 3 b 39 0 100 3 54 1 b 33 31 35 10 33 21 b 81 93 33 57 44 79 l 129 113 l 129 800 l 42 818 b 124 906 35 868 63 906 m 432 -475 b 390 -429 404 -475 388 -457 b 485 -304 439 -404 485 -365 b 389 -210 485 -260 442 -221 b 500 -75 382 -136 418 -75 b 633 -247 588 -75 633 -142 b 432 -475 633 -368 538 -475 "},"ņ":{"ha":857,"x_min":0,"x_max":0,"o":"m 861 86 b 772 0 861 32 829 0 b 628 3 725 0 681 3 b 475 0 575 3 525 1 b 469 32 471 11 469 22 b 517 94 469 58 481 81 l 538 103 l 538 357 b 426 493 538 463 499 493 b 350 481 403 493 374 490 l 350 108 l 425 90 b 339 0 424 40 400 0 b 190 3 300 0 246 3 b 35 0 108 3 35 0 b 29 32 31 11 29 22 b 76 94 29 58 40 81 l 122 113 l 122 531 l 28 543 b 22 575 24 554 22 565 b 99 640 22 607 40 632 l 350 678 l 350 550 b 578 671 424 631 492 671 b 765 446 689 671 765 608 l 765 108 l 861 86 m 360 -475 b 318 -429 332 -475 315 -457 b 413 -304 367 -404 413 -365 b 317 -210 413 -260 369 -221 b 428 -75 310 -136 346 -75 b 561 -247 515 -75 561 -142 b 360 -475 561 -368 465 -475 "},"Ɲ":{"ha":1004,"x_min":0,"x_max":0,"o":"m 258 13 b 24 -339 258 -253 142 -339 b -94 -244 -47 -339 -94 -312 b -79 -186 -94 -226 -90 -207 b 38 -211 -40 -203 4 -211 b 122 -100 90 -211 122 -183 l 122 800 l 35 818 b 117 906 28 868 56 906 l 343 906 l 751 324 l 751 789 l 621 814 b 703 906 614 864 642 906 l 976 906 b 932 815 992 867 975 835 l 888 794 l 888 14 b 776 -15 836 -10 817 -15 b 640 64 721 -15 678 10 l 258 604 l 258 13 "},"ɲ":{"ha":857,"x_min":0,"x_max":0,"o":"m 350 60 b 42 -339 350 -212 188 -339 b -94 -244 -43 -339 -94 -318 b -79 -186 -94 -226 -90 -207 b 39 -211 -40 -203 6 -211 b 122 -101 94 -211 122 -185 l 122 531 l 28 543 b 22 575 24 554 22 565 b 99 640 22 607 40 632 l 350 678 l 350 550 b 578 671 424 631 492 671 b 765 446 689 671 765 608 l 765 108 l 861 86 b 772 0 861 32 829 0 b 628 3 725 0 681 3 b 475 0 575 3 525 1 b 469 32 471 11 469 22 b 517 94 469 58 481 81 l 538 103 l 538 357 b 426 493 538 463 499 493 b 350 481 403 493 374 490 l 350 60 "},"Ŋ":{"ha":1011,"x_min":0,"x_max":0,"o":"m 760 -14 b 647 64 715 -8 681 17 l 265 604 l 265 118 l 404 93 b 322 0 413 43 383 0 b 149 3 283 0 204 3 b 39 0 100 3 54 1 b 33 31 35 10 33 21 b 81 93 33 57 44 79 l 129 113 l 129 800 l 42 818 b 124 906 35 868 63 906 l 350 906 l 758 324 l 758 789 l 628 814 b 710 906 621 864 649 906 l 983 906 b 939 815 999 867 982 835 l 894 794 l 894 13 b 661 -339 894 -253 779 -339 b 543 -244 590 -339 543 -312 b 558 -186 543 -226 547 -207 b 675 -211 597 -203 642 -211 b 760 -100 728 -211 760 -183 l 760 -14 "},"ŋ":{"ha":847,"x_min":0,"x_max":0,"o":"m 765 60 b 457 -339 765 -212 603 -339 b 321 -244 372 -339 321 -318 b 336 -186 321 -226 325 -207 b 454 -211 375 -203 421 -211 b 538 -100 510 -211 538 -185 l 538 357 b 426 493 538 463 499 493 b 350 481 403 493 374 490 l 350 108 l 425 90 b 339 0 424 40 400 0 b 190 3 300 0 246 3 b 35 0 108 3 35 0 b 29 32 31 11 29 22 b 76 94 29 58 40 81 l 122 113 l 122 531 l 28 543 b 22 575 24 554 22 565 b 99 640 22 607 40 632 l 350 678 l 350 550 b 578 671 424 631 492 671 b 765 446 689 671 765 608 "},"ŉ":{"ha":1186,"x_min":0,"x_max":0,"o":"m 110 633 b 53 679 83 633 61 649 b 176 807 128 703 176 751 b 61 889 176 846 144 881 b 193 1039 53 961 94 1039 b 339 854 297 1039 339 957 b 110 633 339 744 239 633 m 1190 86 b 1101 0 1190 32 1158 0 b 957 3 1054 0 1010 3 b 804 0 904 3 854 1 b 799 32 800 11 799 22 b 846 94 799 58 810 81 l 867 103 l 867 357 b 756 493 867 463 828 493 b 679 481 732 493 703 490 l 679 108 l 754 90 b 668 0 753 40 729 0 b 519 3 629 0 575 3 b 364 0 438 3 364 0 b 358 32 360 11 358 22 b 406 94 358 58 369 81 l 451 113 l 451 531 l 357 543 b 351 575 353 554 351 565 b 428 640 351 607 369 632 l 679 678 l 679 550 b 907 671 753 631 821 671 b 1094 446 1018 671 1094 608 l 1094 108 l 1190 86 "},"Ò":{"ha":1046,"x_min":0,"x_max":0,"o":"m 331 1092 b 247 1190 281 1113 247 1144 b 281 1271 247 1224 261 1254 b 539 1128 369 1235 482 1175 b 554 996 586 1088 589 1015 m 483 -22 b 46 392 210 -22 46 126 b 563 925 46 717 224 925 b 1000 511 836 925 1000 776 b 483 -22 1000 186 822 -22 m 501 788 b 296 479 389 788 296 706 b 544 115 296 263 392 114 b 750 424 657 115 750 197 b 501 788 750 640 654 789 "},"ò":{"ha":793,"x_min":0,"x_max":0,"o":"m 247 851 b 169 961 199 876 169 908 b 208 1044 169 999 188 1029 b 425 893 290 996 371 943 b 431 757 474 847 468 774 m 758 353 b 378 -22 758 131 618 -22 b 35 301 194 -22 35 58 b 417 671 35 529 189 671 b 758 353 642 671 758 546 m 518 307 b 379 549 518 460 458 549 b 275 347 308 549 275 476 b 410 100 275 163 340 100 b 518 307 475 100 518 153 "},"Ó":{"ha":1046,"x_min":0,"x_max":0,"o":"m 464 993 b 479 1125 429 1013 432 1085 b 738 1268 536 1172 649 1232 b 771 1188 757 1251 771 1221 b 688 1089 771 1142 738 1110 l 464 993 m 483 -22 b 46 392 210 -22 46 126 b 563 925 46 717 224 925 b 1000 511 836 925 1000 776 b 483 -22 1000 186 822 -22 m 501 788 b 296 479 389 788 296 706 b 544 115 296 263 392 114 b 750 424 657 115 750 197 b 501 788 750 640 654 789 "},"ó":{"ha":793,"x_min":0,"x_max":0,"o":"m 358 757 b 364 893 321 774 315 847 b 581 1044 418 943 499 996 b 619 961 601 1029 619 999 b 542 851 619 908 590 876 l 358 757 m 758 353 b 378 -22 758 131 618 -22 b 35 301 194 -22 35 58 b 417 671 35 529 189 671 b 758 353 642 671 758 546 m 518 307 b 379 549 518 460 458 549 b 275 347 308 549 275 476 b 410 100 275 163 340 100 b 518 307 475 100 518 153 "},"Ô":{"ha":1046,"x_min":0,"x_max":0,"o":"m 526 1275 b 714 1151 601 1236 690 1175 b 707 986 772 1089 763 1018 l 510 1111 l 342 992 b 325 1124 290 1008 275 1072 b 526 1275 367 1167 453 1231 m 483 -22 b 46 392 210 -22 46 126 b 563 925 46 717 224 925 b 1000 511 836 925 1000 776 b 483 -22 1000 186 822 -22 m 501 788 b 296 479 389 788 296 706 b 544 115 296 263 392 114 b 750 424 657 115 750 197 b 501 788 750 640 654 789 "},"ô":{"ha":793,"x_min":0,"x_max":0,"o":"m 414 1067 b 590 935 485 1026 568 961 b 585 763 646 868 638 797 l 400 897 l 242 768 b 225 904 192 786 178 850 b 414 1067 264 950 346 1019 m 758 353 b 378 -22 758 131 618 -22 b 35 301 194 -22 35 58 b 417 671 35 529 189 671 b 758 353 642 671 758 546 m 518 307 b 379 549 518 460 458 549 b 275 347 308 549 275 476 b 410 100 275 163 340 100 b 518 307 475 100 518 153 "},"Õ":{"ha":1046,"x_min":0,"x_max":0,"o":"m 640 1015 b 411 1093 550 1015 479 1093 b 311 1010 360 1093 328 1061 b 274 1075 289 1013 274 1036 b 432 1226 274 1160 342 1226 b 658 1160 524 1226 592 1160 b 761 1236 708 1160 739 1190 b 796 1174 781 1235 796 1213 b 640 1015 796 1090 729 1015 m 483 -22 b 46 392 210 -22 46 126 b 563 925 46 717 224 925 b 1000 511 836 925 1000 776 b 483 -22 1000 186 822 -22 m 501 788 b 296 479 389 788 296 706 b 544 115 296 263 392 114 b 750 424 657 115 750 197 b 501 788 750 640 654 789 "},"õ":{"ha":793,"x_min":0,"x_max":0,"o":"m 506 808 b 304 886 415 808 372 886 b 204 803 253 886 221 854 b 167 868 182 806 167 829 b 325 1019 167 953 235 1019 b 524 953 417 1019 457 953 b 626 1029 574 953 604 983 b 661 967 646 1028 661 1006 b 506 808 661 883 594 808 m 758 353 b 378 -22 758 131 618 -22 b 35 301 194 -22 35 58 b 417 671 35 529 189 671 b 758 353 642 671 758 546 m 518 307 b 379 549 518 460 458 549 b 275 347 308 549 275 476 b 410 100 275 163 340 100 b 518 307 475 100 518 153 "},"Ö":{"ha":1046,"x_min":0,"x_max":0,"o":"m 460 1125 b 350 1013 460 1064 424 1013 b 249 1114 283 1013 249 1051 b 358 1225 249 1172 285 1225 b 460 1125 422 1225 460 1178 m 814 1125 b 704 1013 814 1064 778 1013 b 603 1114 638 1013 603 1051 b 713 1225 603 1172 639 1225 b 814 1125 776 1225 814 1178 m 483 -22 b 46 392 210 -22 46 126 b 563 925 46 717 224 925 b 1000 511 836 925 1000 776 b 483 -22 1000 186 822 -22 m 501 788 b 296 479 389 788 296 706 b 544 115 296 263 392 114 b 750 424 657 115 750 197 b 501 788 750 640 654 789 "},"ö":{"ha":793,"x_min":0,"x_max":0,"o":"m 665 911 b 556 799 665 850 629 799 b 454 900 489 799 454 838 b 564 1011 454 958 490 1011 b 665 911 628 1011 665 964 m 357 911 b 247 799 357 850 321 799 b 146 900 181 799 146 838 b 256 1011 146 958 182 1011 b 357 911 319 1011 357 964 m 758 353 b 378 -22 758 131 618 -22 b 35 301 194 -22 35 58 b 417 671 35 529 189 671 b 758 353 642 671 758 546 m 518 307 b 379 549 518 460 458 549 b 275 347 308 549 275 476 b 410 100 275 163 340 100 b 518 307 475 100 518 153 "},"Ō":{"ha":1046,"x_min":0,"x_max":0,"o":"m 767 1175 b 767 1063 781 1146 785 1090 l 283 1063 b 283 1175 269 1089 269 1147 l 767 1175 m 483 -22 b 46 392 210 -22 46 126 b 563 925 46 717 224 925 b 1000 511 836 925 1000 776 b 483 -22 1000 186 822 -22 m 501 788 b 296 479 389 788 296 706 b 544 115 296 263 392 114 b 750 424 657 115 750 197 b 501 788 750 640 654 789 "},"ō":{"ha":793,"x_min":0,"x_max":0,"o":"m 628 968 b 628 856 642 939 646 883 l 169 856 b 169 968 156 882 156 940 l 628 968 m 758 353 b 378 -22 758 131 618 -22 b 35 301 194 -22 35 58 b 417 671 35 529 189 671 b 758 353 642 671 758 546 m 518 307 b 379 549 518 460 458 549 b 275 347 308 549 275 476 b 410 100 275 163 340 100 b 518 307 475 100 518 153 "},"Ŏ":{"ha":1046,"x_min":0,"x_max":0,"o":"m 299 1192 b 339 1260 299 1224 321 1254 b 539 1154 385 1201 449 1154 b 743 1257 631 1154 690 1193 b 767 1208 757 1249 767 1226 b 528 1008 767 1100 660 1008 b 299 1192 403 1008 299 1081 m 483 -22 b 46 392 210 -22 46 126 b 563 925 46 717 224 925 b 1000 511 836 925 1000 776 b 483 -22 1000 186 822 -22 m 501 788 b 296 479 389 788 296 706 b 544 115 296 263 392 114 b 750 424 657 115 750 197 b 501 788 750 640 654 789 "},"ŏ":{"ha":793,"x_min":0,"x_max":0,"o":"m 174 976 b 214 1049 174 1011 196 1043 b 411 933 258 988 322 933 b 613 1046 501 933 561 978 b 636 994 626 1038 636 1014 b 400 790 636 881 531 790 b 174 976 276 790 174 860 m 758 353 b 378 -22 758 131 618 -22 b 35 301 194 -22 35 58 b 417 671 35 529 189 671 b 758 353 642 671 758 546 m 518 307 b 379 549 518 460 458 549 b 275 347 308 549 275 476 b 410 100 275 163 340 100 b 518 307 475 100 518 153 "},"Ő":{"ha":1046,"x_min":0,"x_max":0,"o":"m 651 993 b 667 1125 617 1013 619 1085 b 925 1268 724 1172 836 1232 b 958 1188 944 1251 958 1221 b 875 1089 958 1142 925 1110 l 651 993 m 304 993 b 319 1125 269 1013 272 1085 b 578 1268 376 1172 489 1232 b 611 1188 597 1251 611 1221 b 528 1089 611 1142 578 1110 l 304 993 m 483 -22 b 46 392 210 -22 46 126 b 563 925 46 717 224 925 b 1000 511 836 925 1000 776 b 483 -22 1000 186 822 -22 m 501 788 b 296 479 389 788 296 706 b 544 115 296 263 392 114 b 750 424 657 115 750 197 b 501 788 750 640 654 789 "},"ő":{"ha":793,"x_min":0,"x_max":0,"o":"m 790 961 b 713 851 790 908 761 876 l 529 757 b 535 893 492 774 486 847 b 751 1044 589 943 669 996 b 790 961 772 1029 790 999 m 204 757 b 210 893 167 774 161 847 b 426 1044 264 943 344 996 b 465 961 447 1029 465 999 b 388 851 465 908 436 876 l 204 757 m 758 353 b 378 -22 758 131 618 -22 b 35 301 194 -22 35 58 b 417 671 35 529 189 671 b 758 353 642 671 758 546 m 518 307 b 379 549 518 460 458 549 b 275 347 308 549 275 476 b 410 100 275 163 340 100 b 518 307 475 100 518 153 "},"Ọ":{"ha":1046,"x_min":0,"x_max":0,"o":"m 483 -22 b 46 392 210 -22 46 126 b 563 925 46 717 224 925 b 1000 511 836 925 1000 776 b 483 -22 1000 186 822 -22 m 501 788 b 296 479 389 788 296 706 b 544 115 296 263 392 114 b 750 424 657 115 750 197 b 501 788 750 640 654 789 m 628 -225 b 507 -349 628 -292 589 -349 b 396 -237 433 -349 396 -306 b 517 -115 396 -172 436 -115 b 628 -225 586 -115 628 -167 "},"ọ":{"ha":793,"x_min":0,"x_max":0,"o":"m 758 353 b 378 -22 758 131 618 -22 b 35 301 194 -22 35 58 b 417 671 35 529 189 671 b 758 353 642 671 758 546 m 518 307 b 379 549 518 460 458 549 b 275 347 308 549 275 476 b 410 100 275 163 340 100 b 518 307 475 100 518 153 m 507 -225 b 386 -349 507 -292 468 -349 b 275 -237 313 -349 275 -306 b 396 -115 275 -172 315 -115 b 507 -225 465 -115 507 -167 "},"Ǫ":{"ha":1046,"x_min":0,"x_max":0,"o":"m 664 -219 b 494 -343 664 -283 582 -343 b 346 -212 400 -343 346 -294 b 460 -22 346 -149 386 -83 b 46 392 200 -14 46 133 b 563 925 46 717 224 925 b 1000 511 836 925 1000 776 b 600 -12 1000 225 863 31 b 508 -169 542 -76 508 -132 b 557 -214 508 -197 526 -214 b 644 -172 585 -214 617 -196 b 664 -219 654 -181 664 -197 m 501 788 b 296 479 389 788 296 706 b 544 115 296 263 392 114 b 750 424 657 115 750 197 b 501 788 750 640 654 789 "},"ǫ":{"ha":793,"x_min":0,"x_max":0,"o":"m 540 -219 b 371 -343 540 -283 458 -343 b 222 -212 276 -343 222 -294 b 338 -21 222 -147 263 -83 b 35 301 172 -10 35 76 b 417 671 35 529 189 671 b 758 353 642 671 758 546 b 476 -12 758 163 656 24 b 385 -169 418 -75 385 -132 b 433 -214 385 -197 403 -214 b 521 -172 461 -214 493 -196 b 540 -219 531 -181 540 -197 m 518 307 b 379 549 518 460 458 549 b 275 347 308 549 275 476 b 410 100 275 163 340 100 b 518 307 475 100 518 153 "},"Ø":{"ha":1046,"x_min":0,"x_max":0,"o":"m 483 -22 b 314 0 421 -22 365 -14 b 233 -128 283 -49 250 -100 b 157 35 164 -131 96 -65 l 179 69 b 46 392 93 140 46 249 b 563 925 46 717 224 925 b 724 904 622 925 675 918 l 732 917 b 797 1026 760 960 783 997 b 861 842 869 1022 936 957 l 860 839 b 1000 511 950 768 1000 658 b 483 -22 1000 186 822 -22 m 501 788 b 296 479 389 788 296 706 b 325 292 296 408 306 346 l 624 750 b 501 788 589 775 547 788 m 750 424 b 717 621 750 499 739 565 l 417 157 b 544 115 453 129 496 115 b 750 424 657 115 750 197 "},"ø":{"ha":793,"x_min":0,"x_max":0,"o":"m 758 353 b 378 -22 758 131 618 -22 b 269 -11 340 -22 304 -19 b 194 -140 243 -57 208 -115 b 119 0 138 -140 69 -90 l 144 43 b 35 301 78 93 35 175 b 417 671 35 529 189 671 b 518 661 453 671 488 668 l 536 692 b 590 790 558 726 579 764 b 654 628 654 789 717 735 l 643 608 b 758 353 719 554 758 464 m 275 347 b 281 267 275 317 276 290 l 439 529 b 379 549 421 542 400 549 b 275 347 308 549 275 476 m 518 307 b 511 390 518 338 515 365 l 349 119 b 410 100 367 106 389 100 b 518 307 475 100 518 153 "},"Ǿ":{"ha":1046,"x_min":0,"x_max":0,"o":"m 503 993 b 518 1125 468 1013 471 1085 b 776 1268 575 1172 688 1232 b 810 1188 796 1251 810 1221 b 726 1089 810 1142 776 1110 l 503 993 m 483 -22 b 314 0 421 -22 365 -14 b 233 -128 283 -49 250 -100 b 157 35 164 -131 96 -65 l 179 69 b 46 392 93 140 46 249 b 563 925 46 717 224 925 b 724 904 622 925 675 918 l 732 917 b 797 1026 760 960 783 997 b 861 842 869 1022 936 957 l 860 839 b 1000 511 950 768 1000 658 b 483 -22 1000 186 822 -22 m 501 788 b 296 479 389 788 296 706 b 325 292 296 408 306 346 l 624 750 b 501 788 589 775 547 788 m 750 424 b 717 621 750 499 739 565 l 417 157 b 544 115 453 129 496 115 b 750 424 657 115 750 197 "},"ǿ":{"ha":793,"x_min":0,"x_max":0,"o":"m 376 757 b 382 893 339 774 333 847 b 599 1044 436 943 517 996 b 638 961 619 1029 638 999 b 560 851 638 908 608 876 l 376 757 m 758 353 b 378 -22 758 131 618 -22 b 269 -11 340 -22 304 -19 b 194 -140 243 -57 208 -115 b 119 0 138 -140 69 -90 l 144 43 b 35 301 78 93 35 175 b 417 671 35 529 189 671 b 518 661 453 671 488 668 l 536 692 b 590 790 558 726 579 764 b 654 628 654 789 717 735 l 643 608 b 758 353 719 554 758 464 m 275 347 b 281 267 275 317 276 290 l 439 529 b 379 549 421 542 400 549 b 275 347 308 549 275 476 m 518 307 b 511 390 518 338 515 365 l 349 119 b 410 100 367 106 389 100 b 518 307 475 100 518 153 "},"Œ":{"ha":1333,"x_min":0,"x_max":0,"o":"m 651 0 b 478 -22 601 -15 544 -22 b 46 397 208 -22 46 128 b 563 925 46 726 224 925 b 708 906 606 925 658 918 l 1229 906 l 1240 756 b 1153 663 1246 681 1211 657 l 1126 792 l 911 806 l 911 485 l 1060 485 b 1165 578 1058 558 1100 593 l 1156 360 b 1050 288 1153 299 1096 276 l 1054 379 l 911 379 l 911 122 l 1132 106 l 1186 233 b 1300 263 1213 289 1261 290 l 1240 0 m 296 479 b 538 110 296 250 408 110 b 671 156 588 110 635 125 l 671 731 b 501 790 621 768 557 790 b 296 479 389 790 296 718 "},"œ":{"ha":1103,"x_min":0,"x_max":0,"o":"m 1046 201 b 1064 164 1057 193 1064 181 b 785 -22 1064 78 961 -22 b 576 33 697 -22 628 -3 b 378 -22 522 -3 460 -22 b 35 301 194 -22 35 58 b 417 671 35 529 189 671 b 613 607 503 671 564 649 b 800 671 664 647 728 671 b 1068 424 978 671 1068 581 b 1056 322 1068 389 1064 350 l 694 322 b 869 133 701 194 768 133 b 1046 201 943 133 1000 160 m 879 411 b 788 560 876 510 840 560 b 697 408 728 560 700 496 m 275 347 b 410 100 275 163 340 100 b 492 143 442 100 471 113 b 468 290 476 185 468 233 b 500 456 468 347 479 404 b 379 549 474 517 428 549 b 275 347 308 549 275 476 "},"Ŕ":{"ha":964,"x_min":0,"x_max":0,"o":"m 417 993 b 432 1125 382 1013 385 1085 b 690 1268 489 1172 601 1232 b 724 1188 710 1251 724 1221 b 640 1089 724 1142 690 1110 l 417 993 m 43 -1 b 36 33 38 8 36 24 b 83 96 36 60 47 82 l 132 114 l 132 789 l 38 808 b 394 921 13 875 63 921 b 842 617 690 921 842 789 b 665 357 842 479 760 392 b 811 189 710 296 775 225 b 981 58 867 133 918 94 b 803 -43 964 7 896 -43 b 560 128 697 -43 633 10 l 453 297 b 372 301 426 297 399 299 l 372 111 l 478 86 b 396 -1 485 36 457 -1 b 224 1 357 -1 279 1 b 43 -1 142 1 79 0 m 606 581 b 372 799 606 688 525 783 l 372 397 b 606 581 533 393 606 450 "},"ŕ":{"ha":575,"x_min":0,"x_max":0,"o":"m 311 757 b 317 893 274 774 268 847 b 533 1044 371 943 451 996 b 572 961 554 1029 572 999 b 494 851 572 908 543 876 l 311 757 m 493 88 b 408 0 493 32 471 0 b 190 3 369 0 246 3 b 35 0 108 3 35 0 b 29 32 31 11 29 22 b 75 90 29 58 42 78 l 122 108 l 122 531 l 28 543 b 22 575 24 554 22 565 b 99 640 22 607 40 632 l 350 678 l 350 518 b 489 675 386 626 425 675 b 585 557 542 675 585 631 b 531 400 585 494 568 442 b 413 425 493 417 456 425 b 350 399 386 425 365 415 l 350 111 l 493 88 "},"Ř":{"ha":964,"x_min":0,"x_max":0,"o":"m 428 983 b 240 1107 353 1022 264 1083 b 247 1272 182 1169 192 1240 l 444 1147 l 613 1267 b 629 1135 664 1250 679 1186 b 428 983 588 1092 501 1028 m 43 -1 b 36 33 38 8 36 24 b 83 96 36 60 47 82 l 132 114 l 132 789 l 38 808 b 394 921 13 875 63 921 b 842 617 690 921 842 789 b 665 357 842 479 760 392 b 811 189 710 296 775 225 b 981 58 867 133 918 94 b 803 -43 964 7 896 -43 b 560 128 697 -43 633 10 l 453 297 b 372 301 426 297 399 299 l 372 111 l 478 86 b 396 -1 485 36 457 -1 b 224 1 357 -1 279 1 b 43 -1 142 1 79 0 m 606 581 b 372 799 606 688 525 783 l 372 397 b 606 581 533 393 606 450 "},"ř":{"ha":575,"x_min":0,"x_max":0,"o":"m 342 758 b 165 890 271 799 188 864 b 171 1063 110 957 118 1028 l 356 928 l 514 1057 b 531 921 564 1039 578 975 b 342 758 492 875 410 806 m 493 88 b 408 0 493 32 471 0 b 190 3 369 0 246 3 b 35 0 108 3 35 0 b 29 32 31 11 29 22 b 75 90 29 58 42 78 l 122 108 l 122 531 l 28 543 b 22 575 24 554 22 565 b 99 640 22 607 40 632 l 350 678 l 350 518 b 489 675 386 626 425 675 b 585 557 542 675 585 631 b 531 400 585 494 568 442 b 413 425 493 417 456 425 b 350 399 386 425 365 415 l 350 111 l 493 88 "},"Ŗ":{"ha":964,"x_min":0,"x_max":0,"o":"m 43 -1 b 36 33 38 8 36 24 b 83 96 36 60 47 82 l 132 114 l 132 789 l 38 808 b 394 921 13 875 63 921 b 842 617 690 921 842 789 b 665 357 842 479 760 392 b 811 189 710 296 775 225 b 981 58 867 133 918 94 b 803 -43 964 7 896 -43 b 560 128 697 -43 633 10 l 453 297 b 372 301 426 297 399 299 l 372 111 l 478 86 b 396 -1 485 36 457 -1 b 224 1 357 -1 279 1 b 43 -1 142 1 79 0 m 606 581 b 372 799 606 688 525 783 l 372 397 b 606 581 533 393 606 450 m 400 -475 b 358 -429 372 -475 356 -457 b 453 -304 407 -404 453 -365 b 357 -210 453 -260 410 -221 b 468 -75 350 -136 386 -75 b 601 -247 556 -75 601 -142 b 400 -475 601 -368 506 -475 "},"ŗ":{"ha":575,"x_min":0,"x_max":0,"o":"m 493 88 b 408 0 493 32 471 0 b 190 3 369 0 246 3 b 35 0 108 3 35 0 b 29 32 31 11 29 22 b 75 90 29 58 42 78 l 122 108 l 122 531 l 28 543 b 22 575 24 554 22 565 b 99 640 22 607 40 632 l 350 678 l 350 518 b 489 675 386 626 425 675 b 585 557 542 675 585 631 b 531 400 585 494 568 442 b 413 425 493 417 456 425 b 350 399 386 425 365 415 l 350 111 l 493 88 m 190 -475 b 149 -429 163 -475 146 -457 b 243 -304 197 -404 243 -365 b 147 -210 243 -260 200 -221 b 258 -75 140 -136 176 -75 b 392 -247 346 -75 392 -142 b 190 -475 392 -368 296 -475 "},"Ś":{"ha":769,"x_min":0,"x_max":0,"o":"m 386 993 b 401 1125 351 1013 354 1085 b 660 1268 458 1172 571 1232 b 693 1188 679 1251 693 1221 b 610 1089 693 1142 660 1110 l 386 993 m 440 925 b 693 868 529 925 632 900 l 663 696 b 549 629 653 638 611 613 l 553 782 b 431 814 524 803 478 814 b 286 704 333 814 286 767 b 406 578 286 651 313 617 l 506 536 b 728 275 678 464 728 393 b 367 -22 728 110 597 -22 b 35 150 144 -22 35 49 b 182 292 35 222 61 281 b 381 97 210 161 282 97 b 503 197 471 97 503 144 b 313 363 503 251 461 288 l 243 397 b 79 632 113 463 79 542 b 440 925 79 804 186 925 "},"ś":{"ha":631,"x_min":0,"x_max":0,"o":"m 308 757 b 314 893 271 774 265 847 b 531 1044 368 943 449 996 b 569 961 551 1029 569 999 b 492 851 569 908 540 876 l 308 757 m 546 515 b 426 460 538 456 481 438 l 426 549 b 340 564 401 558 371 564 b 258 514 279 564 258 540 b 322 446 258 486 268 467 l 407 414 b 593 217 544 360 593 310 b 315 -22 593 76 489 -22 b 38 132 122 -22 38 33 b 172 238 38 176 61 246 b 318 94 181 150 231 94 b 399 146 376 94 399 118 b 285 239 399 174 389 190 l 189 283 b 74 446 115 318 74 363 b 367 671 74 560 151 671 b 560 631 433 671 503 657 "},"Ŝ":{"ha":769,"x_min":0,"x_max":0,"o":"m 417 1275 b 604 1151 492 1236 581 1175 b 597 986 663 1089 653 1018 l 400 1111 l 232 992 b 215 1124 181 1008 165 1072 b 417 1275 257 1167 343 1231 m 440 925 b 693 868 529 925 632 900 l 663 696 b 549 629 653 638 611 613 l 553 782 b 431 814 524 803 478 814 b 286 704 333 814 286 767 b 406 578 286 651 313 617 l 506 536 b 728 275 678 464 728 393 b 367 -22 728 110 597 -22 b 35 150 144 -22 35 49 b 182 292 35 222 61 281 b 381 97 210 161 282 97 b 503 197 471 97 503 144 b 313 363 503 251 461 288 l 243 397 b 79 632 113 463 79 542 b 440 925 79 804 186 925 "},"ŝ":{"ha":631,"x_min":0,"x_max":0,"o":"m 331 1067 b 507 935 401 1026 485 961 b 501 763 563 868 554 797 l 317 897 l 158 768 b 142 904 108 786 94 850 b 331 1067 181 950 263 1019 m 546 515 b 426 460 538 456 481 438 l 426 549 b 340 564 401 558 371 564 b 258 514 279 564 258 540 b 322 446 258 486 268 467 l 407 414 b 593 217 544 360 593 310 b 315 -22 593 76 489 -22 b 38 132 122 -22 38 33 b 172 238 38 176 61 246 b 318 94 181 150 231 94 b 399 146 376 94 399 118 b 285 239 399 174 389 190 l 189 283 b 74 446 115 318 74 363 b 367 671 74 560 151 671 b 560 631 433 671 503 657 "},"Š":{"ha":769,"x_min":0,"x_max":0,"o":"m 411 983 b 224 1107 336 1022 247 1083 b 231 1272 165 1169 175 1240 l 428 1147 l 596 1267 b 613 1135 647 1250 663 1186 b 411 983 571 1092 485 1028 m 440 925 b 693 868 529 925 632 900 l 663 696 b 549 629 653 638 611 613 l 553 782 b 431 814 524 803 478 814 b 286 704 333 814 286 767 b 406 578 286 651 313 617 l 506 536 b 728 275 678 464 728 393 b 367 -22 728 110 597 -22 b 35 150 144 -22 35 49 b 182 292 35 222 61 281 b 381 97 210 161 282 97 b 503 197 471 97 503 144 b 313 363 503 251 461 288 l 243 397 b 79 632 113 463 79 542 b 440 925 79 804 186 925 "},"š":{"ha":631,"x_min":0,"x_max":0,"o":"m 338 758 b 161 890 267 799 183 864 b 167 1063 106 957 114 1028 l 351 928 l 510 1057 b 526 921 560 1039 574 975 b 338 758 488 875 406 806 m 546 515 b 426 460 538 456 481 438 l 426 549 b 340 564 401 558 371 564 b 258 514 279 564 258 540 b 322 446 258 486 268 467 l 407 414 b 593 217 544 360 593 310 b 315 -22 593 76 489 -22 b 38 132 122 -22 38 33 b 172 238 38 176 61 246 b 318 94 181 150 231 94 b 399 146 376 94 399 118 b 285 239 399 174 389 190 l 189 283 b 74 446 115 318 74 363 b 367 671 74 560 151 671 b 560 631 433 671 503 657 "},"Ş":{"ha":769,"x_min":0,"x_max":0,"o":"m 440 925 b 693 868 529 925 632 900 l 663 696 b 549 629 653 638 611 613 l 553 782 b 431 814 524 803 478 814 b 286 704 333 814 286 767 b 406 578 286 651 313 617 l 506 536 b 728 275 678 464 728 393 b 411 -21 728 121 614 -6 l 400 -56 b 549 -181 511 -74 549 -108 b 346 -343 549 -262 476 -343 b 225 -265 260 -343 225 -307 b 254 -203 225 -240 238 -215 b 353 -250 279 -232 317 -250 b 404 -210 382 -250 404 -235 b 328 -149 404 -183 382 -171 b 321 -21 299 -136 279 -106 b 35 150 129 -12 35 56 b 182 292 35 222 61 281 b 381 97 210 161 282 97 b 503 197 471 97 503 144 b 313 363 503 251 461 288 l 243 397 b 79 632 113 463 79 542 b 440 925 79 804 186 925 "},"ş":{"ha":631,"x_min":0,"x_max":0,"o":"m 546 515 b 426 460 538 456 481 438 l 426 549 b 340 564 401 558 371 564 b 258 514 279 564 258 540 b 322 446 258 486 268 467 l 407 414 b 593 217 544 360 593 310 b 325 -22 593 79 493 -18 l 315 -56 b 464 -181 426 -74 464 -108 b 261 -343 464 -262 392 -343 b 140 -265 175 -343 140 -307 b 169 -203 140 -240 153 -215 b 268 -250 194 -232 232 -250 b 319 -210 297 -250 319 -235 b 243 -149 319 -183 297 -171 b 236 -18 214 -136 194 -104 b 38 132 99 -6 38 47 b 172 238 38 176 61 246 b 318 94 181 150 231 94 b 399 146 376 94 399 118 b 285 239 399 174 389 190 l 189 283 b 74 446 115 318 74 363 b 367 671 74 560 151 671 b 560 631 433 671 503 657 "},"Ș":{"ha":769,"x_min":0,"x_max":0,"o":"m 440 925 b 693 868 529 925 632 900 l 663 696 b 549 629 653 638 611 613 l 553 782 b 431 814 524 803 478 814 b 286 704 333 814 286 767 b 406 578 286 651 313 617 l 506 536 b 728 275 678 464 728 393 b 367 -22 728 110 597 -22 b 35 150 144 -22 35 49 b 182 292 35 222 61 281 b 381 97 210 161 282 97 b 503 197 471 97 503 144 b 313 363 503 251 461 288 l 243 397 b 79 632 113 463 79 542 b 440 925 79 804 186 925 m 299 -475 b 257 -429 271 -475 254 -457 b 351 -304 306 -404 351 -365 b 256 -210 351 -260 308 -221 b 367 -75 249 -136 285 -75 b 500 -247 454 -75 500 -142 b 299 -475 500 -368 404 -475 "},"ș":{"ha":631,"x_min":0,"x_max":0,"o":"m 546 515 b 426 460 538 456 481 438 l 426 549 b 340 564 401 558 371 564 b 258 514 279 564 258 540 b 322 446 258 486 268 467 l 407 414 b 593 217 544 360 593 310 b 315 -22 593 76 489 -22 b 38 132 122 -22 38 33 b 172 238 38 176 61 246 b 318 94 181 150 231 94 b 399 146 376 94 399 118 b 285 239 399 174 389 190 l 189 283 b 74 446 115 318 74 363 b 367 671 74 560 151 671 b 560 631 433 671 503 657 m 236 -475 b 194 -429 208 -475 192 -457 b 289 -304 243 -404 289 -365 b 193 -210 289 -260 246 -221 b 304 -75 186 -136 222 -75 b 438 -247 392 -75 438 -142 b 236 -475 438 -368 342 -475 "},"ẞ":{"ha":1054,"x_min":0,"x_max":0,"o":"m 649 738 b 478 803 608 772 536 803 b 364 640 378 803 364 758 l 364 113 l 444 88 b 363 0 451 38 424 0 b 201 3 324 0 257 3 b 33 0 119 3 33 0 b 28 31 29 10 28 21 b 75 93 28 57 39 79 l 124 113 l 124 565 b 500 925 124 829 313 925 b 811 774 663 925 811 874 b 779 674 811 740 800 711 l 722 568 b 1026 281 906 533 1026 460 b 717 -21 1026 101 899 -21 b 483 149 536 -21 483 50 b 633 272 483 206 526 286 b 731 93 629 179 656 93 b 818 193 785 93 818 140 b 513 419 818 300 728 379 "},"ß":{"ha":933,"x_min":0,"x_max":0,"o":"m 118 642 b 465 1017 118 856 201 1017 b 778 807 625 1017 778 946 b 724 676 778 764 765 726 b 658 575 669 611 658 600 b 776 461 658 547 674 535 b 906 240 871 393 906 319 b 631 -19 906 88 788 -19 b 444 90 504 -19 444 25 b 494 192 444 132 467 171 b 628 113 533 146 585 113 b 688 176 661 113 688 132 b 575 328 688 215 664 250 b 474 496 489 404 474 439 b 531 633 474 535 490 569 b 581 767 567 690 581 722 b 440 892 581 840 517 892 b 346 781 381 892 346 853 l 346 110 l 421 88 b 336 0 421 32 399 0 b 181 3 297 0 236 3 b 31 0 99 3 31 0 b 25 32 26 11 25 22 b 71 90 25 58 38 78 l 118 108 l 118 642 "},"Ť":{"ha":860,"x_min":0,"x_max":0,"o":"m 439 983 b 251 1107 364 1022 275 1083 b 258 1272 193 1169 203 1240 l 456 1147 l 624 1267 b 640 1135 675 1250 690 1186 b 439 983 599 1092 513 1028 m 551 113 l 685 88 b 603 0 692 38 664 0 b 389 3 564 0 444 3 b 188 0 307 3 188 0 b 233 90 172 39 186 76 l 311 113 l 311 788 l 160 788 l 125 674 b 15 626 108 619 58 603 l 36 906 l 824 906 l 844 639 b 728 676 803 610 746 615 l 694 788 l 551 788 "},"ť":{"ha":653,"x_min":0,"x_max":0,"o":"m 444 761 b 401 1088 443 865 425 1008 b 508 1129 428 1114 463 1129 b 613 1019 574 1129 613 1088 b 539 754 613 944 579 835 b 444 761 514 758 476 761 m 485 142 b 504 103 499 132 504 118 b 299 -19 504 42 428 -19 b 106 168 175 -19 106 25 b 114 526 106 281 110 451 l 15 540 b 11 571 13 551 11 561 b 81 640 11 613 36 635 l 119 646 l 126 792 b 344 857 182 824 263 849 l 340 650 l 492 650 b 500 608 497 635 500 621 b 383 526 500 558 461 526 l 338 526 l 338 197 b 404 119 338 133 358 119 b 485 142 432 119 467 131 "},"Ţ":{"ha":860,"x_min":0,"x_max":0,"o":"m 551 113 l 685 88 b 603 0 692 38 664 0 b 464 1 578 0 518 1 l 447 -56 b 596 -181 558 -74 596 -108 b 393 -343 596 -262 524 -343 b 272 -265 307 -343 272 -307 b 301 -203 272 -240 285 -215 b 400 -250 326 -232 364 -250 b 451 -210 429 -250 451 -235 b 375 -149 451 -183 429 -171 b 381 3 343 -135 322 -100 b 188 0 299 3 188 0 b 233 90 172 39 186 76 l 311 113 l 311 788 l 160 788 l 125 674 b 15 626 108 619 58 603 l 36 906 l 824 906 l 844 639 b 728 676 803 610 746 615 l 694 788 l 551 788 "},"ţ":{"ha":513,"x_min":0,"x_max":0,"o":"m 485 142 b 504 103 499 132 504 118 b 304 -19 504 42 428 -19 l 293 -56 b 442 -181 404 -74 442 -108 b 239 -343 442 -262 369 -343 b 118 -265 153 -343 118 -307 b 147 -203 118 -240 131 -215 b 246 -250 172 -232 210 -250 b 297 -210 275 -250 297 -235 b 221 -149 297 -183 275 -171 b 218 -11 190 -136 171 -103 b 106 168 146 8 106 60 b 114 526 106 281 110 451 l 15 540 b 11 571 13 551 11 561 b 81 640 11 613 36 635 l 119 646 l 126 792 b 344 857 182 824 263 849 l 340 650 l 492 650 b 500 608 497 635 500 621 b 383 526 500 558 461 526 l 338 526 l 338 197 b 404 119 338 133 358 119 b 485 142 432 119 467 131 "},"Ț":{"ha":850,"x_min":0,"x_max":0,"o":"m 551 113 l 685 88 b 603 0 692 38 664 0 b 389 3 564 0 444 3 b 188 0 307 3 188 0 b 233 90 172 39 186 76 l 311 113 l 311 788 l 160 788 l 125 674 b 15 626 108 619 58 603 l 36 906 l 824 906 l 844 639 b 728 676 803 610 746 615 l 694 788 l 551 788 m 351 -476 b 310 -431 324 -476 307 -458 b 404 -306 358 -406 404 -367 b 308 -211 404 -261 361 -222 b 419 -76 301 -137 338 -76 b 553 -249 507 -76 553 -143 b 351 -476 553 -369 457 -476 "},"ț":{"ha":513,"x_min":0,"x_max":0,"o":"m 485 142 b 504 103 499 132 504 118 b 299 -19 504 42 428 -19 b 106 168 175 -19 106 25 b 114 526 106 281 110 451 l 15 540 b 11 571 13 551 11 561 b 81 640 11 613 36 635 l 119 646 l 126 792 b 344 857 182 824 263 849 l 340 650 l 492 650 b 500 608 497 635 500 621 b 383 526 500 558 461 526 l 338 526 l 338 197 b 404 119 338 133 358 119 b 485 142 432 119 467 131 m 204 -475 b 163 -429 176 -475 160 -457 b 257 -304 211 -404 257 -365 b 161 -210 257 -260 214 -221 b 272 -75 154 -136 190 -75 b 406 -247 360 -75 406 -142 b 204 -475 406 -368 310 -475 "},"Ŧ":{"ha":860,"x_min":0,"x_max":0,"o":"m 693 474 b 693 361 707 444 711 389 l 551 361 l 551 113 l 685 88 b 603 0 692 38 664 0 b 389 3 564 0 444 3 b 188 0 307 3 188 0 b 233 90 172 39 186 76 l 311 113 l 311 361 l 171 361 b 171 474 157 388 157 446 l 311 474 l 311 788 l 160 788 l 125 674 b 15 626 108 619 58 603 l 36 906 l 824 906 l 844 639 b 728 676 803 610 746 615 l 694 788 l 551 788 l 551 474 l 693 474 "},"ŧ":{"ha":513,"x_min":0,"x_max":0,"o":"m 485 142 b 504 103 499 132 504 118 b 299 -19 504 42 428 -19 b 106 168 175 -19 106 25 b 107 301 106 207 106 254 l 13 315 b 8 346 10 326 8 336 b 78 415 8 388 33 410 l 110 419 b 114 529 111 464 113 503 l 15 543 b 11 574 13 554 11 564 b 81 643 11 615 36 638 l 119 649 l 126 792 b 344 857 182 824 263 849 l 340 653 l 492 654 b 500 613 497 639 500 625 b 383 529 500 563 461 529 l 338 529 l 338 424 l 489 426 b 497 385 494 411 497 397 b 381 301 497 335 458 301 b 338 301 378 301 361 301 l 338 197 b 404 119 338 133 358 119 b 485 142 432 119 467 131 "},"Þ":{"ha":850,"x_min":0,"x_max":0,"o":"m 371 761 b 822 493 678 801 822 686 b 371 156 822 218 599 133 l 371 115 l 504 94 b 422 4 511 44 483 4 b 222 6 383 4 278 6 b 42 3 140 6 78 4 b 35 38 36 13 35 28 b 82 100 35 64 46 86 l 131 118 l 131 793 l 35 818 b 117 906 28 868 56 906 l 463 906 b 422 811 478 867 468 829 l 371 790 m 588 439 b 371 654 588 549 526 639 l 371 256 b 588 439 532 250 588 304 "},"þ":{"ha":829,"x_min":0,"x_max":0,"o":"m 479 -231 b 394 -318 479 -286 457 -318 b 176 -315 356 -318 232 -315 b 24 -318 94 -315 24 -318 b 18 -286 19 -307 18 -296 b 64 -228 18 -260 31 -240 l 111 -210 l 111 864 l 17 876 b 11 908 13 888 11 899 b 88 974 11 940 29 965 l 339 1011 l 339 585 b 528 671 390 632 442 671 b 794 365 661 671 794 571 b 422 -19 794 132 669 -19 b 339 -10 394 -19 364 -15 l 339 -207 l 479 -231 m 339 97 b 406 89 356 92 381 89 b 558 314 499 89 558 153 b 376 525 558 446 482 525 b 339 524 363 525 353 525 "},"Ù":{"ha":967,"x_min":0,"x_max":0,"o":"m 325 1089 b 242 1188 275 1110 242 1142 b 275 1268 242 1221 256 1251 b 533 1125 364 1232 476 1172 b 549 993 581 1085 583 1013 m 368 383 b 561 135 368 186 436 135 b 743 385 688 135 743 218 l 743 789 l 613 814 b 694 906 606 864 633 906 l 968 906 b 924 815 983 867 967 835 l 879 794 l 879 400 b 490 -22 879 125 736 -22 b 128 331 247 -22 128 76 l 128 793 l 32 818 b 114 906 25 868 53 906 l 460 906 b 419 811 475 867 465 829 l 368 790 "},"ù":{"ha":835,"x_min":0,"x_max":0,"o":"m 290 851 b 213 961 242 876 213 908 b 251 1044 213 999 231 1029 b 468 893 333 996 414 943 b 474 757 517 847 511 774 m 846 96 b 756 -3 846 38 818 3 l 515 -24 l 515 99 b 288 -22 442 18 374 -22 b 100 203 176 -22 100 40 l 100 531 l 6 543 b 0 575 1 554 0 565 b 76 640 0 607 18 632 l 328 678 l 328 292 b 439 156 328 186 367 156 b 515 168 463 156 492 158 l 515 531 l 421 543 b 415 575 417 554 415 565 b 492 640 415 607 433 632 l 743 678 l 743 108 l 846 96 "},"Ú":{"ha":967,"x_min":0,"x_max":0,"o":"m 536 993 b 551 1125 501 1013 504 1085 b 810 1268 608 1172 721 1232 b 843 1188 829 1251 843 1221 b 760 1089 843 1142 810 1110 l 536 993 m 368 383 b 561 135 368 186 436 135 b 743 385 688 135 743 218 l 743 789 l 613 814 b 694 906 606 864 633 906 l 968 906 b 924 815 983 867 967 835 l 879 794 l 879 400 b 490 -22 879 125 736 -22 b 128 331 247 -22 128 76 l 128 793 l 32 818 b 114 906 25 868 53 906 l 460 906 b 419 811 475 867 465 829 l 368 790 "},"ú":{"ha":835,"x_min":0,"x_max":0,"o":"m 388 757 b 393 893 350 774 344 847 b 610 1044 447 943 528 996 b 649 961 631 1029 649 999 b 571 851 649 908 619 876 l 388 757 m 846 96 b 756 -3 846 38 818 3 l 515 -24 l 515 99 b 288 -22 442 18 374 -22 b 100 203 176 -22 100 40 l 100 531 l 6 543 b 0 575 1 554 0 565 b 76 640 0 607 18 632 l 328 678 l 328 292 b 439 156 328 186 367 156 b 515 168 463 156 492 158 l 515 531 l 421 543 b 415 575 417 554 415 565 b 492 640 415 607 433 632 l 743 678 l 743 108 l 846 96 "},"Û":{"ha":967,"x_min":0,"x_max":0,"o":"m 558 1275 b 746 1151 633 1236 722 1175 b 739 986 804 1089 794 1018 l 542 1111 l 374 992 b 357 1124 322 1008 307 1072 b 558 1275 399 1167 485 1231 m 368 383 b 561 135 368 186 436 135 b 743 385 688 135 743 218 l 743 789 l 613 814 b 694 906 606 864 633 906 l 968 906 b 924 815 983 867 967 835 l 879 794 l 879 400 b 490 -22 879 125 736 -22 b 128 331 247 -22 128 76 l 128 793 l 32 818 b 114 906 25 868 53 906 l 460 906 b 419 811 475 867 465 829 l 368 790 "},"û":{"ha":835,"x_min":0,"x_max":0,"o":"m 432 1067 b 608 935 503 1026 586 961 b 603 763 664 868 656 797 l 418 897 l 260 768 b 243 904 210 786 196 850 b 432 1067 282 950 364 1019 m 846 96 b 756 -3 846 38 818 3 l 515 -24 l 515 99 b 288 -22 442 18 374 -22 b 100 203 176 -22 100 40 l 100 531 l 6 543 b 0 575 1 554 0 565 b 76 640 0 607 18 632 l 328 678 l 328 292 b 439 156 328 186 367 156 b 515 168 463 156 492 158 l 515 531 l 421 543 b 415 575 417 554 415 565 b 492 640 415 607 433 632 l 743 678 l 743 108 l 846 96 "},"Ũ":{"ha":967,"x_min":0,"x_max":0,"o":"m 660 1015 b 431 1093 569 1015 499 1093 b 331 1010 379 1093 347 1061 b 293 1075 308 1013 293 1036 b 451 1226 293 1160 361 1226 b 678 1160 543 1226 611 1160 b 781 1236 728 1160 758 1190 b 815 1174 800 1235 815 1213 b 660 1015 815 1090 749 1015 m 368 383 b 561 135 368 186 436 135 b 743 385 688 135 743 218 l 743 789 l 613 814 b 694 906 606 864 633 906 l 968 906 b 924 815 983 867 967 835 l 879 794 l 879 400 b 490 -22 879 125 736 -22 b 128 331 247 -22 128 76 l 128 793 l 32 818 b 114 906 25 868 53 906 l 460 906 b 419 811 475 867 465 829 l 368 790 "},"ũ":{"ha":835,"x_min":0,"x_max":0,"o":"m 525 808 b 324 886 435 808 392 886 b 224 803 272 886 240 854 b 186 868 201 806 186 829 b 344 1019 186 953 254 1019 b 543 953 436 1019 476 953 b 646 1029 593 953 624 983 b 681 967 665 1028 681 1006 b 525 808 681 883 614 808 m 846 96 b 756 -3 846 38 818 3 l 515 -24 l 515 99 b 288 -22 442 18 374 -22 b 100 203 176 -22 100 40 l 100 531 l 6 543 b 0 575 1 554 0 565 b 76 640 0 607 18 632 l 328 678 l 328 292 b 439 156 328 186 367 156 b 515 168 463 156 492 158 l 515 531 l 421 543 b 415 575 417 554 415 565 b 492 640 415 607 433 632 l 743 678 l 743 108 l 846 96 "},"Ü":{"ha":967,"x_min":0,"x_max":0,"o":"m 472 1125 b 363 1013 472 1064 436 1013 b 261 1114 296 1013 261 1051 b 371 1225 261 1172 297 1225 b 472 1125 435 1225 472 1178 m 826 1125 b 717 1013 826 1064 790 1013 b 615 1114 650 1013 615 1051 b 725 1225 615 1172 651 1225 b 826 1125 789 1225 826 1178 m 368 383 b 561 135 368 186 436 135 b 743 385 688 135 743 218 l 743 789 l 613 814 b 694 906 606 864 633 906 l 968 906 b 924 815 983 867 967 835 l 879 794 l 879 400 b 490 -22 879 125 736 -22 b 128 331 247 -22 128 76 l 128 793 l 32 818 b 114 906 25 868 53 906 l 460 906 b 419 811 475 867 465 829 l 368 790 "},"ü":{"ha":835,"x_min":0,"x_max":0,"o":"m 689 911 b 579 799 689 850 653 799 b 478 900 513 799 478 838 b 588 1011 478 958 514 1011 b 689 911 651 1011 689 964 m 381 911 b 271 799 381 850 344 799 b 169 900 204 799 169 838 b 279 1011 169 958 206 1011 b 381 911 343 1011 381 964 m 846 96 b 756 -3 846 38 818 3 l 515 -24 l 515 99 b 288 -22 442 18 374 -22 b 100 203 176 -22 100 40 l 100 531 l 6 543 b 0 575 1 554 0 565 b 76 640 0 607 18 632 l 328 678 l 328 292 b 439 156 328 186 367 156 b 515 168 463 156 492 158 l 515 531 l 421 543 b 415 575 417 554 415 565 b 492 640 415 607 433 632 l 743 678 l 743 108 l 846 96 "},"Ū":{"ha":967,"x_min":0,"x_max":0,"o":"m 789 1175 b 789 1063 803 1146 807 1090 l 306 1063 b 306 1175 292 1089 292 1147 l 789 1175 m 368 383 b 561 135 368 186 436 135 b 743 385 688 135 743 218 l 743 789 l 613 814 b 694 906 606 864 633 906 l 968 906 b 924 815 983 867 967 835 l 879 794 l 879 400 b 490 -22 879 125 736 -22 b 128 331 247 -22 128 76 l 128 793 l 32 818 b 114 906 25 868 53 906 l 460 906 b 419 811 475 867 465 829 l 368 790 "},"ū":{"ha":835,"x_min":0,"x_max":0,"o":"m 667 968 b 667 856 681 939 685 883 l 208 856 b 208 968 194 882 194 940 l 667 968 m 846 96 b 756 -3 846 38 818 3 l 515 -24 l 515 99 b 288 -22 442 18 374 -22 b 100 203 176 -22 100 40 l 100 531 l 6 543 b 0 575 1 554 0 565 b 76 640 0 607 18 632 l 328 678 l 328 292 b 439 156 328 186 367 156 b 515 168 463 156 492 158 l 515 531 l 421 543 b 415 575 417 554 415 565 b 492 640 415 607 433 632 l 743 678 l 743 108 l 846 96 "},"Ŭ":{"ha":967,"x_min":0,"x_max":0,"o":"m 311 1192 b 351 1260 311 1224 333 1254 b 551 1154 397 1201 461 1154 b 756 1257 643 1154 703 1193 b 779 1208 769 1249 779 1226 b 540 1008 779 1100 672 1008 b 311 1192 415 1008 311 1081 m 368 383 b 561 135 368 186 436 135 b 743 385 688 135 743 218 l 743 789 l 613 814 b 694 906 606 864 633 906 l 968 906 b 924 815 983 867 967 835 l 879 794 l 879 400 b 490 -22 879 125 736 -22 b 128 331 247 -22 128 76 l 128 793 l 32 818 b 114 906 25 868 53 906 l 460 906 b 419 811 475 867 465 829 l 368 790 "},"ŭ":{"ha":835,"x_min":0,"x_max":0,"o":"m 204 976 b 244 1049 204 1011 226 1043 b 442 933 289 988 353 933 b 643 1046 532 933 592 978 b 667 994 657 1038 667 1014 b 431 790 667 881 561 790 b 204 976 307 790 204 860 m 846 96 b 756 -3 846 38 818 3 l 515 -24 l 515 99 b 288 -22 442 18 374 -22 b 100 203 176 -22 100 40 l 100 531 l 6 543 b 0 575 1 554 0 565 b 76 640 0 607 18 632 l 328 678 l 328 292 b 439 156 328 186 367 156 b 515 168 463 156 492 158 l 515 531 l 421 543 b 415 575 417 554 415 565 b 492 640 415 607 433 632 l 743 678 l 743 108 l 846 96 "},"Ů":{"ha":967,"x_min":0,"x_max":0,"o":"m 407 1113 b 569 1253 407 1196 471 1253 b 714 1133 653 1253 714 1213 b 550 986 714 1042 650 986 b 407 1113 460 986 407 1024 m 608 1118 b 561 1174 608 1147 599 1174 b 508 1117 528 1174 508 1157 b 557 1065 508 1089 521 1065 b 608 1118 592 1065 608 1086 m 368 383 b 561 135 368 186 436 135 b 743 385 688 135 743 218 l 743 789 l 613 814 b 694 906 606 864 633 906 l 968 906 b 924 815 983 867 967 835 l 879 794 l 879 400 b 490 -22 879 125 736 -22 b 128 331 247 -22 128 76 l 128 793 l 32 818 b 114 906 25 868 53 906 l 460 906 b 419 811 475 867 465 829 l 368 790 "},"ů":{"ha":835,"x_min":0,"x_max":0,"o":"m 288 914 b 446 1057 288 999 350 1057 b 585 932 526 1057 585 1017 b 425 781 585 838 524 781 b 288 914 339 781 288 821 m 482 918 b 436 976 482 949 472 976 b 386 917 404 976 386 958 b 432 864 386 888 397 864 b 482 918 465 864 482 885 m 846 96 b 756 -3 846 38 818 3 l 515 -24 l 515 99 b 288 -22 442 18 374 -22 b 100 203 176 -22 100 40 l 100 531 l 6 543 b 0 575 1 554 0 565 b 76 640 0 607 18 632 l 328 678 l 328 292 b 439 156 328 186 367 156 b 515 168 463 156 492 158 l 515 531 l 421 543 b 415 575 417 554 415 565 b 492 640 415 607 433 632 l 743 678 l 743 108 l 846 96 "},"Ű":{"ha":967,"x_min":0,"x_max":0,"o":"m 628 993 b 643 1125 593 1013 596 1085 b 901 1268 700 1172 813 1232 b 935 1188 921 1251 935 1221 b 851 1089 935 1142 901 1110 l 628 993 m 281 993 b 296 1125 246 1013 249 1085 b 554 1268 353 1172 465 1232 b 588 1188 574 1251 588 1221 b 504 1089 588 1142 554 1110 l 281 993 m 368 383 b 561 135 368 186 436 135 b 743 385 688 135 743 218 l 743 789 l 613 814 b 694 906 606 864 633 906 l 968 906 b 924 815 983 867 967 835 l 879 794 l 879 400 b 490 -22 879 125 736 -22 b 128 331 247 -22 128 76 l 128 793 l 32 818 b 114 906 25 868 53 906 l 460 906 b 419 811 475 867 465 829 l 368 790 "},"ű":{"ha":835,"x_min":0,"x_max":0,"o":"m 782 961 b 704 851 782 908 753 876 l 521 757 b 526 893 483 774 478 847 b 743 1044 581 943 661 996 b 782 961 764 1029 782 999 m 196 757 b 201 893 158 774 153 847 b 418 1044 256 943 336 996 b 457 961 439 1029 457 999 b 379 851 457 908 428 876 l 196 757 m 846 96 b 756 -3 846 38 818 3 l 515 -24 l 515 99 b 288 -22 442 18 374 -22 b 100 203 176 -22 100 40 l 100 531 l 6 543 b 0 575 1 554 0 565 b 76 640 0 607 18 632 l 328 678 l 328 292 b 439 156 328 186 367 156 b 515 168 463 156 492 158 l 515 531 l 421 543 b 415 575 417 554 415 565 b 492 640 415 607 433 632 l 743 678 l 743 108 l 846 96 "},"Ụ":{"ha":967,"x_min":0,"x_max":0,"o":"m 368 383 b 561 135 368 186 436 135 b 743 385 688 135 743 218 l 743 789 l 613 814 b 694 906 606 864 633 906 l 968 906 b 924 815 983 867 967 835 l 879 794 l 879 400 b 490 -22 879 125 736 -22 b 128 331 247 -22 128 76 l 128 793 l 32 818 b 114 906 25 868 53 906 l 460 906 b 419 811 475 867 465 829 l 368 790 m 636 -225 b 515 -349 636 -292 597 -349 b 404 -237 442 -349 404 -306 b 525 -115 404 -172 444 -115 b 636 -225 594 -115 636 -167 "},"ụ":{"ha":835,"x_min":0,"x_max":0,"o":"m 846 96 b 756 -3 846 38 818 3 l 515 -24 l 515 99 b 288 -22 442 18 374 -22 b 100 203 176 -22 100 40 l 100 531 l 6 543 b 0 575 1 554 0 565 b 76 640 0 607 18 632 l 328 678 l 328 292 b 439 156 328 186 367 156 b 515 168 463 156 492 158 l 515 531 l 421 543 b 415 575 417 554 415 565 b 492 640 415 607 433 632 l 743 678 l 743 108 l 846 96 m 550 -225 b 429 -349 550 -292 511 -349 b 318 -237 356 -349 318 -306 b 439 -115 318 -172 358 -115 b 550 -225 508 -115 550 -167 "},"Ų":{"ha":967,"x_min":0,"x_max":0,"o":"m 700 -219 b 531 -343 700 -283 618 -343 b 382 -212 436 -343 382 -294 b 496 -22 382 -149 422 -83 l 490 -22 b 128 331 247 -22 128 76 l 128 793 l 32 818 b 114 906 25 868 53 906 l 460 906 b 419 811 475 867 465 829 l 368 790 l 368 383 b 561 135 368 186 436 135 b 743 385 688 135 743 218 l 743 789 l 613 814 b 694 906 606 864 633 906 l 968 906 b 924 815 983 867 967 835 l 879 794 l 879 400 b 653 4 879 193 797 58 b 544 -169 583 -65 544 -129 b 593 -214 544 -197 563 -214 b 681 -172 621 -214 653 -196 b 700 -219 690 -181 700 -197 "},"ų":{"ha":835,"x_min":0,"x_max":0,"o":"m 721 -219 b 551 -343 721 -283 639 -343 b 403 -212 457 -343 403 -294 b 515 -24 403 -149 442 -85 l 515 99 b 288 -22 442 18 374 -22 b 100 203 176 -22 100 40 l 100 531 l 6 543 b 0 575 1 554 0 565 b 76 640 0 607 18 632 l 328 678 l 328 292 b 439 156 328 186 367 156 b 515 168 463 156 492 158 l 515 531 l 421 543 b 415 575 417 554 415 565 b 492 640 415 607 433 632 l 743 678 l 743 108 l 846 96 b 756 -3 846 38 818 3 l 658 -11 b 565 -169 599 -75 565 -132 b 614 -214 565 -197 583 -214 b 701 -172 642 -214 674 -196 b 721 -219 711 -181 721 -197 "},"Ẁ":{"ha":1381,"x_min":0,"x_max":0,"o":"m 547 1089 b 464 1188 497 1110 464 1142 b 497 1268 464 1221 478 1251 b 756 1125 586 1232 699 1172 b 771 993 803 1085 806 1013 m 1079 149 b 832 -6 1039 18 992 -32 l 671 571 l 550 158 b 292 -6 506 10 443 -35 l 58 803 l 1 818 b 83 906 -6 868 22 906 l 429 906 b 389 811 444 867 435 829 l 338 790 l 474 289 l 636 900 l 838 921 l 1018 289 l 1140 803 l 1019 821 b 1094 906 1007 860 1039 906 l 1371 906 b 1275 783 1390 838 1354 779 "},"ẁ":{"ha":1081,"x_min":0,"x_max":0,"o":"m 439 851 b 361 961 390 876 361 908 b 400 1044 361 999 379 1029 b 617 893 482 996 563 943 b 622 757 665 847 660 774 m 1083 650 b 1017 540 1097 594 1065 549 l 901 169 b 651 -18 860 36 813 -18 l 529 357 l 461 135 b 242 -18 435 47 390 -18 l 49 544 l 11 551 b 92 650 -3 599 22 650 l 360 650 b 299 547 374 599 340 558 l 383 224 l 513 644 l 663 644 l 801 224 l 878 551 l 800 565 b 864 650 789 618 824 650 l 1083 650 "},"Ẃ":{"ha":1381,"x_min":0,"x_max":0,"o":"m 658 993 b 674 1125 624 1013 626 1085 b 932 1268 731 1172 843 1232 b 965 1188 951 1251 965 1221 b 882 1089 965 1142 932 1110 l 658 993 m 1079 149 b 832 -6 1039 18 992 -32 l 671 571 l 550 158 b 292 -6 506 10 443 -35 l 58 803 l 1 818 b 83 906 -6 868 22 906 l 429 906 b 389 811 444 867 435 829 l 338 790 l 474 289 l 636 900 l 838 921 l 1018 289 l 1140 803 l 1019 821 b 1094 906 1007 860 1039 906 l 1371 906 b 1275 783 1390 838 1354 779 "},"ẃ":{"ha":1081,"x_min":0,"x_max":0,"o":"m 546 757 b 551 893 508 774 503 847 b 768 1044 606 943 686 996 b 807 961 789 1029 807 999 b 729 851 807 908 778 876 l 546 757 m 1083 650 b 1017 540 1097 594 1065 549 l 901 169 b 651 -18 860 36 813 -18 l 529 357 l 461 135 b 242 -18 435 47 390 -18 l 49 544 l 11 551 b 92 650 -3 599 22 650 l 360 650 b 299 547 374 599 340 558 l 383 224 l 513 644 l 663 644 l 801 224 l 878 551 l 800 565 b 864 650 789 618 824 650 l 1083 650 "},"Ŵ":{"ha":1381,"x_min":0,"x_max":0,"o":"m 749 1275 b 936 1151 824 1236 913 1175 b 929 986 994 1089 985 1018 l 732 1111 l 564 992 b 547 1124 513 1008 497 1072 b 749 1275 589 1167 675 1231 m 1079 149 b 832 -6 1039 18 992 -32 l 671 571 l 550 158 b 292 -6 506 10 443 -35 l 58 803 l 1 818 b 83 906 -6 868 22 906 l 429 906 b 389 811 444 867 435 829 l 338 790 l 474 289 l 636 900 l 838 921 l 1018 289 l 1140 803 l 1019 821 b 1094 906 1007 860 1039 906 l 1371 906 b 1275 783 1390 838 1354 779 "},"ŵ":{"ha":1081,"x_min":0,"x_max":0,"o":"m 597 1067 b 774 935 668 1026 751 961 b 768 763 829 868 821 797 l 583 897 l 425 768 b 408 904 375 786 361 850 b 597 1067 447 950 529 1019 m 1083 650 b 1017 540 1097 594 1065 549 l 901 169 b 651 -18 860 36 813 -18 l 529 357 l 461 135 b 242 -18 435 47 390 -18 l 49 544 l 11 551 b 92 650 -3 599 22 650 l 360 650 b 299 547 374 599 340 558 l 383 224 l 513 644 l 663 644 l 801 224 l 878 551 l 800 565 b 864 650 789 618 824 650 l 1083 650 "},"Ẅ":{"ha":1381,"x_min":0,"x_max":0,"o":"m 657 1125 b 547 1013 657 1064 621 1013 b 446 1114 481 1013 446 1051 b 556 1225 446 1172 482 1225 b 657 1125 619 1225 657 1178 m 1011 1125 b 901 1013 1011 1064 975 1013 b 800 1114 835 1013 800 1051 b 910 1225 800 1172 836 1225 b 1011 1125 974 1225 1011 1178 m 1079 149 b 832 -6 1039 18 992 -32 l 671 571 l 550 158 b 292 -6 506 10 443 -35 l 58 803 l 1 818 b 83 906 -6 868 22 906 l 429 906 b 389 811 444 867 435 829 l 338 790 l 474 289 l 636 900 l 838 921 l 1018 289 l 1140 803 l 1019 821 b 1094 906 1007 860 1039 906 l 1371 906 b 1275 783 1390 838 1354 779 "},"ẅ":{"ha":1081,"x_min":0,"x_max":0,"o":"m 850 911 b 740 799 850 850 814 799 b 639 900 674 799 639 838 b 749 1011 639 958 675 1011 b 850 911 813 1011 850 964 m 542 911 b 432 799 542 850 506 799 b 331 900 365 799 331 838 b 440 1011 331 958 367 1011 b 542 911 504 1011 542 964 m 1083 650 b 1017 540 1097 594 1065 549 l 901 169 b 651 -18 860 36 813 -18 l 529 357 l 461 135 b 242 -18 435 47 390 -18 l 49 544 l 11 551 b 92 650 -3 599 22 650 l 360 650 b 299 547 374 599 340 558 l 383 224 l 513 644 l 663 644 l 801 224 l 878 551 l 800 565 b 864 650 789 618 824 650 l 1083 650 "},"Ỳ":{"ha":851,"x_min":0,"x_max":0,"o":"m 276 1089 b 193 1188 226 1110 193 1142 b 226 1268 193 1221 207 1251 b 485 1125 315 1232 428 1172 b 500 993 532 1085 535 1013 m 488 474 l 603 806 l 515 821 b 590 906 503 860 535 906 l 842 906 b 742 785 863 835 826 771 l 546 342 l 546 113 l 679 88 b 597 0 686 38 658 0 b 383 3 558 0 439 3 b 182 0 301 3 182 0 b 228 90 167 39 181 76 l 306 113 l 306 335 l 58 803 l 1 818 b 83 906 -6 868 22 906 l 429 906 b 389 811 444 867 435 829 l 338 790 "},"ỳ":{"ha":721,"x_min":0,"x_max":0,"o":"m 249 851 b 171 961 200 876 171 908 b 210 1044 171 999 189 1029 b 426 893 292 996 372 943 b 432 757 475 847 469 774 m 724 650 b 657 533 738 588 706 544 l 453 7 b 111 -346 343 -276 242 -346 b -21 -233 19 -346 -21 -296 b 1 -160 -21 -207 -12 -182 b 114 -182 28 -172 74 -182 b 282 -62 190 -182 232 -150 l 49 544 l 11 551 b 92 650 -3 599 22 650 l 360 650 b 299 547 374 599 340 558 l 413 213 l 515 544 l 431 560 b 499 650 417 617 454 650 l 724 650 "},"Ý":{"ha":851,"x_min":0,"x_max":0,"o":"m 422 993 b 438 1125 388 1013 390 1085 b 696 1268 494 1172 607 1232 b 729 1188 715 1251 729 1221 b 646 1089 729 1142 696 1110 l 422 993 m 488 474 l 603 806 l 515 821 b 590 906 503 860 535 906 l 842 906 b 742 785 863 835 826 771 l 546 342 l 546 113 l 679 88 b 597 0 686 38 658 0 b 383 3 558 0 439 3 b 182 0 301 3 182 0 b 228 90 167 39 181 76 l 306 113 l 306 335 l 58 803 l 1 818 b 83 906 -6 868 22 906 l 429 906 b 389 811 444 867 435 829 l 338 790 "},"ý":{"ha":721,"x_min":0,"x_max":0,"o":"m 389 757 b 394 893 351 774 346 847 b 611 1044 449 943 529 996 b 650 961 632 1029 650 999 b 572 851 650 908 621 876 l 389 757 m 724 650 b 657 533 738 588 706 544 l 453 7 b 111 -346 343 -276 242 -346 b -21 -233 19 -346 -21 -296 b 1 -160 -21 -207 -12 -182 b 114 -182 28 -172 74 -182 b 282 -62 190 -182 232 -150 l 49 544 l 11 551 b 92 650 -3 599 22 650 l 360 650 b 299 547 374 599 340 558 l 413 213 l 515 544 l 431 560 b 499 650 417 617 454 650 l 724 650 "},"Ŷ":{"ha":851,"x_min":0,"x_max":0,"o":"m 457 1275 b 644 1151 532 1236 621 1175 b 638 986 703 1089 693 1018 l 440 1111 l 272 992 b 256 1124 221 1008 206 1072 b 457 1275 297 1167 383 1231 m 488 474 l 603 806 l 515 821 b 590 906 503 860 535 906 l 842 906 b 742 785 863 835 826 771 l 546 342 l 546 113 l 679 88 b 597 0 686 38 658 0 b 383 3 558 0 439 3 b 182 0 301 3 182 0 b 228 90 167 39 181 76 l 306 113 l 306 335 l 58 803 l 1 818 b 83 906 -6 868 22 906 l 429 906 b 389 811 444 867 435 829 l 338 790 "},"ŷ":{"ha":721,"x_min":0,"x_max":0,"o":"m 411 1067 b 588 935 482 1026 565 961 b 582 763 643 868 635 797 l 397 897 l 239 768 b 222 904 189 786 175 850 b 411 1067 261 950 343 1019 m 724 650 b 657 533 738 588 706 544 l 453 7 b 111 -346 343 -276 242 -346 b -21 -233 19 -346 -21 -296 b 1 -160 -21 -207 -12 -182 b 114 -182 28 -172 74 -182 b 282 -62 190 -182 232 -150 l 49 544 l 11 551 b 92 650 -3 599 22 650 l 360 650 b 299 547 374 599 340 558 l 413 213 l 515 544 l 431 560 b 499 650 417 617 454 650 l 724 650 "},"Ỹ":{"ha":851,"x_min":0,"x_max":0,"o":"m 567 1015 b 338 1093 476 1015 406 1093 b 238 1010 286 1093 254 1061 b 200 1075 215 1013 200 1036 b 358 1226 200 1160 268 1226 b 585 1160 450 1226 518 1160 b 688 1236 635 1160 665 1190 b 722 1174 707 1235 722 1213 b 567 1015 722 1090 656 1015 m 488 474 l 603 806 l 515 821 b 590 906 503 860 535 906 l 842 906 b 742 785 863 835 826 771 l 546 342 l 546 113 l 679 88 b 597 0 686 38 658 0 b 383 3 558 0 439 3 b 182 0 301 3 182 0 b 228 90 167 39 181 76 l 306 113 l 306 335 l 58 803 l 1 818 b 83 906 -6 868 22 906 l 429 906 b 389 811 444 867 435 829 l 338 790 "},"ỹ":{"ha":721,"x_min":0,"x_max":0,"o":"m 490 808 b 289 886 400 808 357 886 b 189 803 238 886 206 854 b 151 868 167 806 151 829 b 310 1019 151 953 219 1019 b 508 953 401 1019 442 953 b 611 1029 558 953 589 983 b 646 967 631 1028 646 1006 b 490 808 646 883 579 808 m 724 650 b 657 533 738 588 706 544 l 453 7 b 111 -346 343 -276 242 -346 b -21 -233 19 -346 -21 -296 b 1 -160 -21 -207 -12 -182 b 114 -182 28 -172 74 -182 b 282 -62 190 -182 232 -150 l 49 544 l 11 551 b 92 650 -3 599 22 650 l 360 650 b 299 547 374 599 340 558 l 413 213 l 515 544 l 431 560 b 499 650 417 617 454 650 l 724 650 "},"Ÿ":{"ha":851,"x_min":0,"x_max":0,"o":"m 393 1125 b 283 1013 393 1064 357 1013 b 182 1114 217 1013 182 1051 b 292 1225 182 1172 218 1225 b 393 1125 356 1225 393 1178 m 747 1125 b 638 1013 747 1064 711 1013 b 536 1114 571 1013 536 1051 b 646 1225 536 1172 572 1225 b 747 1125 710 1225 747 1178 m 488 474 l 603 806 l 515 821 b 590 906 503 860 535 906 l 842 906 b 742 785 863 835 826 771 l 546 342 l 546 113 l 679 88 b 597 0 686 38 658 0 b 383 3 558 0 439 3 b 182 0 301 3 182 0 b 228 90 167 39 181 76 l 306 113 l 306 335 l 58 803 l 1 818 b 83 906 -6 868 22 906 l 429 906 b 389 811 444 867 435 829 l 338 790 "},"ÿ":{"ha":721,"x_min":0,"x_max":0,"o":"m 667 911 b 557 799 667 850 631 799 b 456 900 490 799 456 838 b 565 1011 456 958 492 1011 b 667 911 629 1011 667 964 m 358 911 b 249 799 358 850 322 799 b 147 900 182 799 147 838 b 257 1011 147 958 183 1011 b 358 911 321 1011 358 964 m 724 650 b 657 533 738 588 706 544 l 453 7 b 111 -346 343 -276 242 -346 b -21 -233 19 -346 -21 -296 b 1 -160 -21 -207 -12 -182 b 114 -182 28 -172 74 -182 b 282 -62 190 -182 232 -150 l 49 544 l 11 551 b 92 650 -3 599 22 650 l 360 650 b 299 547 374 599 340 558 l 413 213 l 515 544 l 431 560 b 499 650 417 617 454 650 l 724 650 "},"Ȳ":{"ha":851,"x_min":0,"x_max":0,"o":"m 686 1175 b 686 1063 700 1146 704 1090 l 203 1063 b 203 1175 189 1089 189 1147 l 686 1175 m 488 474 l 603 806 l 515 821 b 590 906 503 860 535 906 l 842 906 b 742 785 863 835 826 771 l 546 342 l 546 113 l 679 88 b 597 0 686 38 658 0 b 383 3 558 0 439 3 b 182 0 301 3 182 0 b 228 90 167 39 181 76 l 306 113 l 306 335 l 58 803 l 1 818 b 83 906 -6 868 22 906 l 429 906 b 389 811 444 867 435 829 l 338 790 "},"ȳ":{"ha":721,"x_min":0,"x_max":0,"o":"m 625 968 b 625 856 639 939 643 883 l 167 856 b 167 968 153 882 153 940 l 625 968 m 724 650 b 657 533 738 588 706 544 l 453 7 b 111 -346 343 -276 242 -346 b -21 -233 19 -346 -21 -296 b 1 -160 -21 -207 -12 -182 b 114 -182 28 -172 74 -182 b 282 -62 190 -182 232 -150 l 49 544 l 11 551 b 92 650 -3 599 22 650 l 360 650 b 299 547 374 599 340 558 l 413 213 l 515 544 l 431 560 b 499 650 417 617 454 650 l 724 650 "},"Ź":{"ha":797,"x_min":0,"x_max":0,"o":"m 375 993 b 390 1125 340 1013 343 1085 b 649 1268 447 1172 560 1232 b 682 1188 668 1251 682 1221 b 599 1089 682 1142 649 1110 l 375 993 m 739 903 l 311 114 l 622 132 l 675 301 b 760 208 750 303 765 264 l 738 0 l 46 0 b 75 164 28 49 39 97 l 424 796 l 199 782 l 153 611 b 64 714 99 601 53 622 l 86 911 "},"ź":{"ha":671,"x_min":0,"x_max":0,"o":"m 315 757 b 321 893 278 774 272 847 b 538 1044 375 943 456 996 b 576 961 558 1029 576 999 b 499 851 576 908 547 876 l 315 757 m 297 99 l 508 106 l 560 250 b 640 149 607 258 650 226 l 621 0 l 25 0 b 67 149 17 42 26 86 l 347 563 l 178 550 l 143 429 b 60 500 82 418 54 447 l 74 660 b 640 650 254 654 442 651 "},"Ž":{"ha":797,"x_min":0,"x_max":0,"o":"m 419 983 b 232 1107 344 1022 256 1083 b 239 1272 174 1169 183 1240 l 436 1147 l 604 1267 b 621 1135 656 1250 671 1186 b 419 983 579 1092 493 1028 m 739 903 l 311 114 l 622 132 l 675 301 b 760 208 750 303 765 264 l 738 0 l 46 0 b 75 164 28 49 39 97 l 424 796 l 199 782 l 153 611 b 64 714 99 601 53 622 l 86 911 "},"ž":{"ha":671,"x_min":0,"x_max":0,"o":"m 363 758 b 186 890 292 799 208 864 b 192 1063 131 957 139 1028 l 376 928 l 535 1057 b 551 921 585 1039 599 975 b 363 758 513 875 431 806 m 297 99 l 508 106 l 560 250 b 640 149 607 258 650 226 l 621 0 l 25 0 b 67 149 17 42 26 86 l 347 563 l 178 550 l 143 429 b 60 500 82 418 54 447 l 74 660 b 640 650 254 654 442 651 "},"Ż":{"ha":797,"x_min":0,"x_max":0,"o":"m 540 1126 b 419 1003 540 1060 501 1003 b 308 1114 346 1003 308 1046 b 429 1236 308 1179 349 1236 b 540 1126 499 1236 540 1185 m 739 903 l 311 114 l 622 132 l 675 301 b 760 208 750 303 765 264 l 738 0 l 46 0 b 75 164 28 49 39 97 l 424 796 l 199 782 l 153 611 b 64 714 99 601 53 622 l 86 911 "},"ż":{"ha":671,"x_min":0,"x_max":0,"o":"m 475 926 b 354 803 475 860 436 803 b 243 914 281 803 243 846 b 364 1036 243 979 283 1036 b 475 926 433 1036 475 985 m 297 99 l 508 106 l 560 250 b 640 149 607 258 650 226 l 621 0 l 25 0 b 67 149 17 42 26 86 l 347 563 l 178 550 l 143 429 b 60 500 82 418 54 447 l 74 660 b 640 650 254 654 442 651 "},"Ĳ":{"ha":1014,"x_min":0,"x_max":0,"o":"m 44 0 b 39 31 40 10 39 21 b 86 93 39 57 50 79 l 135 113 l 135 793 l 39 818 b 121 906 32 868 60 906 l 467 906 b 426 811 482 867 472 829 l 375 790 l 375 113 l 481 88 b 399 0 488 38 460 0 b 213 3 360 0 268 3 b 44 0 131 3 44 0 m 889 153 b 569 -246 889 -81 746 -246 b 433 -151 485 -246 433 -225 b 449 -93 433 -135 438 -118 b 558 -118 488 -110 525 -118 b 649 -8 614 -118 649 -94 l 649 793 l 553 818 b 635 906 546 868 574 906 l 981 906 b 940 811 996 867 986 829 l 889 790 "},"ĳ":{"ha":869,"x_min":0,"x_max":0,"o":"m 354 918 b 228 792 354 853 317 792 b 108 908 154 792 108 840 b 236 1032 108 964 143 1032 b 354 918 306 1032 354 976 m 803 918 b 676 792 803 853 765 792 b 557 908 603 792 557 840 b 685 1032 557 964 592 1032 b 803 918 754 1032 803 976 m 447 86 b 358 0 447 32 415 0 b 208 3 311 0 261 3 b 36 0 126 3 36 0 b 31 32 32 11 31 22 b 78 94 31 58 42 81 l 124 113 l 124 531 l 29 543 b 24 575 25 554 24 565 b 100 640 24 607 42 632 l 351 678 l 351 108 l 447 86 m 800 60 b 492 -339 800 -212 638 -339 b 356 -244 407 -339 356 -318 b 371 -186 356 -226 360 -207 b 489 -211 410 -203 456 -211 b 572 -101 544 -211 572 -185 l 572 531 l 478 543 b 472 575 474 554 472 565 b 549 640 472 607 490 632 l 800 678 "},"":{"ha":976,"x_min":0,"x_max":0,"o":"m 707 993 b 722 1125 672 1013 675 1085 b 981 1268 779 1172 892 1232 b 1014 1188 1000 1251 1014 1221 b 931 1089 1014 1142 981 1110 l 707 993 m 217 993 b 232 1125 182 1013 185 1085 b 490 1268 289 1172 401 1232 b 524 1188 510 1251 524 1221 b 440 1089 524 1142 490 1110 l 217 993 m 44 0 b 39 31 40 10 39 21 b 86 93 39 57 50 79 l 135 113 l 135 793 l 39 818 b 121 906 32 868 60 906 l 467 906 b 426 811 482 867 472 829 l 375 790 l 375 113 l 481 88 b 399 0 488 38 460 0 b 213 3 360 0 268 3 b 44 0 131 3 44 0 m 889 153 b 569 -246 889 -81 746 -246 b 433 -151 485 -246 433 -225 b 449 -93 433 -135 438 -118 b 558 -118 488 -110 525 -118 b 649 -8 614 -118 649 -94 l 649 793 l 553 818 b 635 906 546 868 574 906 l 981 906 b 940 811 996 867 986 829 l 889 790 "},"":{"ha":869,"x_min":0,"x_max":0,"o":"m 642 757 b 647 893 604 774 599 847 b 864 1044 701 943 782 996 b 903 961 885 1029 903 999 b 825 851 903 908 874 876 l 642 757 m 179 757 b 185 893 142 774 136 847 b 401 1044 239 943 319 996 b 440 961 422 1029 440 999 b 363 851 440 908 411 876 l 179 757 m 447 86 b 358 0 447 32 415 0 b 208 3 311 0 261 3 b 36 0 126 3 36 0 b 31 32 32 11 31 22 b 78 94 31 58 42 81 l 124 113 l 124 531 l 29 543 b 24 575 25 554 24 565 b 100 640 24 607 42 632 l 351 678 l 351 108 l 447 86 m 800 60 b 492 -339 800 -212 638 -339 b 356 -244 407 -339 356 -318 b 371 -186 356 -226 360 -207 b 489 -211 410 -203 456 -211 b 572 -101 544 -211 572 -185 l 572 531 l 478 543 b 472 575 474 554 472 565 b 549 640 472 607 490 632 l 800 678 "},"Ə":{"ha":883,"x_min":0,"x_max":0,"o":"m 97 638 b 60 704 75 644 60 669 b 393 925 60 814 154 925 b 838 479 681 925 838 758 b 400 -22 838 210 675 -22 b 38 324 160 -22 38 108 b 57 453 38 371 46 414 l 583 453 b 322 776 588 656 489 776 b 97 638 228 776 154 722 m 249 342 b 414 99 247 175 324 99 b 582 349 513 99 578 199 "},"ə":{"ha":669,"x_min":0,"x_max":0,"o":"m 57 447 b 39 485 46 456 39 468 b 318 671 39 571 142 671 b 635 358 531 671 635 561 b 303 -22 635 163 506 -22 b 35 225 125 -22 35 68 b 47 326 35 260 39 299 l 408 326 b 233 515 401 454 335 515 b 57 447 160 515 103 489 m 224 238 b 315 89 226 139 263 89 b 406 240 375 89 403 153 "},"ﬀ":{"ha":1028,"x_min":0,"x_max":0,"o":"m 489 88 b 404 0 489 32 467 0 b 186 3 365 0 242 3 b 31 0 104 3 31 0 b 25 32 26 11 25 22 b 71 90 25 58 38 78 l 118 108 l 118 525 l 17 539 b 13 569 14 550 13 560 b 82 639 13 611 38 632 l 115 643 b 432 1017 115 858 204 1017 b 582 924 542 1017 582 974 b 514 819 582 879 558 847 b 404 901 486 868 440 901 b 346 825 364 901 346 883 l 346 650 l 629 650 b 946 1017 631 863 721 1017 b 1096 924 1056 1017 1096 974 b 1028 819 1096 879 1072 847 b 918 901 1000 868 954 901 b 860 825 878 901 860 883 l 860 650 l 1007 650 b 899 525 1032 579 997 525 l 860 525 l 860 110 l 1003 88 b 918 0 1003 32 981 0 b 700 3 879 0 756 3 b 544 0 618 3 544 0 b 539 32 540 11 539 22 b 585 90 539 58 551 78 l 632 108 l 629 533 l 346 538 l 346 110 l 489 88 "},"ﬁ":{"ha":964,"x_min":0,"x_max":0,"o":"m 896 918 b 769 792 896 853 858 792 b 650 908 696 792 650 840 b 778 1032 650 964 685 1032 b 896 918 847 1032 896 976 m 489 88 b 404 0 489 32 467 0 b 186 3 365 0 242 3 b 31 0 104 3 31 0 b 25 32 26 11 25 22 b 71 90 25 58 38 78 l 118 108 l 118 525 l 17 539 b 13 569 14 550 13 560 b 82 639 13 611 38 632 l 115 643 b 432 1017 115 858 204 1017 b 582 924 542 1017 582 974 b 514 819 582 879 558 847 b 404 901 486 868 440 901 b 346 825 364 901 346 883 l 346 650 l 679 650 l 865 678 l 865 108 l 961 86 b 872 0 961 32 929 0 b 722 3 825 0 775 3 b 550 0 640 3 550 0 b 544 32 546 11 544 22 b 592 94 544 58 556 81 l 638 113 l 638 533 l 346 538 l 346 110 l 489 88 "},"ﬂ":{"ha":922,"x_min":0,"x_max":0,"o":"m 118 644 b 471 1013 118 860 243 1013 b 661 965 546 1013 611 994 b 826 1007 710 986 768 1003 l 826 108 l 922 86 b 833 0 922 32 890 0 b 683 3 786 0 736 3 b 511 0 601 3 511 0 b 506 32 507 11 506 22 b 553 94 506 58 517 81 l 599 113 l 599 853 b 454 900 558 885 513 900 b 346 758 390 900 346 863 l 346 650 l 493 650 b 385 525 518 579 483 525 l 346 525 l 346 110 l 475 88 b 390 0 475 32 453 0 b 186 3 351 0 242 3 b 31 0 104 3 31 0 b 25 32 26 11 25 22 b 71 90 25 58 38 78 l 118 108 l 118 525 l 17 539 b 13 569 14 550 13 560 b 82 639 13 611 38 632 "},"":{"ha":1383,"x_min":0,"x_max":0,"o":"m 910 918 b 783 792 910 853 872 792 b 664 908 710 792 664 840 b 792 1032 664 964 699 1032 b 910 918 861 1032 910 976 m 1317 918 b 1190 792 1317 853 1279 792 b 1071 908 1117 792 1071 840 b 1199 1032 1071 964 1106 1032 b 1317 918 1268 1032 1317 976 m 489 88 b 404 0 489 32 467 0 b 186 3 365 0 242 3 b 31 0 104 3 31 0 b 25 32 26 11 25 22 b 71 90 25 58 38 78 l 118 108 l 118 525 l 17 539 b 13 569 14 550 13 560 b 82 639 13 611 38 632 l 115 643 b 432 1017 115 858 204 1017 b 582 924 542 1017 582 974 b 514 819 582 879 558 847 b 404 901 486 868 440 901 b 346 825 364 901 346 883 l 346 650 l 493 650 b 385 525 518 579 483 525 l 346 525 l 346 110 l 489 88 m 961 86 b 872 0 961 32 929 0 b 722 3 825 0 775 3 b 550 0 640 3 550 0 b 544 32 546 11 544 22 b 592 94 544 58 556 81 l 638 113 l 638 531 l 543 543 b 538 575 539 554 538 565 b 614 640 538 607 556 632 l 865 678 l 865 108 l 961 86 m 1314 60 b 1006 -339 1314 -212 1151 -339 b 869 -244 921 -339 869 -318 b 885 -186 869 -226 874 -207 b 1003 -211 924 -203 969 -211 b 1086 -101 1058 -211 1086 -185 l 1086 531 l 992 543 b 986 575 988 554 986 565 b 1063 640 986 607 1004 632 l 1314 678 "},"ﬃ":{"ha":1478,"x_min":0,"x_max":0,"o":"m 1410 918 b 1283 792 1410 853 1372 792 b 1164 908 1210 792 1164 840 b 1292 1032 1164 964 1199 1032 b 1410 918 1361 1032 1410 976 m 489 88 b 404 0 489 32 467 0 b 186 3 365 0 242 3 b 31 0 104 3 31 0 b 25 32 26 11 25 22 b 71 90 25 58 38 78 l 118 108 l 118 525 l 17 539 b 13 569 14 550 13 560 b 82 639 13 611 38 632 l 115 643 b 432 1017 115 858 204 1017 b 582 924 542 1017 582 974 b 514 819 582 879 558 847 b 404 901 486 868 440 901 b 346 825 364 901 346 883 l 346 650 l 629 650 b 946 1017 631 863 721 1017 b 1096 924 1056 1017 1096 974 b 1028 819 1096 879 1072 847 b 918 901 1000 868 954 901 b 860 825 878 901 860 883 l 860 650 l 1193 650 l 1379 678 l 1379 108 l 1475 86 b 1386 0 1475 32 1443 0 b 1236 3 1339 0 1289 3 b 1064 0 1154 3 1064 0 b 1058 32 1060 11 1058 22 b 1106 94 1058 58 1069 81 l 1151 113 l 1151 533 l 860 538 l 860 110 l 1003 88 b 918 0 1003 32 981 0 b 700 3 879 0 756 3 b 544 0 618 3 544 0 b 539 32 540 11 539 22 b 585 90 539 58 551 78 l 632 108 l 629 533 l 346 538 l 346 110 l 489 88 "},"ﬄ":{"ha":1381,"x_min":0,"x_max":0,"o":"m 1285 108 l 1381 86 b 1292 0 1381 32 1349 0 b 1142 3 1244 0 1194 3 b 969 0 1060 3 969 0 b 964 32 965 11 964 22 b 1011 94 964 58 975 81 l 1057 113 l 1057 853 b 913 900 1017 885 971 900 b 804 758 849 900 804 863 l 804 650 l 951 650 b 843 525 976 579 942 525 l 804 525 l 804 110 l 933 88 b 849 0 933 32 911 0 b 644 3 810 0 700 3 b 489 0 563 3 489 0 b 483 32 485 11 483 22 b 529 90 483 58 496 78 l 576 108 l 576 533 l 346 538 l 346 110 l 458 88 b 374 0 458 32 436 0 b 186 3 335 0 242 3 b 31 0 104 3 31 0 b 25 32 26 11 25 22 b 71 90 25 58 38 78 l 118 108 l 118 525 l 17 539 b 13 569 14 550 13 560 b 82 639 13 611 38 632 l 115 644 b 471 1013 115 860 243 1013 b 700 939 567 1013 649 982 b 929 1013 757 986 835 1013 b 1119 965 1004 1013 1069 994 b 1285 1007 1168 986 1226 1003 m 346 650 l 576 650 b 618 838 578 721 592 785 b 454 900 572 879 522 900 b 346 758 390 900 346 863 "},"":{"ha":1897,"x_min":0,"x_max":0,"o":"m 1424 918 b 1297 792 1424 853 1386 792 b 1178 908 1224 792 1178 840 b 1306 1032 1178 964 1213 1032 b 1424 918 1375 1032 1424 976 m 1831 918 b 1704 792 1831 853 1793 792 b 1585 908 1631 792 1585 840 b 1713 1032 1585 964 1619 1032 b 1831 918 1782 1032 1831 976 m 489 88 b 404 0 489 32 467 0 b 186 3 365 0 242 3 b 31 0 104 3 31 0 b 25 32 26 11 25 22 b 71 90 25 58 38 78 l 118 108 l 118 525 l 17 539 b 13 569 14 550 13 560 b 82 639 13 611 38 632 l 115 643 b 432 1017 115 858 204 1017 b 582 924 542 1017 582 974 b 514 819 582 879 558 847 b 404 901 486 868 440 901 b 346 825 364 901 346 883 l 346 650 l 629 650 b 946 1017 631 863 721 1017 b 1096 924 1056 1017 1096 974 b 1028 819 1096 879 1072 847 b 918 901 1000 868 954 901 b 860 825 878 901 860 883 l 860 650 l 1193 650 l 1379 678 l 1379 108 l 1475 86 b 1386 0 1475 32 1443 0 b 1236 3 1339 0 1289 3 b 1064 0 1154 3 1064 0 b 1058 32 1060 11 1058 22 b 1106 94 1058 58 1069 81 l 1151 113 l 1151 533 l 860 538 l 860 110 l 1003 88 b 918 0 1003 32 981 0 b 700 3 879 0 756 3 b 544 0 618 3 544 0 b 539 32 540 11 539 22 b 585 90 539 58 551 78 l 632 108 l 629 533 l 346 538 l 346 110 l 489 88 m 1828 60 b 1519 -339 1828 -212 1665 -339 b 1383 -244 1435 -339 1383 -318 b 1399 -186 1383 -226 1388 -207 b 1517 -211 1438 -203 1483 -211 b 1600 -101 1572 -211 1600 -185 l 1600 531 l 1506 543 b 1500 575 1501 554 1500 565 b 1576 640 1500 607 1518 632 l 1828 678 "},"&":{"ha":1058,"x_min":0,"x_max":0,"o":"m 1050 656 b 908 517 1079 565 1015 506 b 801 254 894 419 872 363 b 1042 99 881 185 974 117 b 858 -35 1026 26 949 -35 b 640 78 792 -35 726 -7 b 350 -22 563 15 460 -22 b 31 210 153 -22 31 51 b 213 478 31 306 81 410 b 114 688 144 542 114 614 b 451 971 114 846 225 971 b 697 801 604 971 697 901 b 636 651 697 743 676 696 b 1050 656 778 650 1050 656 m 486 558 b 524 726 510 608 524 672 b 400 856 524 796 489 856 b 311 765 338 856 311 815 b 372 643 311 718 332 681 l 718 326 b 747 540 740 386 756 475 m 283 407 b 240 274 260 381 240 322 b 415 115 240 172 307 115 b 557 160 465 115 524 135 "},"@":{"ha":1353,"x_min":0,"x_max":0,"o":"m 1307 518 b 892 -22 1307 218 1104 -22 b 740 204 774 -22 717 40 b 518 -22 701 101 632 -22 b 367 240 440 -22 367 69 b 753 676 367 499 525 676 b 956 629 828 676 908 656 b 896 231 956 629 896 314 b 949 124 896 140 914 124 b 1132 469 1033 124 1132 290 b 731 819 1132 694 976 819 b 231 260 429 819 231 596 b 664 -196 231 -46 399 -196 b 915 -128 767 -196 857 -168 b 940 -178 932 -137 940 -161 b 603 -344 940 -243 807 -344 b 46 197 251 -344 46 -137 b 751 978 46 678 354 978 b 1307 518 1131 978 1307 776 m 761 535 b 704 556 744 549 724 556 b 547 285 611 556 547 419 b 603 158 547 189 575 158 b 761 535 644 158 725 301 "},"*":{"ha":644,"x_min":0,"x_max":0,"o":"m 575 531 b 386 515 544 472 425 451 l 297 663 l 153 471 b 114 642 82 483 46 579 l 217 735 l 19 826 b 189 910 17 903 111 972 l 263 850 l 267 1088 b 408 981 351 1124 428 1081 l 379 832 l 481 907 b 615 817 550 958 633 889 l 421 738 "},"©":{"ha":1208,"x_min":0,"x_max":0,"o":"m 601 -133 b 76 392 285 -133 76 89 b 676 1022 76 776 283 1022 b 1201 497 993 1022 1201 800 b 601 -133 1201 113 994 -133 m 643 947 b 158 425 338 947 158 756 b 635 -58 158 131 335 -58 b 1119 464 940 -58 1119 133 b 643 947 1119 757 946 947 m 674 797 b 881 749 746 797 821 781 l 846 572 b 728 514 836 515 775 499 l 735 663 b 657 681 713 674 685 681 b 556 476 596 681 556 599 b 724 267 556 353 610 267 b 872 322 782 267 835 292 b 893 275 886 308 893 296 b 643 104 893 196 801 104 b 331 415 449 104 331 207 b 674 797 331 618 461 797 "},"®":{"ha":869,"x_min":0,"x_max":0,"o":"m 411 336 b 76 669 210 336 76 479 b 458 1069 76 914 210 1069 b 793 736 660 1069 793 926 b 411 336 793 493 660 336 m 438 1004 b 147 690 254 1004 147 888 b 433 401 147 517 251 401 b 722 715 615 401 722 518 b 438 1004 722 889 618 1004 m 253 521 b 269 569 242 533 246 558 l 288 578 l 288 842 l 250 850 b 267 894 239 868 249 889 b 406 910 296 906 346 910 b 601 781 531 910 601 854 b 532 674 601 732 571 692 b 643 582 574 621 603 600 b 565 510 631 546 607 510 b 471 575 524 510 504 526 l 425 642 b 399 643 414 642 411 642 l 399 576 l 442 565 b 407 521 446 540 432 521 b 333 522 390 521 357 522 b 253 521 300 522 267 521 m 486 765 b 399 851 486 811 463 844 l 399 693 b 486 765 467 692 486 715 "},"™":{"ha":1168,"x_min":0,"x_max":0,"o":"m 536 857 b 581 906 532 883 546 906 l 733 906 l 826 631 l 908 906 l 1096 906 b 1058 847 1103 874 1090 856 l 1044 843 l 1085 506 l 1139 494 b 1093 444 1143 467 1128 444 b 996 446 1074 444 1026 446 b 907 444 954 446 907 444 b 903 461 904 450 903 456 b 929 494 903 476 910 486 l 957 506 l 933 753 l 832 447 l 747 447 l 638 753 l 615 507 l 679 494 b 635 444 683 468 669 444 b 557 446 614 444 582 446 b 500 444 532 446 508 446 b 496 461 497 450 496 457 b 522 494 496 476 501 486 l 544 504 l 585 846 m 322 504 l 389 492 b 346 444 392 465 378 444 b 236 446 325 444 264 446 b 132 444 194 446 132 444 b 157 494 125 467 132 486 l 194 504 l 194 842 l 124 842 l 106 785 b 46 761 99 757 69 749 l 56 906 l 460 906 l 469 768 b 442 758 460 761 451 758 b 406 788 426 758 411 769 l 389 842 l 322 842 "},"^":{"ha":624,"x_min":0,"x_max":0,"o":"m 203 890 b 385 969 240 978 307 993 l 564 571 b 442 424 600 490 540 414 l 293 760 l 154 428 b 63 565 79 414 21 472 "},"~":{"ha":765,"x_min":0,"x_max":0,"o":"m 699 394 b 510 217 699 301 619 217 b 235 304 401 217 315 304 b 111 211 169 304 132 268 b 67 283 85 214 67 240 b 258 451 67 378 149 451 b 533 378 369 451 451 378 b 657 463 594 378 631 414 b 699 394 682 461 699 436 "},"`":{"ha":443,"x_min":0,"x_max":0,"o":"m 154 851 b 76 961 106 876 76 908 b 115 1044 76 999 94 1029 b 332 893 197 996 278 943 b 338 757 381 847 375 774 "},"´":{"ha":443,"x_min":0,"x_max":0,"o":"m 106 757 b 111 893 68 774 63 847 b 328 1044 165 943 246 996 b 367 961 349 1029 367 999 b 289 851 367 908 338 876 l 106 757 "},"ˆ":{"ha":585,"x_min":0,"x_max":0,"o":"m 294 1067 b 471 935 365 1026 449 961 b 465 763 526 868 518 797 l 281 897 l 122 768 b 106 904 72 786 58 850 b 294 1067 144 950 226 1019 "},"ˇ":{"ha":585,"x_min":0,"x_max":0,"o":"m 290 758 b 114 890 219 799 136 864 b 119 1063 58 957 67 1028 l 304 928 l 463 1057 b 479 921 513 1039 526 975 b 290 758 440 875 358 806 "},"˜":{"ha":647,"x_min":0,"x_max":0,"o":"m 415 808 b 214 886 325 808 282 886 b 114 803 163 886 131 854 b 76 868 92 806 76 829 b 235 1019 76 953 144 1019 b 433 953 326 1019 367 953 b 536 1029 483 953 514 983 b 571 967 556 1028 571 1006 b 415 808 571 883 504 808 "},"¨":{"ha":672,"x_min":0,"x_max":0,"o":"m 596 911 b 486 799 596 850 560 799 b 385 900 419 799 385 838 b 494 1011 385 958 421 1011 b 596 911 558 1011 596 964 m 288 911 b 178 799 288 850 251 799 b 76 900 111 799 76 838 b 186 1011 76 958 113 1011 b 288 911 250 1011 288 964 "},"¯":{"ha":633,"x_min":0,"x_max":0,"o":"m 544 968 b 544 856 558 939 563 883 l 86 856 b 86 968 72 882 72 940 l 544 968 "},"ˉ":{"ha":657,"x_min":0,"x_max":0,"o":"m 569 1175 b 569 1063 583 1146 588 1090 l 86 1063 b 86 1175 72 1089 72 1147 l 569 1175 "},"˘":{"ha":615,"x_min":0,"x_max":0,"o":"m 76 976 b 117 1049 76 1011 99 1043 b 314 933 161 988 225 933 b 515 1046 404 933 464 978 b 539 994 529 1038 539 1014 b 303 790 539 881 433 790 b 76 976 179 790 76 860 "},"˚":{"ha":432,"x_min":0,"x_max":0,"o":"m 67 914 b 225 1057 67 999 129 1057 b 364 932 306 1057 364 1017 b 204 781 364 838 303 781 b 67 914 118 781 67 821 m 261 918 b 215 976 261 949 251 976 b 165 917 183 976 165 958 b 211 864 165 888 176 864 b 261 918 244 864 261 885 "},"˝":{"ha":768,"x_min":0,"x_max":0,"o":"m 692 961 b 614 851 692 908 663 876 l 431 757 b 436 893 393 774 388 847 b 653 1044 490 943 571 996 b 692 961 674 1029 692 999 m 106 757 b 111 893 68 774 63 847 b 328 1044 165 943 246 996 b 367 961 349 1029 367 999 b 289 851 367 908 338 876 l 106 757 "},"˙":{"ha":385,"x_min":0,"x_max":0,"o":"m 308 926 b 188 803 308 860 269 803 b 76 914 114 803 76 846 b 197 1036 76 979 117 1036 b 308 926 267 1036 308 985 "},"¸":{"ha":476,"x_min":0,"x_max":0,"o":"m 251 -56 b 400 -181 363 -74 400 -108 b 197 -343 400 -262 328 -343 b 76 -265 111 -343 76 -307 b 106 -203 76 -240 89 -215 b 204 -250 131 -232 168 -250 b 256 -210 233 -250 256 -235 b 179 -149 256 -183 233 -171 b 193 18 146 -135 125 -96 l 272 14 "},"̣":{"ha":385,"x_min":0,"x_max":0,"o":"m 308 -225 b 188 -349 308 -292 269 -349 b 76 -237 114 -349 76 -306 b 197 -115 76 -172 117 -115 b 308 -225 267 -115 308 -167 "},"˛":{"ha":468,"x_min":0,"x_max":0,"o":"m 392 -219 b 222 -343 392 -283 310 -343 b 74 -212 128 -343 74 -294 b 293 50 74 -122 151 -32 l 344 4 b 236 -169 275 -65 236 -129 b 285 -214 236 -197 254 -214 b 372 -172 313 -214 344 -196 b 392 -219 382 -181 392 -197 "},"̦":{"ha":404,"x_min":0,"x_max":0,"o":"m 126 -475 b 85 -429 99 -475 82 -457 b 179 -304 133 -404 179 -365 b 83 -210 179 -260 136 -221 b 194 -75 76 -136 113 -75 b 328 -247 282 -75 328 -142 b 126 -475 328 -368 232 -475 "},"­":{"ha":561,"x_min":0,"x_max":0,"o":"m 476 393 b 476 281 490 364 494 308 l 83 281 b 83 393 69 307 69 365 l 476 393 "},"-":{"ha":561,"x_min":0,"x_max":0,"o":"m 476 393 b 476 281 490 364 494 308 l 83 281 b 83 393 69 307 69 365 l 476 393 "},"–":{"ha":749,"x_min":0,"x_max":0,"o":"m 675 393 b 675 281 689 364 693 308 l 74 281 b 74 393 60 307 60 365 l 675 393 "},"—":{"ha":1389,"x_min":0,"x_max":0,"o":"m 1390 393 b 1390 281 1404 364 1408 308 l -3 281 b -3 393 -17 307 -17 365 l 1390 393 "},"_":{"ha":722,"x_min":0,"x_max":0,"o":"m 619 113 b 619 0 633 83 638 28 l 101 0 b 101 113 88 26 88 85 l 619 113 "},".":{"ha":378,"x_min":0,"x_max":0,"o":"m 308 100 b 183 -28 308 31 268 -28 b 69 86 108 -28 69 17 b 194 213 69 154 111 213 b 308 100 265 213 308 160 "},",":{"ha":408,"x_min":0,"x_max":0,"o":"m 110 -199 b 53 -153 83 -199 61 -183 b 176 -25 128 -129 176 -81 b 61 57 176 14 144 49 b 193 207 53 129 94 207 b 339 22 297 207 339 125 b 110 -199 339 -87 239 -199 "},":":{"ha":419,"x_min":0,"x_max":0,"o":"m 204 399 b 90 513 129 399 90 443 b 215 639 90 581 132 639 b 329 526 286 639 329 586 b 204 399 329 457 289 399 m 215 247 b 329 135 286 247 329 194 b 204 7 329 65 289 7 b 90 121 129 7 90 51 b 215 247 90 189 132 247 "},";":{"ha":419,"x_min":0,"x_max":0,"o":"m 204 399 b 90 513 129 399 90 443 b 215 639 90 581 132 639 b 329 526 286 639 329 586 b 204 399 329 457 289 399 m 115 -199 b 58 -153 89 -199 67 -183 b 182 -25 133 -129 182 -81 b 67 57 182 14 150 49 b 199 207 58 129 100 207 b 344 22 303 207 344 125 b 115 -199 344 -87 244 -199 "},"!":{"ha":485,"x_min":0,"x_max":0,"o":"m 408 869 b 361 651 408 800 386 728 b 314 335 326 543 310 413 b 153 431 217 299 161 340 l 99 975 b 247 1019 139 1001 193 1019 b 408 869 346 1019 408 972 m 358 100 b 233 -28 358 31 318 -28 b 119 86 158 -28 119 17 b 244 213 119 154 161 213 b 358 100 315 213 358 160 "},"¡":{"ha":485,"x_min":0,"x_max":0,"o":"m 126 556 b 251 683 126 625 167 683 b 365 569 326 683 365 639 b 240 443 365 501 324 443 b 126 556 169 443 126 496 m 76 -214 b 124 4 76 -144 99 -72 b 171 321 158 113 175 243 b 332 225 268 357 324 315 l 386 -319 b 238 -364 346 -346 292 -364 b 76 -214 139 -364 76 -317 "},"?":{"ha":594,"x_min":0,"x_max":0,"o":"m 246 993 b 589 757 475 993 589 892 b 428 503 589 653 556 590 b 311 288 344 446 292 379 b 121 396 186 261 121 308 b 297 585 121 474 157 519 b 439 707 414 639 439 660 b 304 785 439 744 400 785 b 88 739 224 785 151 769 b 51 835 64 765 51 800 b 246 993 51 913 111 993 m 365 100 b 240 -28 365 31 325 -28 b 126 86 165 -28 126 17 b 251 213 126 154 168 213 b 365 100 322 213 365 160 "},"¿":{"ha":594,"x_min":0,"x_max":0,"o":"m 229 556 b 354 683 229 625 269 683 b 468 569 429 683 468 639 b 343 443 468 501 426 443 b 229 556 272 443 229 496 m 349 -337 b 6 -101 119 -337 6 -236 b 167 153 6 3 39 65 b 283 368 250 210 303 276 b 474 260 408 394 474 347 b 297 71 474 182 438 136 b 156 -51 181 17 156 -4 b 290 -129 156 -89 194 -129 b 507 -83 371 -129 443 -114 b 543 -179 531 -110 543 -144 b 349 -337 543 -257 483 -337 "},"…":{"ha":1325,"x_min":0,"x_max":0,"o":"m 1221 100 b 1096 -28 1221 31 1181 -28 b 982 86 1021 -28 982 17 b 1107 213 982 154 1024 213 b 1221 100 1178 213 1221 160 m 782 100 b 657 -28 782 31 742 -28 b 543 86 582 -28 543 17 b 668 213 543 154 585 213 b 782 100 739 213 782 160 m 343 100 b 218 -28 343 31 303 -28 b 104 86 143 -28 104 17 b 229 213 104 154 146 213 b 343 100 300 213 343 160 "},"·":{"ha":378,"x_min":0,"x_max":0,"o":"m 308 357 b 183 229 308 288 268 229 b 69 343 108 229 69 274 b 194 469 69 411 111 469 b 308 357 265 469 308 417 "},"∙":{"ha":378,"x_min":0,"x_max":0,"o":"m 308 357 b 183 229 308 288 268 229 b 69 343 108 229 69 274 b 194 469 69 411 111 469 b 308 357 265 469 308 417 "},"•":{"ha":493,"x_min":0,"x_max":0,"o":"m 413 363 b 239 185 413 267 356 185 b 81 344 136 185 81 247 b 254 521 81 440 139 521 b 413 363 353 521 413 446 "},"/":{"ha":403,"x_min":0,"x_max":0,"o":"m 215 -125 b 175 -375 206 -183 182 -328 b 122 -385 165 -381 146 -385 b 25 -247 43 -385 10 -347 l 210 913 b 229 1054 218 964 226 1018 b 288 1063 242 1058 264 1063 b 376 894 367 1063 396 1018 "},"\\":{"ha":404,"x_min":0,"x_max":0,"o":"m 26 894 b 79 1058 10 1000 28 1047 b 174 1056 103 1064 158 1061 b 194 913 178 1019 186 964 l 379 -247 b 325 -381 392 -331 372 -368 b 228 -379 294 -387 235 -383 l 190 -125 "},"|":{"ha":364,"x_min":0,"x_max":0,"o":"m 253 -306 b 111 -311 219 -325 151 -325 l 111 1046 b 253 1042 151 1061 217 1061 "},"¦":{"ha":364,"x_min":0,"x_max":0,"o":"m 253 463 b 111 457 219 443 151 443 l 111 1046 b 253 1042 151 1061 217 1061 m 253 -307 b 111 -312 219 -326 151 -326 l 111 276 b 253 272 151 292 217 292 "},"(":{"ha":443,"x_min":0,"x_max":0,"o":"m 207 -311 b 49 336 117 -174 49 61 b 218 960 49 613 129 822 b 367 1089 278 1049 331 1089 b 421 1047 394 1089 415 1074 b 240 351 304 924 240 663 b 421 -387 240 39 313 -265 b 360 -431 415 -414 390 -431 b 207 -311 311 -431 264 -400 "},")":{"ha":443,"x_min":0,"x_max":0,"o":"m 236 971 b 394 324 326 833 394 599 b 225 -300 394 47 314 -162 b 76 -429 165 -389 113 -429 b 22 -387 49 -429 28 -414 b 203 308 139 -264 203 -3 b 22 1047 203 621 131 925 b 83 1090 28 1074 53 1090 b 236 971 132 1090 179 1060 "},"[":{"ha":443,"x_min":0,"x_max":0,"o":"m 425 -317 b 353 -422 438 -387 392 -422 l 76 -422 l 76 1089 l 414 1089 b 338 983 429 1032 397 981 l 250 986 l 250 -318 "},"]":{"ha":443,"x_min":0,"x_max":0,"o":"m 18 983 b 90 1089 6 1054 51 1089 l 367 1089 l 367 -422 l 29 -422 b 106 -317 14 -365 46 -314 l 193 -319 l 193 985 "},"{":{"ha":553,"x_min":0,"x_max":0,"o":"m 535 -319 b 403 -426 550 -375 494 -426 b 167 -237 211 -426 167 -340 b 203 156 167 -139 203 10 b 42 283 203 238 153 276 b 42 386 33 304 32 365 b 200 490 167 393 200 432 b 171 881 200 551 171 768 b 413 1094 171 1015 271 1094 b 519 985 526 1094 546 1019 b 431 994 493 990 456 994 b 336 907 357 994 336 957 b 369 514 336 876 369 639 b 263 344 369 419 335 368 b 371 185 340 321 371 267 b 338 -199 371 53 338 -92 b 449 -324 338 -287 365 -324 b 535 -319 486 -324 507 -322 "},"}":{"ha":553,"x_min":0,"x_max":0,"o":"m 18 988 b 150 1094 3 1043 58 1094 b 386 906 342 1094 386 1008 b 350 513 386 807 350 658 b 511 385 350 431 400 392 b 511 282 519 364 521 303 b 353 178 386 275 353 236 b 382 -212 353 117 382 -100 b 140 -426 382 -347 282 -426 b 33 -317 26 -426 7 -351 b 122 -326 60 -322 97 -326 b 217 -239 196 -326 217 -289 b 183 154 217 -208 183 29 b 290 324 183 249 218 300 b 182 483 213 347 182 401 b 215 867 182 615 215 760 b 104 992 215 956 188 992 b 18 988 67 992 46 990 "},"'":{"ha":336,"x_min":0,"x_max":0,"o":"m 111 647 b 56 943 83 740 56 874 b 168 1036 56 1010 106 1036 b 281 943 231 1036 281 1010 b 222 647 281 874 251 740 b 111 647 194 656 138 656 "},"\"":{"ha":621,"x_min":0,"x_max":0,"o":"m 565 943 b 507 647 565 874 536 740 b 396 647 479 656 422 656 b 340 943 368 740 340 874 b 453 1036 340 1010 390 1036 b 565 943 515 1036 565 1010 m 111 647 b 56 943 83 740 56 874 b 168 1036 56 1010 106 1036 b 281 943 231 1036 281 1010 b 222 647 281 874 251 740 b 111 647 194 656 138 656 "},"‘":{"ha":394,"x_min":0,"x_max":0,"o":"m 333 783 b 201 633 342 711 300 633 b 56 818 97 633 56 715 b 285 1039 56 928 156 1039 b 342 993 311 1039 333 1024 b 218 865 267 969 218 921 b 333 783 218 826 250 792 "},"’":{"ha":394,"x_min":0,"x_max":0,"o":"m 110 633 b 53 679 83 633 61 649 b 176 807 128 703 176 751 b 61 889 176 846 144 881 b 193 1039 53 961 94 1039 b 339 854 297 1039 339 957 b 110 633 339 744 239 633 "},"“":{"ha":728,"x_min":0,"x_max":0,"o":"m 618 1039 b 675 993 644 1039 667 1024 b 551 865 600 969 551 921 b 667 783 551 826 583 792 b 535 633 675 711 633 633 b 389 818 431 633 389 715 b 618 1039 389 928 489 1039 m 333 783 b 201 633 342 711 300 633 b 56 818 97 633 56 715 b 285 1039 56 928 156 1039 b 342 993 311 1039 333 1024 b 218 865 267 969 218 921 b 333 783 218 826 250 792 "},"”":{"ha":728,"x_min":0,"x_max":0,"o":"m 394 889 b 526 1039 386 961 428 1039 b 672 854 631 1039 672 957 b 443 633 672 744 572 633 b 386 679 417 633 394 649 b 510 807 461 703 510 751 b 394 889 510 846 478 881 m 110 633 b 53 679 83 633 61 649 b 176 807 128 703 176 751 b 61 889 176 846 144 881 b 193 1039 53 961 94 1039 b 339 854 297 1039 339 957 b 110 633 339 744 239 633 "},"‚":{"ha":408,"x_min":0,"x_max":0,"o":"m 110 -199 b 53 -153 83 -199 61 -183 b 176 -25 128 -129 176 -81 b 61 57 176 14 144 49 b 193 207 53 129 94 207 b 339 22 297 207 339 125 b 110 -199 339 -87 239 -199 "},"„":{"ha":728,"x_min":0,"x_max":0,"o":"m 526 207 b 672 22 631 207 672 125 b 443 -199 672 -87 572 -199 b 386 -153 417 -199 394 -183 b 510 -25 461 -129 510 -81 b 394 57 510 14 478 49 b 526 207 386 129 428 207 m 110 -199 b 53 -153 83 -199 61 -183 b 176 -25 128 -129 176 -81 b 61 57 176 14 144 49 b 193 207 53 129 94 207 b 339 22 297 207 339 125 b 110 -199 339 -87 239 -199 "},"‹":{"ha":451,"x_min":0,"x_max":0,"o":"m 263 338 l 376 81 b 343 72 367 74 351 72 b 51 331 265 72 228 83 b 329 590 240 565 261 590 b 361 582 339 590 351 586 "},"›":{"ha":451,"x_min":0,"x_max":0,"o":"m 189 326 l 74 582 b 107 592 83 590 99 592 b 400 332 186 592 221 579 b 122 74 210 97 190 74 b 89 81 111 74 97 78 "},"«":{"ha":781,"x_min":0,"x_max":0,"o":"m 593 338 l 707 81 b 674 72 697 74 682 72 b 381 331 596 72 558 83 b 658 590 571 565 592 590 b 692 582 668 590 682 586 m 263 338 l 376 81 b 343 72 367 74 351 72 b 51 331 265 72 228 83 b 329 590 240 565 261 590 b 360 582 339 590 351 586 "},"»":{"ha":781,"x_min":0,"x_max":0,"o":"m 189 326 l 74 582 b 107 592 83 590 99 592 b 400 332 186 592 221 579 b 122 74 210 97 190 74 b 89 81 111 74 97 78 m 518 326 l 404 582 b 438 592 414 590 429 592 b 731 332 515 592 551 579 b 453 74 540 97 519 74 b 419 81 442 74 428 78 "},"¶":{"ha":935,"x_min":0,"x_max":0,"o":"m 896 835 b 763 686 940 789 915 690 l 763 260 b 381 -282 763 -119 607 -282 b 282 -51 196 -282 192 -100 b 438 -135 319 -99 379 -135 b 576 165 540 -135 576 -85 l 576 810 b 733 800 626 803 703 800 b 896 835 789 800 868 817 m 496 243 b 332 204 453 218 403 204 b 76 510 171 204 76 299 b 367 835 76 704 181 835 b 496 819 421 835 476 825 l 496 243 "},"":{"ha":1090,"x_min":0,"x_max":0,"o":"m 493 600 b 597 744 524 629 561 683 b 339 850 490 817 425 850 b 193 799 275 850 229 829 b 164 860 174 807 164 826 b 376 1000 164 935 246 1000 b 668 872 456 1000 529 971 b 722 988 692 917 711 958 b 876 953 764 990 847 972 b 785 786 860 906 826 846 b 929 722 851 735 892 722 b 1044 778 972 722 1010 744 b 1072 724 1058 772 1072 750 b 899 607 1072 656 990 607 b 696 675 826 607 761 631 b 586 567 661 636 624 599 b 749 431 701 547 749 485 b 615 249 749 368 733 319 b 442 106 465 160 442 142 b 481 72 442 88 450 72 b 639 168 529 72 582 106 b 692 97 665 161 692 132 b 450 -56 692 0 581 -56 b 61 376 181 -56 61 165 b 331 728 61 592 181 728 b 493 600 422 728 472 676 "},"#":{"ha":782,"x_min":0,"x_max":0,"o":"m 663 342 b 663 229 676 313 681 257 l 544 229 l 526 101 b 393 53 518 47 457 25 l 418 229 l 294 229 l 276 101 b 143 53 268 47 207 25 l 168 229 l 74 229 b 74 342 60 256 60 314 l 185 342 l 213 538 l 117 538 b 117 650 103 564 103 622 l 229 650 l 250 794 b 383 842 258 846 311 869 l 356 650 l 479 650 l 500 794 b 633 842 508 846 561 869 l 606 650 l 706 650 b 706 538 719 621 724 565 l 589 538 l 561 342 l 663 342 m 435 342 l 463 538 l 339 538 l 311 342 "},"⁄":{"ha":639,"x_min":0,"x_max":0,"o":"m 188 -36 b 140 -181 160 -97 147 -133 b 113 -185 131 -183 121 -185 b 63 -44 56 -183 31 -117 l 464 826 b 482 871 471 843 476 857 b 507 957 493 900 500 926 b 508 967 507 960 507 964 b 510 967 508 967 510 967 b 572 796 590 968 610 886 "},"∕":{"ha":639,"x_min":0,"x_max":0,"o":"m 188 -36 b 140 -181 160 -97 147 -133 b 63 -44 65 -203 26 -128 l 464 826 b 508 967 488 882 499 918 b 572 796 590 969 610 888 "},"¼":{"ha":1197,"x_min":0,"x_max":0,"o":"m 772 1036 b 836 865 854 1039 874 957 l 451 33 b 404 -111 424 -28 411 -64 b 326 25 329 -133 290 -58 l 728 896 b 772 1036 751 951 763 988 m 122 431 l 122 806 l 107 806 b 29 893 35 806 18 846 b 317 960 107 906 238 935 l 317 428 l 410 408 b 329 332 410 361 379 332 b 199 335 329 332 244 335 b 32 332 147 335 32 332 b 24 367 26 343 24 356 b 74 418 24 389 35 406 m 1085 210 b 1144 218 1110 211 1129 214 b 1164 160 1156 203 1164 182 b 1085 90 1164 125 1140 94 l 1085 86 b 976 -17 1085 1 1042 -17 b 890 10 950 -17 922 -11 l 893 93 l 688 93 l 656 181 b 908 615 704 297 836 524 l 1085 576 m 897 429 b 779 207 864 374 803 261 l 897 207 l 897 429 "},"½":{"ha":1217,"x_min":0,"x_max":0,"o":"m 772 1036 b 836 865 854 1039 874 957 l 451 33 b 404 -111 424 -28 411 -64 b 326 25 329 -133 290 -58 l 728 896 b 772 1036 751 951 763 988 m 122 431 l 122 806 l 107 806 b 29 893 35 806 18 846 b 317 960 107 906 238 935 l 317 428 l 410 408 b 329 332 410 361 379 332 b 199 335 329 332 244 335 b 32 332 147 335 32 332 b 24 367 26 343 24 356 b 74 418 24 389 35 406 m 835 204 b 958 411 921 306 958 361 b 901 493 958 463 932 493 b 847 382 857 493 844 447 b 746 458 782 367 746 394 b 957 604 746 533 811 604 b 1160 439 1076 604 1160 531 b 971 174 1160 350 1100 278 l 925 138 b 1150 174 1014 138 1106 147 b 1186 89 1178 146 1186 118 b 1043 -8 1186 29 1117 -8 b 728 0 985 -8 728 0 l 714 63 l 835 204 "},"¾":{"ha":1281,"x_min":0,"x_max":0,"o":"m 856 1036 b 919 865 938 1039 957 957 l 535 33 b 488 -111 507 -28 494 -64 b 410 25 413 -133 374 -58 l 811 896 b 856 1036 835 951 846 988 m 496 511 b 232 311 496 381 394 311 b 29 436 106 311 29 361 b 122 519 29 485 64 519 b 146 517 132 519 142 518 b 239 411 151 442 186 411 b 300 476 271 411 300 431 b 161 564 300 533 246 557 l 142 650 b 267 743 232 657 267 693 b 211 821 267 788 244 821 b 169 711 172 821 160 776 b 128 701 154 704 136 701 b 56 786 82 701 56 735 b 263 925 56 861 126 925 b 460 772 383 925 460 867 b 382 653 460 718 426 675 b 496 511 457 626 496 574 m 1168 210 b 1228 218 1193 211 1213 214 b 1247 160 1239 203 1247 182 b 1168 90 1247 125 1224 94 l 1168 86 b 1060 -17 1168 1 1125 -17 b 974 10 1033 -17 1006 -11 l 976 93 l 771 93 l 739 181 b 992 615 788 297 919 524 l 1168 576 m 981 429 b 863 207 947 374 886 261 l 981 207 l 981 429 "},"°":{"ha":535,"x_min":0,"x_max":0,"o":"m 36 679 b 279 925 36 835 142 925 b 499 719 408 925 499 847 b 256 471 499 563 393 471 b 36 679 126 471 36 547 m 274 568 b 364 679 326 568 364 603 b 261 821 364 760 324 821 b 169 711 207 821 169 788 b 274 568 169 629 208 568 "},"%":{"ha":1107,"x_min":0,"x_max":0,"o":"m 311 -8 b 246 -94 279 -43 264 -64 b 199 26 185 -94 140 -35 l 786 653 b 851 735 817 685 832 704 b 879 589 922 722 942 656 m 263 671 b 463 490 365 671 463 619 b 247 294 463 383 378 294 b 49 472 142 294 49 343 b 263 671 49 582 132 671 m 249 583 b 179 489 199 583 179 544 b 258 381 179 418 213 381 b 329 475 310 381 329 417 b 249 583 329 543 290 583 m 858 354 b 1058 174 961 354 1058 303 b 843 -22 1058 67 974 -22 b 644 156 738 -22 644 26 b 858 354 644 265 728 354 m 925 158 b 844 267 925 226 886 267 b 775 172 794 267 775 228 b 854 64 775 101 808 64 b 925 158 906 64 925 100 "},"‰":{"ha":1569,"x_min":0,"x_max":0,"o":"m 311 -8 b 246 -94 279 -43 264 -64 b 199 26 185 -94 140 -35 l 786 653 b 851 735 817 685 832 704 b 879 589 922 722 942 656 m 263 671 b 463 490 365 671 463 619 b 247 294 463 383 378 294 b 49 472 142 294 49 343 b 263 671 49 582 132 671 m 249 583 b 179 489 199 583 179 544 b 258 381 179 418 213 381 b 329 475 310 381 329 417 b 249 583 329 543 290 583 m 1321 354 b 1521 174 1424 354 1521 303 b 1306 -22 1521 67 1436 -22 b 1107 156 1200 -22 1107 26 b 1321 354 1107 265 1190 354 m 858 354 b 1058 174 961 354 1058 303 b 843 -22 1058 67 974 -22 b 644 156 738 -22 644 26 b 858 354 644 265 728 354 m 1388 158 b 1307 267 1388 226 1349 267 b 1238 172 1257 267 1238 228 b 1317 64 1238 101 1271 64 b 1388 158 1368 64 1388 100 m 925 158 b 844 267 925 226 886 267 b 775 172 794 267 775 228 b 854 64 775 101 808 64 b 925 158 906 64 925 100 "},"+":{"ha":644,"x_min":0,"x_max":0,"o":"m 588 393 b 588 281 601 364 606 308 l 388 281 l 388 51 b 256 51 356 36 289 36 l 256 281 l 56 281 b 56 393 42 307 42 365 l 256 393 l 256 619 b 388 619 288 635 354 635 l 388 393 l 588 393 "},"−":{"ha":644,"x_min":0,"x_max":0,"o":"m 588 393 b 588 281 601 364 606 308 l 56 281 b 56 393 42 307 42 365 l 588 393 "},"±":{"ha":660,"x_min":0,"x_max":0,"o":"m 596 563 b 596 450 610 533 614 478 l 396 450 l 396 221 b 264 221 364 206 297 206 l 264 450 l 64 450 b 64 563 50 476 50 535 l 264 563 l 264 789 b 396 789 296 804 363 804 l 396 563 l 596 563 m 596 113 b 596 0 610 83 614 28 l 64 0 b 64 113 50 26 50 85 l 596 113 "},"=":{"ha":624,"x_min":0,"x_max":0,"o":"m 558 522 b 558 410 572 493 576 438 l 64 410 b 64 522 50 436 50 494 l 558 522 m 558 265 b 558 153 572 236 576 181 l 64 153 b 64 265 50 179 50 238 l 558 265 "},"≠":{"ha":624,"x_min":0,"x_max":0,"o":"m 558 265 b 558 153 572 236 576 181 l 251 153 l 164 22 b 71 88 132 28 93 58 l 115 153 l 64 153 b 64 265 50 179 50 238 l 190 265 l 289 410 l 64 410 b 64 522 50 436 50 494 l 364 522 l 454 656 b 544 588 488 643 524 618 l 500 522 l 558 522 b 558 410 572 493 576 438 l 425 410 l 328 265 l 558 265 "},"≈":{"ha":633,"x_min":0,"x_max":0,"o":"m 438 503 b 539 571 486 503 517 531 b 574 515 558 569 574 550 b 419 375 574 442 507 375 b 194 444 332 375 261 444 b 97 369 144 444 114 415 b 60 428 75 372 60 393 b 215 563 60 503 126 563 b 438 503 306 563 372 503 m 574 263 b 419 122 574 189 507 122 b 194 192 332 122 261 192 b 97 117 144 192 114 163 b 60 175 75 119 60 140 b 215 310 60 250 126 310 b 438 250 306 310 372 250 b 539 318 486 250 517 278 b 574 263 558 317 574 297 "},"×":{"ha":618,"x_min":0,"x_max":0,"o":"m 49 536 b 144 624 60 568 111 614 l 315 435 l 482 621 b 565 546 514 610 550 576 l 392 351 l 569 154 b 468 67 554 121 504 75 l 303 251 l 138 67 b 53 140 101 75 63 106 l 228 336 l 49 536 "},"<":{"ha":517,"x_min":0,"x_max":0,"o":"m 40 336 l 360 644 b 440 568 394 636 428 601 l 207 351 l 442 138 b 351 47 432 104 388 54 "},">":{"ha":517,"x_min":0,"x_max":0,"o":"m 468 356 l 149 47 b 68 124 114 56 81 90 l 301 340 l 67 554 b 157 644 76 588 121 638 "},"≤":{"ha":633,"x_min":0,"x_max":0,"o":"m 101 506 l 421 814 b 501 738 456 806 489 771 l 268 521 l 503 307 b 413 217 493 274 449 224 m 571 113 b 571 0 585 83 589 28 l 64 0 b 64 113 50 26 50 85 l 571 113 "},"≥":{"ha":635,"x_min":0,"x_max":0,"o":"m 144 724 b 235 814 154 757 199 807 l 546 525 l 226 217 b 146 293 192 225 158 260 l 379 510 l 144 724 m 571 113 b 571 0 585 83 589 28 l 64 0 b 64 113 50 26 50 85 l 571 113 "},"÷":{"ha":644,"x_min":0,"x_max":0,"o":"m 410 569 b 318 475 410 518 381 475 b 233 560 263 475 233 508 b 325 653 233 610 264 653 b 410 569 378 653 410 614 m 588 393 b 588 281 601 364 606 308 l 56 281 b 56 393 42 307 42 365 l 588 393 m 325 200 b 410 117 378 200 410 161 b 318 22 410 65 381 22 b 233 107 263 22 233 56 b 325 200 233 157 264 200 "},"¬":{"ha":649,"x_min":0,"x_max":0,"o":"m 586 51 b 454 51 554 36 488 36 l 454 281 l 57 281 b 57 393 43 310 43 363 l 574 393 b 586 315 583 372 586 342 l 586 51 "},"†":{"ha":754,"x_min":0,"x_max":0,"o":"m 632 667 b 629 456 679 613 668 500 b 450 496 568 474 514 488 b 513 -179 460 213 482 -68 b 381 -221 479 -203 429 -221 b 250 -78 292 -221 250 -165 b 296 496 250 88 288 315 b 115 454 229 489 169 472 b 117 664 78 511 86 613 b 294 621 179 644 233 629 b 236 843 286 719 261 794 b 507 874 310 883 407 889 b 453 624 486 811 463 714 b 632 667 518 632 585 650 "},"‡":{"ha":754,"x_min":0,"x_max":0,"o":"m 632 667 b 629 456 679 613 668 500 b 450 496 568 474 514 488 b 461 261 453 417 457 336 b 632 303 524 269 586 288 b 629 92 679 249 668 136 b 471 129 575 108 526 121 b 513 -179 482 -7 496 -118 b 381 -221 479 -203 429 -221 b 250 -78 292 -221 250 -165 b 263 128 250 -17 256 54 b 115 90 208 119 160 106 b 117 300 78 147 86 249 b 275 260 174 282 222 268 b 296 496 285 342 293 422 b 115 454 229 489 169 472 b 117 664 78 511 86 613 b 294 621 179 644 233 629 b 236 843 286 719 261 794 b 507 874 310 883 407 889 b 453 624 486 811 463 714 b 632 667 518 632 585 650 "},"§":{"ha":722,"x_min":0,"x_max":0,"o":"m 624 -47 b 349 -296 624 -187 508 -296 b 81 -142 157 -296 81 -236 b 215 -36 81 -97 104 -28 b 361 -179 224 -124 274 -179 b 442 -114 417 -179 443 -144 b 196 85 443 -54 350 -29 b 76 311 106 153 76 222 b 181 506 76 385 113 458 b 99 676 119 560 99 611 b 374 925 99 817 214 925 b 642 771 565 925 642 865 b 507 665 642 726 618 657 b 361 808 499 753 449 808 b 281 743 306 808 279 774 b 526 544 279 683 372 658 b 646 318 617 476 646 407 b 542 124 646 244 610 171 b 624 -47 603 69 624 18 m 381 232 b 444 194 404 219 425 207 b 454 247 451 211 454 229 b 342 397 454 304 431 349 b 278 435 318 410 297 422 b 268 382 271 418 268 400 b 381 232 268 325 292 281 "},"€":{"ha":900,"x_min":0,"x_max":0,"o":"m 617 389 b 617 276 631 360 635 304 l 364 276 b 575 78 379 154 444 78 b 690 101 621 78 656 86 l 721 196 b 810 229 733 235 775 247 l 797 46 b 510 -39 740 0 629 -39 b 146 276 325 -39 163 43 l 50 276 b 50 389 36 303 36 361 l 150 389 b 574 704 183 588 353 704 b 806 663 657 704 747 688 l 779 500 b 683 461 774 464 729 447 l 674 576 b 547 601 633 593 588 601 b 364 389 454 601 376 549 l 617 389 "},"¤":{"ha":900,"x_min":0,"x_max":0,"o":"m 617 389 b 617 276 631 360 635 304 l 364 276 b 575 78 379 154 444 78 b 690 101 621 78 656 86 l 721 196 b 810 229 733 235 775 247 l 797 46 b 510 -39 740 0 629 -39 b 146 276 325 -39 163 43 l 50 276 b 50 389 36 303 36 361 l 150 389 b 574 704 183 588 353 704 b 806 663 657 704 747 688 l 779 500 b 683 461 774 464 729 447 l 674 576 b 547 601 633 593 588 601 b 364 389 454 601 376 549 l 617 389 "},"$":{"ha":692,"x_min":0,"x_max":0,"o":"m 593 535 b 465 475 583 471 524 451 l 465 585 b 372 601 438 594 406 601 b 285 533 307 601 285 564 b 353 456 285 500 296 478 l 444 421 b 643 215 592 363 643 315 b 413 -35 643 85 558 -12 l 413 -224 b 308 -226 388 -240 338 -240 l 308 -39 b 49 125 128 -32 49 26 b 193 238 49 172 74 247 b 349 78 201 144 256 78 b 435 135 411 78 435 106 b 314 244 435 165 425 193 l 211 292 b 88 461 132 329 88 372 b 308 694 88 565 149 667 l 308 885 b 413 883 338 894 386 894 l 413 701 b 608 658 481 700 550 686 "},"¢":{"ha":811,"x_min":0,"x_max":0,"o":"m 708 46 b 507 -32 665 11 592 -19 l 507 -224 b 403 -226 482 -240 432 -240 l 403 -39 b 56 317 215 -33 56 61 b 403 699 56 532 199 669 l 403 885 b 507 883 432 894 481 894 l 507 704 b 717 663 583 701 664 685 l 690 500 b 594 461 685 464 640 447 l 585 576 b 507 597 560 586 533 593 l 507 78 b 601 101 543 81 572 89 l 632 196 b 721 229 644 235 686 247 m 272 336 b 403 90 272 213 311 124 l 403 594 b 272 336 328 572 272 500 "},"ƒ":{"ha":696,"x_min":0,"x_max":0,"o":"m 626 389 b 626 276 640 360 644 304 l 456 276 l 464 58 b 147 -315 471 -156 375 -315 b -3 -222 38 -315 -3 -272 b 65 -118 -3 -178 21 -146 b 175 -200 93 -167 139 -200 b 233 -124 215 -200 236 -182 l 217 276 l 60 276 b 60 389 46 303 46 361 l 213 389 l 206 560 b 522 933 197 774 294 933 b 672 840 632 933 672 890 b 604 736 672 796 649 764 b 494 818 576 785 531 818 b 436 742 454 818 433 800 l 450 389 l 626 389 "},"£":{"ha":764,"x_min":0,"x_max":0,"o":"m 307 150 b 660 189 472 142 600 153 b 697 101 685 165 697 132 b 525 -14 697 18 621 -14 b 76 3 432 -14 76 3 l 54 81 b 218 328 183 144 214 231 l 82 328 b 82 440 68 354 68 413 l 204 440 b 160 629 188 504 160 568 b 469 897 160 769 242 897 b 636 782 575 897 636 840 b 538 678 636 738 607 693 b 418 768 506 739 463 768 b 344 692 371 768 344 739 b 425 440 344 604 406 535 l 608 440 b 608 328 622 411 626 356 l 426 328 b 307 150 411 250 364 188 "},"¥":{"ha":799,"x_min":0,"x_max":0,"o":"m 453 375 l 533 582 l 468 597 b 543 682 456 636 488 682 l 760 682 b 672 561 781 611 733 554 l 551 319 l 688 319 b 688 207 701 290 706 235 l 525 207 l 525 113 l 658 88 b 576 0 665 38 638 0 b 363 3 538 0 418 3 b 161 0 281 3 161 0 b 207 90 146 39 160 76 l 285 113 l 285 207 l 121 207 b 121 319 107 233 107 292 l 249 319 l 93 579 l 36 594 b 118 682 29 644 57 682 l 424 682 b 388 585 439 643 425 600 l 356 572 "},"¹":{"ha":442,"x_min":0,"x_max":0,"o":"m 122 504 l 122 879 l 107 879 b 29 967 35 879 18 919 b 317 1033 107 979 238 1008 l 317 501 l 410 482 b 329 406 410 435 379 406 b 199 408 329 406 244 408 b 32 406 147 408 32 406 b 24 440 26 417 24 429 b 74 492 24 463 35 479 "},"²":{"ha":524,"x_min":0,"x_max":0,"o":"m 140 617 b 264 825 226 718 264 775 b 208 906 264 876 238 906 b 154 794 163 906 150 861 b 51 872 88 779 51 808 b 263 1017 51 947 118 1017 b 467 853 383 1017 467 943 b 276 588 467 764 407 690 l 232 551 b 457 588 321 551 411 561 b 493 503 483 560 493 531 b 349 404 493 442 422 404 b 33 414 292 404 33 414 l 21 476 l 140 617 "},"³":{"ha":549,"x_min":0,"x_max":0,"o":"m 499 603 b 235 403 499 472 397 403 b 32 528 108 403 32 453 b 125 611 32 576 67 611 b 149 608 135 611 144 610 b 242 503 154 533 189 503 b 303 568 274 503 303 522 b 164 656 303 625 249 649 l 144 742 b 269 835 235 749 269 785 b 214 913 269 879 247 913 b 172 803 175 913 163 868 b 131 793 157 796 139 793 b 58 878 85 793 58 826 b 265 1017 58 953 129 1017 b 463 864 386 1017 463 958 b 385 744 463 810 429 767 b 499 603 460 718 499 665 "},"ª":{"ha":514,"x_min":0,"x_max":0,"o":"m 500 476 b 388 401 488 426 442 401 b 300 447 351 401 318 417 b 188 401 268 417 239 401 b 46 531 106 401 46 453 b 192 651 46 594 81 628 l 282 669 l 282 711 b 236 781 282 758 274 781 b 161 686 185 779 165 743 b 68 744 85 681 68 714 b 288 864 68 801 140 864 b 440 704 396 864 440 810 l 440 567 b 500 476 440 511 456 490 m 258 489 b 285 496 265 489 278 492 b 282 546 282 511 282 529 l 282 608 l 240 593 b 200 544 213 585 200 574 b 258 489 200 506 222 489 "},"º":{"ha":568,"x_min":0,"x_max":0,"o":"m 526 651 b 271 401 526 503 432 401 b 42 617 147 401 42 456 b 296 864 42 769 143 864 b 526 651 447 864 526 781 m 292 488 b 360 621 333 488 360 521 b 272 778 360 721 321 778 b 206 649 228 778 206 732 b 292 488 206 526 249 488 "},"№":{"ha":1535,"x_min":0,"x_max":0,"o":"m 710 643 b 944 981 710 908 826 981 b 1063 886 1015 981 1063 954 b 1047 828 1063 868 1058 849 b 931 853 1008 844 964 853 b 846 742 878 853 846 825 l 846 14 b 735 -15 794 -10 775 -15 b 599 64 679 -15 636 10 l 258 604 l 258 269 b 24 -68 258 4 142 -68 b -94 26 -47 -68 -94 -42 b -79 85 -94 44 -90 64 b 38 60 -40 68 4 60 b 122 171 90 60 122 88 l 122 800 l 35 818 b 117 906 28 868 56 906 l 324 906 l 710 300 l 710 643 m 1486 558 b 1203 281 1486 393 1382 281 b 947 519 1065 281 947 340 b 1231 794 947 689 1061 794 b 1486 558 1399 794 1486 701 m 1226 375 b 1301 524 1272 375 1301 413 b 1204 699 1301 635 1258 699 b 1131 554 1154 699 1131 647 b 1226 375 1131 419 1178 375 m 1431 190 b 1431 78 1444 161 1449 106 l 1003 78 b 1003 190 989 104 989 163 l 1431 190 "},"∆":{"ha":881,"x_min":0,"x_max":0,"o":"m 67 0 b 32 117 36 13 15 67 l 283 818 b 421 921 306 883 351 921 b 531 900 460 921 500 911 l 838 114 b 710 0 833 64 786 0 m 576 111 l 363 706 l 165 111 "},"Δ":{"ha":881,"x_min":0,"x_max":0,"o":"m 67 0 b 32 117 36 13 15 67 l 283 818 b 421 921 306 883 351 921 b 531 900 460 921 500 911 l 838 114 b 710 0 833 64 786 0 m 576 111 l 363 706 l 165 111 "},"Ω":{"ha":1033,"x_min":0,"x_max":0,"o":"m 464 0 l 82 0 l 35 249 b 149 219 74 276 124 274 l 179 154 l 367 167 l 367 194 b 94 518 208 224 94 325 b 531 921 94 742 265 921 b 933 560 742 921 933 818 b 667 206 933 388 839 256 l 667 167 l 854 154 l 885 219 b 999 249 910 274 960 276 l 951 0 l 569 0 l 569 313 b 685 519 653 329 685 410 b 497 769 685 681 601 769 b 343 558 383 769 343 683 b 464 322 343 433 393 353 "},"Ω":{"ha":1033,"x_min":0,"x_max":0,"o":"m 464 0 l 82 0 l 35 249 b 149 219 74 276 124 274 l 179 154 l 367 167 l 367 194 b 94 518 208 224 94 325 b 531 921 94 742 265 921 b 933 560 742 921 933 818 b 667 206 933 388 839 256 l 667 167 l 854 154 l 885 219 b 999 249 910 274 960 276 l 951 0 l 569 0 l 569 313 b 685 519 653 329 685 410 b 497 769 685 681 601 769 b 343 558 383 769 343 683 b 464 322 343 433 393 353 "},"µ":{"ha":936,"x_min":0,"x_max":0,"o":"m 778 140 b 888 197 808 140 844 157 b 917 153 900 194 917 179 b 686 -22 917 74 838 -22 b 524 99 581 -22 542 17 b 307 -22 454 18 382 -22 b 217 14 269 -22 238 -8 b 294 -165 269 -53 294 -110 b 167 -290 294 -242 240 -290 b 81 -268 136 -290 108 -283 b 100 196 101 -169 100 25 l 100 543 b 226 661 100 608 126 661 b 328 650 257 661 299 657 l 328 292 b 439 156 328 186 367 156 b 515 168 463 156 492 158 l 515 543 b 642 661 515 608 542 661 b 743 650 672 661 714 657 l 743 174 b 778 140 743 150 756 140 "},"μ":{"ha":936,"x_min":0,"x_max":0,"o":"m 778 140 b 888 197 808 140 844 157 b 917 153 900 194 917 179 b 686 -22 917 74 838 -22 b 524 99 581 -22 542 17 b 307 -22 454 18 382 -22 b 217 14 269 -22 238 -8 b 294 -165 269 -53 294 -110 b 167 -290 294 -242 240 -290 b 81 -268 136 -290 108 -283 b 100 196 101 -169 100 25 l 100 543 b 226 661 100 608 126 661 b 328 650 257 661 299 657 l 328 292 b 439 156 328 186 367 156 b 515 168 463 156 492 158 l 515 543 b 642 661 515 608 542 661 b 743 650 672 661 714 657 l 743 174 b 778 140 743 150 756 140 "},"π":{"ha":863,"x_min":0,"x_max":0,"o":"m 318 175 b 139 -22 303 46 238 -22 b 47 136 31 -22 18 83 b 182 206 138 131 175 149 l 215 469 b 108 374 153 467 121 436 b 19 474 58 368 19 408 b 247 650 19 574 99 650 l 813 650 b 813 469 826 600 826 515 l 706 469 l 681 304 b 665 182 671 243 665 210 b 707 140 665 154 681 140 b 817 197 738 140 774 157 b 846 153 829 194 846 179 b 615 -22 846 74 767 -22 b 439 142 479 -22 439 43 b 454 300 439 188 444 231 l 479 469 l 354 469 l 318 175 "},"ℓ":{"ha":579,"x_min":0,"x_max":0,"o":"m 304 -22 b 122 154 181 -22 122 40 l 122 207 b 21 238 71 181 18 190 l 122 335 l 122 768 b 350 1032 122 938 221 1032 b 544 807 458 1032 544 965 b 350 428 544 665 458 549 l 350 179 b 389 140 350 154 361 140 b 531 225 422 140 468 164 b 557 176 546 218 557 203 b 304 -22 557 96 456 -22 m 350 581 b 426 786 404 654 426 722 b 371 908 426 854 401 908 b 350 875 356 908 350 897 "},"℮":{"ha":865,"x_min":0,"x_max":0,"o":"m 214 307 b 465 42 222 132 325 42 b 740 168 575 42 682 93 b 700 72 761 150 746 108 b 447 -14 632 18 536 -14 b 63 313 246 -14 63 81 b 432 668 63 532 232 668 b 757 307 668 668 803 531 m 610 350 b 429 624 622 543 560 624 b 214 350 296 624 222 543 "},"∞":{"ha":1071,"x_min":0,"x_max":0,"o":"m 490 196 b 271 68 440 115 372 68 b 56 296 157 68 56 146 b 315 569 56 471 174 569 b 581 442 421 569 507 539 b 800 569 631 522 699 569 b 1015 342 914 569 1015 492 b 756 68 1015 167 897 68 b 490 196 650 68 564 99 m 764 414 b 646 368 722 414 685 401 b 794 246 726 257 750 246 b 872 324 842 246 872 275 b 764 414 872 379 822 414 m 307 224 b 425 269 349 224 386 236 b 276 392 344 381 321 392 b 199 314 229 392 199 363 b 307 224 199 258 249 224 "},"∂":{"ha":746,"x_min":0,"x_max":0,"o":"m 313 -22 b 40 233 139 -22 40 56 b 394 671 40 518 204 671 b 475 656 422 671 450 665 b 265 868 447 800 378 868 b 82 744 185 868 122 822 b 36 808 53 746 36 775 b 333 1007 36 883 147 1007 b 713 549 569 1007 713 840 b 313 -22 713 226 533 -22 m 331 100 b 488 486 414 100 488 286 l 488 526 b 408 549 464 540 436 549 b 256 260 307 549 256 435 b 331 100 256 151 285 100 "},"∫":{"ha":658,"x_min":0,"x_max":0,"o":"m 272 725 b 613 1099 301 975 385 1099 b 763 1006 722 1099 763 1056 b 694 901 763 961 739 929 b 585 983 667 950 621 983 b 521 907 544 983 529 965 l 386 -54 b 46 -428 350 -303 274 -428 b -104 -335 -64 -428 -104 -385 b -36 -231 -104 -290 -81 -258 b 74 -312 -8 -279 38 -312 b 138 -236 114 -312 129 -294 "},"√":{"ha":989,"x_min":0,"x_max":0,"o":"m 1124 1049 b 1110 1010 1124 1033 1119 1022 b 1043 1015 1086 1013 1064 1015 b 863 829 926 1015 886 960 l 669 -268 b 503 -410 651 -368 578 -410 b 442 -401 482 -410 461 -407 l 201 224 l 75 158 b 39 214 53 165 39 189 b 86 288 39 242 54 271 l 333 411 b 418 304 371 397 396 364 l 575 -106 l 699 829 b 982 1136 731 1074 844 1136 b 1124 1049 1058 1136 1124 1099 "},"∑":{"ha":961,"x_min":0,"x_max":0,"o":"m 325 867 l 660 369 l 246 -96 l 765 -100 l 813 -3 b 926 26 839 51 888 54 l 860 -286 l 36 -286 b 110 -94 31 -228 31 -190 l 419 283 l 29 843 b 144 976 19 921 71 976 l 811 976 l 829 789 b 742 696 835 714 800 690 l 703 849 "},"∏":{"ha":1147,"x_min":0,"x_max":0,"o":"m 1024 -289 b 838 -286 985 -289 893 -286 b 669 -289 756 -286 669 -289 b 664 -258 665 -279 664 -268 b 711 -196 664 -232 675 -210 l 760 -176 l 760 856 l 378 856 l 378 -176 l 483 -201 b 401 -289 490 -251 463 -289 b 215 -286 363 -289 271 -286 b 47 -289 133 -286 47 -289 b 42 -258 43 -279 42 -268 b 89 -196 42 -232 53 -210 l 138 -176 l 138 864 l 42 889 b 124 976 35 939 63 976 l 1092 976 b 1051 882 1107 938 1097 900 l 1000 861 l 1000 -176 l 1106 -201 b 1024 -289 1113 -251 1085 -289 "},"◊":{"ha":907,"x_min":0,"x_max":0,"o":"m 49 333 l 353 974 b 507 1043 382 1035 418 1054 l 858 340 l 533 -286 b 379 -357 501 -347 468 -368 m 492 -51 l 635 256 l 399 731 l 269 425 "},"ﬆ":{"ha":1143,"x_min":0,"x_max":0,"o":"m 388 557 b 340 564 375 561 360 564 b 258 514 279 564 258 540 b 322 446 258 486 268 467 l 407 414 b 593 217 544 360 593 310 b 315 -22 593 76 489 -22 b 38 132 122 -22 38 33 b 172 238 38 176 61 246 b 318 94 181 150 231 94 b 399 146 376 94 399 118 b 285 239 399 174 389 190 l 189 283 b 74 446 115 318 74 363 b 354 671 74 560 139 671 b 368 671 358 671 364 671 b 368 686 368 676 368 681 b 650 935 368 867 500 935 b 843 886 722 935 792 915 b 974 915 883 900 929 911 l 971 650 l 1122 650 b 1131 608 1128 635 1131 621 b 1014 526 1131 558 1092 526 l 968 526 l 968 197 b 1035 119 968 133 989 119 b 1115 142 1063 119 1097 131 b 1135 103 1129 132 1135 118 b 929 -19 1135 42 1058 -19 b 736 168 806 -19 736 25 b 744 526 736 281 740 451 l 646 540 b 642 571 643 551 642 561 b 711 640 642 613 667 635 l 750 646 l 754 801 b 643 817 718 811 679 817 b 472 686 535 817 472 779 b 475 649 472 675 474 661 b 561 544 525 628 561 592 b 424 443 561 474 501 431 l 388 557 "}}}
